<?xml version="1.0" standalone="no"?>
<!DOCTYPE svg PUBLIC "-//W3C//DTD SVG 20010904//EN"
 "http://www.w3.org/TR/2001/REC-SVG-20010904/DTD/svg10.dtd">
<svg version="1.0" xmlns="http://www.w3.org/2000/svg"
 width="512.000000pt" height="512.000000pt" viewBox="0 0 512.000000 512.000000"
 preserveAspectRatio="xMidYMid meet">

<g transform="translate(0.000000,512.000000) scale(0.100000,-0.100000)"
fill="#000000" stroke="none">
<path d="M0 4244 l0 -876 30 -28 c28 -26 42 -59 20 -45 -5 3 -10 12 -10 19 0
8 -9 16 -20 19 -20 5 -20 0 -20 -464 l0 -469 230 0 229 0 43 86 c24 47 60 106
81 132 22 25 47 62 57 82 44 84 138 147 255 171 33 6 95 27 138 46 77 34 97
35 97 6 0 -25 47 -99 77 -121 26 -19 26 -21 28 -141 2 -93 -1 -121 -10 -119
-7 2 -34 -12 -59 -31 -33 -25 -46 -42 -47 -60 0 -20 -2 -22 -7 -9 -5 12 -11
14 -21 9 -26 -17 -4 -41 37 -41 43 0 69 -16 74 -44 2 -14 -5 -21 -27 -28 -34
-9 -702 3 -920 18 -112 7 -200 15 -228 20 -23 5 -28 3 -25 -13 2 -10 5 -20 8
-23 61 -61 120 -229 120 -339 0 -96 -43 -171 -107 -187 -23 -6 -23 -7 -23
-205 l0 -198 47 -3 c64 -4 66 -24 3 -32 -41 -6 -51 -10 -48 -24 3 -13 13 -16
43 -15 l40 3 -42 -22 c-39 -20 -43 -25 -43 -60 0 -21 5 -38 10 -38 6 0 42 16
80 35 80 40 80 40 80 20 0 -21 -50 -49 -115 -65 -33 -8 -55 -19 -55 -27 0 -18
18 -17 112 8 66 16 83 18 89 7 15 -23 10 -36 -19 -41 -110 -22 -176 -38 -181
-43 -9 -10 97 5 156 22 29 9 57 13 61 10 13 -8 45 -96 38 -103 -11 -11 -92
-22 -165 -23 -41 0 -71 -3 -68 -7 4 -3 36 -5 72 -4 38 1 65 -2 65 -8 0 -16
-88 -25 -116 -12 -14 6 -29 11 -34 11 -6 0 -10 -190 -10 -500 l0 -500 2560 0
2560 0 0 1568 0 1569 -25 11 c-13 6 -33 29 -45 51 -11 22 -36 52 -56 67 -71
54 -96 162 -54 231 19 31 34 39 90 45 14 2 24 8 24 13 -3 17 34 82 51 88 13 6
15 63 15 482 l0 475 -67 0 c-77 0 -135 -13 -153 -35 -13 -16 -16 -66 -30 -565
-5 -184 -7 -344 -4 -355 12 -45 -14 -249 -40 -314 l-25 -63 20 -62 c12 -33 23
-86 26 -117 7 -71 -14 -202 -31 -196 -7 3 -52 33 -100 66 -86 61 -169 95 -379
155 -31 10 -69 27 -83 40 -26 21 -27 26 -25 117 1 52 -3 138 -9 192 -13 112 4
1098 21 1272 6 55 13 164 16 243 l6 142 -2132 0 -2131 0 0 -876z m1993 685
c15 -11 32 -39 39 -62 7 -23 18 -48 24 -54 14 -14 44 -17 44 -5 0 5 18 19 41
31 79 45 167 12 189 -71 13 -45 22 -47 61 -13 80 66 195 29 220 -71 6 -24 16
-44 21 -44 5 0 6 5 2 12 -5 8 3 9 29 5 73 -12 147 8 236 62 46 28 99 53 118
57 19 4 88 5 153 2 90 -3 123 -8 137 -20 10 -9 44 -22 76 -29 31 -6 57 -16 57
-20 0 -4 26 -13 58 -19 84 -18 182 -50 182 -59 0 -5 12 -12 27 -16 15 -3 30
-10 33 -13 3 -4 26 -18 53 -32 26 -13 47 -31 47 -39 0 -8 3 -12 6 -8 11 11
117 -109 109 -124 -4 -5 -1 -8 7 -7 9 2 12 -6 10 -25 -2 -16 3 -29 11 -33 8
-3 20 -24 27 -47 6 -23 18 -54 26 -69 8 -14 14 -36 14 -48 0 -13 4 -19 11 -14
8 4 9 -3 4 -25 -4 -20 -3 -31 4 -31 6 0 11 -7 11 -16 0 -8 -4 -12 -10 -9 -5 3
-10 2 -10 -4 0 -5 4 -12 9 -16 5 -3 8 -18 6 -33 -2 -15 -4 -31 -4 -35 -1 -5
-5 -6 -10 -3 -4 3 -11 30 -15 61 -3 30 -15 71 -26 90 -11 20 -20 42 -20 50 0
9 -4 23 -9 33 -6 9 -12 30 -16 45 -3 16 -18 40 -33 53 -15 13 -38 34 -50 47
-13 12 -32 21 -42 19 -12 -2 -22 9 -34 38 -17 42 -25 47 -56 30 -30 -16 -79
-1 -86 26 -7 27 -26 31 -44 9 -16 -19 -41 -19 -66 0 -25 19 -105 19 -151 0
-19 -8 -53 -15 -74 -15 -21 0 -41 -4 -44 -10 -3 -5 -21 -10 -40 -10 -19 0 -37
-5 -40 -11 -4 -6 -14 -8 -23 -4 -8 3 -23 -3 -33 -14 -14 -15 -27 -18 -57 -14
-35 5 -41 2 -60 -25 -15 -20 -34 -32 -58 -36 -28 -6 -38 -14 -50 -41 -10 -24
-19 -33 -29 -29 -8 4 -15 12 -15 20 0 8 -5 14 -12 14 -6 0 -19 6 -27 14 -22
18 -76 46 -201 104 -127 58 -153 69 -204 77 -21 3 -46 10 -55 15 -9 4 -81 29
-161 55 -80 26 -161 55 -180 65 -32 17 -105 36 -122 32 -5 -1 -8 2 -8 6 0 5
-12 14 -26 21 -16 7 -24 17 -21 25 4 9 -3 16 -17 20 -40 10 -76 45 -76 74 0
96 140 169 213 111z m-905 -568 c-24 -38 -96 -53 -141 -29 -21 11 -21 11 -2
19 11 4 40 8 65 8 25 1 52 6 60 11 24 15 31 12 18 -9z m368 -90 c-4 -6 -14 -7
-23 -4 -15 6 -14 7 3 13 22 9 29 6 20 -9z m112 4 c29 -2 59 -8 66 -14 6 -5 70
-15 141 -21 173 -14 262 -27 310 -44 22 -9 46 -15 53 -16 13 0 85 -30 135 -56
63 -31 186 -54 304 -56 127 -2 191 10 224 43 11 11 24 17 29 14 4 -3 10 0 12
6 3 8 12 7 31 -6 l27 -17 -40 -45 c-60 -68 -80 -133 -80 -257 0 -57 -3 -117
-6 -134 -6 -28 -8 -30 -46 -26 -82 8 -280 77 -373 129 -64 37 -273 81 -475
102 l-46 5 -52 107 c-29 59 -52 118 -52 129 0 12 -3 22 -8 22 -4 0 -18 20 -32
45 -14 25 -32 45 -41 45 -9 0 -19 7 -23 15 -7 20 -35 19 -57 -1 -16 -15 -20
-14 -53 11 -39 30 -46 41 -18 30 9 -4 41 -9 70 -10z m-400 -25 c-7 -11 -23
-20 -36 -20 -13 0 -21 4 -17 10 3 5 12 7 19 4 7 -3 16 2 19 10 4 9 11 16 17
16 6 0 5 -7 -2 -20z m85 13 c-7 -2 -19 -2 -25 0 -7 3 -2 5 12 5 14 0 19 -2 13
-5z m-107 -489 c26 -7 36 -54 27 -121 -5 -35 -11 -47 -31 -54 -37 -14 -58 -3
-75 39 -14 34 -13 40 5 77 34 67 37 69 74 59z m2492 -89 c-18 -19 -35 -29 -37
-24 -4 14 39 59 56 59 8 0 -1 -15 -19 -35z m102 -38 c0 -7 -9 -13 -21 -14 -17
-2 -18 1 -9 13 15 17 30 18 30 1z m-1835 -7 c3 -5 -3 -10 -14 -10 -12 0 -21 5
-21 10 0 6 6 10 14 10 8 0 18 -4 21 -10z m2122 -22 c-3 -8 -6 -5 -6 6 -1 11 2
17 5 13 3 -3 4 -12 1 -19z m-1262 -105 c-2 -7 2 -13 10 -13 8 0 15 -4 15 -9 0
-5 9 -11 19 -14 17 -4 18 -8 7 -41 -12 -39 -22 -46 -29 -18 -4 13 -5 12 -6 -5
0 -12 -5 -25 -11 -28 -12 -8 -12 -8 0 34 7 25 6 40 -6 62 -8 16 -12 34 -9 38
3 5 1 11 -4 13 -4 1 -12 14 -15 28 -7 23 -6 23 13 -5 12 -16 19 -36 16 -42z
m970 36 c4 -11 4 -23 1 -26 -10 -10 -35 18 -29 33 8 20 21 17 28 -7z m292 -21
c-3 -7 -5 -2 -5 12 0 14 2 19 5 13 2 -7 2 -19 0 -25z m-1200 -10 c-3 -8 -6 -5
-6 6 -1 11 2 17 5 13 3 -3 4 -12 1 -19z m-60 -74 c-3 -3 -13 8 -21 25 -23 43
-19 52 5 13 12 -18 19 -35 16 -38z m1288 -68 c15 -23 15 -23 -10 -19 -24 5
-25 8 -24 77 l1 71 9 -53 c5 -29 16 -63 24 -76z m-3253 76 c17 -14 42 -82 33
-90 -4 -5 -39 69 -37 80 1 4 -4 5 -12 2 -8 -3 -17 -1 -21 5 -3 6 -16 11 -28
11 -18 0 -19 2 -7 10 18 11 48 4 72 -18z m2398 2 c0 -16 -23 -44 -35 -44 -18
0 -19 16 -2 35 12 14 37 20 37 9z m-1234 -27 c8 3 14 1 14 -4 0 -5 10 -9 23
-10 12 -1 57 -8 100 -17 l78 -16 33 25 c49 37 114 43 165 14 93 -52 76 -177
-33 -233 -16 -8 -31 -21 -32 -28 -1 -7 -9 -30 -17 -50 -12 -29 -23 -39 -54
-47 -52 -15 -79 -14 -113 4 -33 17 -50 43 -50 77 0 13 -13 38 -28 56 -27 33
-28 33 -84 24 -49 -8 -58 -6 -61 7 -3 9 -5 2 -6 -15 0 -17 7 -42 18 -55 10
-13 28 -43 40 -67 28 -55 88 -98 159 -113 91 -18 322 -81 362 -97 14 -5 37
-21 52 -35 49 -46 100 -75 83 -47 -3 6 -2 10 2 10 5 0 13 10 18 23 6 14 26 27
55 36 25 7 52 17 61 22 9 4 44 13 77 19 37 8 59 17 55 23 -7 11 6 5 48 -24 24
-17 26 -23 21 -68 -4 -45 -2 -52 24 -76 l28 -26 -75 -77 c-41 -42 -83 -94 -92
-114 -11 -26 -21 -36 -31 -32 -42 16 -154 -56 -225 -146 -21 -27 -42 -46 -46
-42 -6 6 -22 -14 -24 -31 0 -4 -8 -24 -16 -44 -20 -48 -14 -51 19 -9 60 80
187 184 244 201 17 5 22 2 22 -13 0 -21 -28 -48 -83 -81 -54 -33 -175 -136
-209 -179 -55 -69 -51 -77 8 -17 58 59 212 175 233 175 22 0 -2 -30 -57 -72
-92 -68 -179 -146 -212 -188 -45 -56 -22 -50 47 13 54 50 148 118 201 146 19
10 22 9 22 -6 0 -12 -29 -37 -77 -70 -43 -28 -91 -65 -108 -82 -16 -17 -35
-31 -42 -31 -6 0 -15 -5 -18 -11 -10 -14 68 -3 168 26 43 12 80 18 83 14 2 -5
-42 -22 -98 -39 -57 -17 -130 -40 -162 -51 l-59 -19 23 25 c22 23 22 25 4 25
-25 0 -35 -8 -63 -48 -12 -18 -27 -30 -32 -26 -11 6 33 87 70 128 l26 28 -24
-7 -24 -7 5 83 c4 69 12 98 42 163 20 43 35 80 33 82 -1 2 -18 -23 -37 -54
-18 -31 -57 -93 -85 -137 -29 -44 -68 -109 -86 -144 -19 -35 -40 -75 -48 -90
-8 -14 -61 -71 -117 -125 -57 -55 -104 -103 -104 -108 0 -10 -33 -62 -111
-173 -30 -44 -63 -97 -72 -117 -26 -55 -37 -56 -37 -1 0 59 -17 122 -38 147
-10 10 -34 27 -55 38 -25 12 -37 25 -35 36 2 9 50 56 108 104 110 91 151 133
203 209 44 63 100 148 121 182 10 16 31 33 47 39 21 7 28 15 24 27 -19 62 211
376 293 397 12 4 22 12 22 19 0 21 -78 6 -141 -27 -65 -34 -229 -183 -265
-240 -23 -36 -44 -50 -44 -28 0 18 80 122 172 224 22 24 17 32 -11 15 -11 -7
-23 -10 -27 -6 -13 12 29 42 117 86 48 23 102 59 124 81 22 22 44 40 51 40 16
0 27 31 14 44 -6 6 -35 5 -89 -3 -44 -7 -111 -14 -148 -16 -37 -1 -79 -7 -93
-13 -18 -7 -29 -6 -39 2 -12 9 -12 12 2 14 10 2 17 7 17 11 0 5 25 25 56 45
31 21 52 41 48 46 -5 4 -50 10 -101 12 l-92 4 -3 -25 -3 -26 -38 35 c-34 32
-39 43 -52 120 -16 91 -32 140 -46 140 -5 0 -9 26 -9 58 0 46 4 63 19 76 11
10 28 40 38 68 9 27 19 45 21 39 2 -5 10 -7 18 -4z m-1141 -96 c7 -12 -15 -61
-28 -61 -6 0 -8 -3 -4 -6 9 -9 -19 -33 -52 -45 -23 -8 -37 -7 -63 5 -29 14
-33 21 -35 59 l-2 42 23 -26 c26 -31 63 -30 92 2 9 10 23 19 31 19 7 0 13 5
13 10 0 13 17 13 25 1z m519 -212 c1 -45 -2 -54 -18 -57 -11 -2 -26 -10 -34
-18 -15 -16 -42 -19 -42 -5 0 20 13 41 25 41 13 0 25 30 25 66 0 25 21 47 33
35 5 -5 10 -33 11 -62z m1506 -89 c0 -5 7 -10 15 -10 9 0 15 -9 15 -25 0 -31
-14 -32 -34 -3 -18 26 -21 48 -6 48 6 0 10 -4 10 -10z m1070 0 c0 -5 -5 -10
-11 -10 -5 0 -7 5 -4 10 3 6 8 10 11 10 2 0 4 -4 4 -10z m-59 -81 c-12 -13
-21 -28 -21 -34 0 -6 -9 -17 -20 -25 -11 -8 -20 -18 -20 -22 0 -4 -8 -17 -17
-29 -10 -11 -28 -32 -39 -46 -12 -14 -24 -21 -27 -16 -3 4 11 27 31 50 21 22
57 66 81 97 24 32 45 55 48 52 3 -2 -4 -15 -16 -27z m-2371 -119 c0 -5 -5 -10
-11 -10 -5 0 -7 5 -4 10 3 6 8 10 11 10 2 0 4 -4 4 -10z m3019 1 c10 -7 7 -9
-12 -8 -14 1 -23 5 -20 10 6 9 15 9 32 -2z m-3134 -12 c10 -15 -1 -22 -24 -14
-12 3 -19 11 -16 16 8 12 32 11 40 -2z m1845 -84 c0 -5 -5 -3 -10 5 -5 8 -10
20 -10 25 0 6 5 3 10 -5 5 -8 10 -19 10 -25z m490 25 c0 -5 -4 -10 -10 -10 -5
0 -10 5 -10 10 0 6 5 10 10 10 6 0 10 -4 10 -10z m945 -8 c-3 -3 -11 0 -18 7
-9 10 -8 11 6 5 10 -3 15 -9 12 -12z m-1027 -74 c-66 -63 -118 -104 -118 -93
0 4 32 37 72 73 39 37 76 72 82 78 6 7 15 10 19 7 4 -3 -20 -32 -55 -65z
m-1853 -68 c-9 -17 -27 -36 -40 -42 -14 -6 -25 -17 -25 -25 0 -15 -45 -57 -91
-85 -37 -22 -28 -6 18 35 18 16 33 35 33 42 0 16 114 128 118 116 2 -6 -4 -24
-13 -41z m2710 20 c3 -6 -1 -7 -9 -4 -18 7 -21 14 -7 14 6 0 13 -4 16 -10z
m55 -12 c0 -6 -6 -5 -15 2 -8 7 -15 14 -15 16 0 2 7 1 15 -2 8 -4 15 -11 15
-16z m-2667 -78 c17 0 27 -5 27 -15 0 -20 -17 -19 -65 5 -27 14 -32 19 -15 15
14 -2 37 -5 53 -5z m1927 -10 c0 -5 -4 -10 -10 -10 -5 0 -10 5 -10 10 0 6 5
10 10 10 6 0 10 -4 10 -10z m605 0 c3 -6 -1 -7 -9 -4 -18 7 -21 14 -7 14 6 0
13 -4 16 -10z m-1145 -22 c0 -13 -23 -5 -28 10 -2 7 2 10 12 6 9 -3 16 -11 16
-16z m110 2 c0 -5 -4 -10 -10 -10 -5 0 -10 5 -10 10 0 6 5 10 10 10 6 0 10 -4
10 -10z m404 -11 c-6 -11 -24 -2 -24 11 0 5 7 7 15 4 8 -4 12 -10 9 -15z
m-319 3 c-9 -9 -75 -10 -70 -1 3 4 21 8 40 7 19 -1 33 -3 30 -6z m-91 -27 c3
-9 0 -15 -9 -15 -8 0 -15 -4 -15 -8 0 -5 14 -9 30 -9 21 0 27 4 20 11 -17 17
-11 25 18 24 15 -1 37 2 49 6 18 6 22 4 17 -9 -4 -8 -11 -15 -18 -14 -26 3
-46 -2 -46 -11 0 -5 14 -7 33 -4 28 5 30 4 12 -7 -16 -11 -113 -14 -123 -4 -6
5 10 55 18 55 4 0 10 -7 14 -15z m366 -5 c0 -5 -2 -10 -4 -10 -3 0 -8 5 -11
10 -3 6 -1 10 4 10 6 0 11 -4 11 -10z m70 -4 c0 -3 -4 -8 -10 -11 -5 -3 -10
-1 -10 4 0 6 5 11 10 11 6 0 10 -2 10 -4z m-2476 -54 c40 -49 46 -68 16 -52
-18 9 -60 77 -60 96 0 9 -1 10 44 -44z m2392 22 c-3 -9 -6 -18 -6 -20 0 -2 -4
-4 -9 -4 -5 0 -7 9 -4 20 3 11 10 20 15 20 6 0 7 -7 4 -16z m44 6 c0 -5 -4
-10 -10 -10 -5 0 -10 5 -10 10 0 6 5 10 10 10 6 0 10 -4 10 -10z m-1796 -27
c8 -35 -7 -86 -37 -132 -13 -20 -36 -78 -51 -130 -37 -131 -108 -259 -137
-249 -7 2 -13 20 -14 38 -1 19 -8 56 -15 82 -11 38 -12 50 -2 60 10 10 17 10
32 1 22 -14 24 -9 35 70 3 26 13 63 21 83 13 30 13 35 -1 40 -8 4 -15 17 -15
30 0 30 80 111 118 120 15 3 32 7 37 9 20 7 24 4 29 -22z m1711 17 c-3 -5 -11
-10 -16 -10 -6 0 -7 5 -4 10 3 6 11 10 16 10 6 0 7 -4 4 -10z m109 -5 c-4 -9
0 -15 7 -16 8 0 3 -5 -10 -10 -30 -12 -36 -6 -19 20 15 24 30 28 22 6z m36 5
c0 -5 -4 -10 -10 -10 -5 0 -10 5 -10 10 0 6 5 10 10 10 6 0 10 -4 10 -10z
m-2523 -48 c11 -15 30 -47 43 -72 21 -41 55 -79 73 -80 14 0 7 38 -13 63 -25
32 -25 47 0 47 24 0 90 -31 90 -42 0 -5 5 -6 10 -3 6 3 10 17 10 30 0 19 4 22
21 18 11 -3 23 -12 26 -19 8 -21 21 -17 29 8 6 19 7 19 16 5 17 -32 -22 -77
-73 -83 -63 -8 -82 -25 -93 -84 -6 -30 -19 -66 -29 -80 -21 -30 -22 -70 -2
-70 17 0 20 -13 34 -148 13 -124 13 -132 2 -132 -7 0 -37 87 -115 337 -28 88
-32 129 -15 135 6 2 -6 35 -30 78 -38 70 -49 109 -35 123 10 10 30 -2 51 -31z
m2126 29 c10 -1 16 -5 13 -10 -3 -4 -26 -7 -51 -6 -25 2 -45 -2 -45 -7 0 -5 4
-7 9 -3 5 3 12 1 16 -5 4 -6 -5 -10 -19 -10 -14 0 -26 -5 -26 -11 0 -5 8 -9
18 -8 30 3 42 -1 42 -12 0 -7 -11 -9 -30 -5 -17 3 -30 1 -30 -4 0 -6 7 -10 15
-10 8 0 15 -5 15 -10 0 -6 -6 -10 -12 -9 -29 3 -49 -2 -43 -11 4 -6 16 -10 28
-8 16 2 22 -2 21 -14 -1 -10 2 -18 7 -18 5 0 9 16 9 36 0 28 3 35 15 30 10 -4
15 1 15 14 0 11 4 20 9 20 5 0 9 -11 9 -25 0 -15 -6 -25 -14 -25 -8 0 -14 -5
-14 -11 0 -6 7 -8 16 -5 12 4 14 1 9 -13 -3 -11 -1 -22 5 -26 9 -6 14 15 13
53 -1 6 3 12 8 12 5 0 9 -8 9 -17 0 -15 4 -13 20 7 12 15 18 18 14 8 -3 -10
-1 -18 5 -18 6 0 11 6 11 13 0 6 13 12 30 13 17 1 30 0 30 -2 0 -1 -5 -15 -10
-29 -7 -18 -15 -25 -25 -21 -9 3 -15 0 -15 -9 0 -9 6 -12 15 -9 9 4 15 0 15
-10 0 -10 -8 -16 -22 -16 -16 0 -19 -3 -11 -11 6 -6 9 -19 7 -28 -3 -9 2 -5
10 9 8 14 15 21 16 15 0 -14 50 -13 50 2 0 6 -8 9 -20 6 -17 -5 -19 -1 -15 32
8 56 20 73 50 68 26 -6 32 -17 15 -28 -6 -4 -17 -2 -24 4 -11 9 -15 5 -18 -19
-3 -17 -1 -33 4 -36 4 -3 8 4 8 15 0 12 7 21 15 21 18 0 19 -12 4 -27 -8 -8
-8 -13 1 -18 7 -4 14 1 17 14 3 12 10 21 15 21 5 0 6 -9 3 -20 -4 -11 -2 -20
4 -20 6 0 11 9 11 21 0 15 4 19 16 15 11 -4 18 1 21 14 3 11 10 19 17 18 6 -2
11 1 11 7 0 16 -33 12 -38 -5 -3 -11 -13 -16 -28 -15 -13 1 -22 6 -19 11 3 5
11 8 18 6 6 -2 12 2 12 8 0 5 -7 10 -15 10 -8 0 -15 7 -15 15 0 18 12 19 28 3
9 -9 12 -8 12 5 0 9 -8 17 -17 18 -12 1 -9 4 7 8 14 4 34 4 45 1 23 -9 30 -10
50 -10 8 0 15 -5 15 -10 0 -10 -29 -8 -70 5 -14 5 -20 2 -20 -9 0 -11 9 -16
28 -16 36 0 40 -5 35 -34 -4 -17 -10 -22 -24 -19 -13 4 -19 0 -19 -11 0 -9 -8
-16 -20 -16 -11 0 -20 -5 -20 -11 0 -6 10 -10 23 -9 12 1 31 2 42 1 16 -1 17
-3 6 -10 -8 -5 -20 -7 -28 -4 -8 3 -13 -2 -13 -12 0 -11 5 -15 15 -11 8 3 15
1 15 -4 0 -6 -12 -10 -26 -10 -18 0 -25 4 -21 14 3 8 -1 17 -9 20 -12 5 -14 1
-9 -16 6 -18 4 -20 -14 -15 -13 3 -21 0 -21 -8 0 -8 11 -11 35 -8 26 2 35 0
35 -11 0 -10 -8 -13 -25 -10 -14 2 -25 0 -25 -6 0 -5 14 -10 30 -10 17 0 30
-3 30 -8 0 -4 -18 -6 -41 -4 -29 3 -39 8 -35 18 3 8 1 14 -4 14 -6 0 -10 -7
-10 -16 0 -8 -4 -13 -9 -9 -5 3 -12 1 -16 -5 -4 -6 9 -10 32 -11 35 0 88 -15
71 -20 -21 -5 -35 -4 -60 2 -16 4 -28 4 -28 -1 0 -7 66 -25 82 -22 4 1 5 -5 2
-13 -4 -11 -11 -12 -24 -5 -23 12 -89 21 -115 14 -12 -3 -21 -14 -22 -24 -2
-18 -1 -18 17 0 15 15 25 16 66 9 26 -5 53 -14 59 -20 7 -8 4 -10 -10 -6 -42
12 -71 14 -90 6 l-20 -9 20 1 c47 3 72 -2 91 -16 18 -13 17 -14 -16 -9 -69 10
-100 10 -112 2 -8 -5 3 -8 27 -8 64 0 85 -9 85 -36 0 -18 -6 -24 -21 -24 -12
0 -17 -4 -14 -11 4 -6 13 -8 21 -5 8 3 14 1 14 -4 0 -6 -4 -10 -10 -10 -5 0
-10 -9 -10 -19 0 -14 -5 -18 -20 -14 -11 3 -20 10 -20 15 0 6 7 8 15 4 8 -3
15 -1 15 4 0 10 -3 11 -60 14 -20 0 -33 -3 -30 -9 3 -5 15 -8 27 -7 16 2 22
-3 25 -20 2 -17 8 -22 26 -20 12 2 22 -1 22 -6 0 -5 -18 -9 -40 -8 -34 2 -39
0 -34 -16 3 -10 1 -18 -5 -18 -5 0 -12 10 -14 23 -3 16 -5 14 -6 -10 -1 -31
-1 -31 44 -29 29 1 44 -2 42 -8 -2 -6 -23 -10 -46 -8 -39 2 -42 1 -36 -18 4
-11 2 -20 -4 -20 -6 0 -11 9 -11 21 0 15 -5 19 -15 15 -12 -4 -15 3 -16 32 -1
20 -3 29 -6 19 -4 -14 -12 -18 -29 -14 -15 2 -24 0 -24 -8 0 -7 8 -12 18 -11
9 0 17 -3 17 -9 0 -5 -15 -9 -32 -9 -18 1 -33 -2 -33 -7 0 -5 19 -9 42 -9 46
0 44 -15 -3 -16 -16 0 -29 -4 -29 -10 1 -5 10 -8 20 -6 16 3 20 -3 20 -25 l0
-28 -70 0 c-46 0 -70 4 -70 11 0 8 20 11 65 7 45 -3 65 -1 65 7 0 6 -10 10
-22 8 -20 -3 -24 3 -29 37 -3 22 -7 30 -8 18 -3 -47 -19 -21 -18 30 l0 52 -36
-3 c-21 -1 -37 2 -37 8 0 6 24 10 56 10 49 0 55 2 44 15 -8 9 -18 12 -29 7
-29 -15 -46 -8 -49 20 -3 22 1 27 17 25 24 -1 29 -17 6 -17 -8 0 -15 -4 -15
-8 0 -9 67 -9 76 1 4 4 -2 7 -13 7 -15 0 -20 6 -20 25 0 15 5 25 13 25 8 0 14
5 14 11 0 6 -6 9 -14 6 -12 -5 -13 4 -9 49 4 36 2 54 -5 54 -7 0 -9 -14 -7
-35 l5 -35 -43 -1 c-23 0 -50 -2 -59 -4 -11 -2 -18 3 -18 11 0 10 9 13 36 10
40 -5 64 1 64 16 0 6 -6 5 -15 -2 -8 -7 -15 -8 -15 -3 0 6 -11 8 -24 6 -18 -4
-25 0 -29 18 -4 13 -3 26 2 29 14 9 20 89 7 94 -6 2 4 7 22 11 40 9 43 28 2
21 -16 -2 -30 0 -30 5 0 5 3 9 8 10 4 0 19 3 35 5 24 4 27 2 27 -26 0 -23 -4
-30 -20 -30 -11 0 -20 -5 -20 -11 0 -6 14 -9 33 -7 26 2 31 0 29 -15 -2 -9 2
-17 8 -17 5 0 10 10 10 22 0 28 13 15 16 -16 2 -19 -3 -26 -19 -29 -13 -2 -6
-5 16 -6 37 -1 54 -21 17 -21 -11 0 -20 -4 -20 -10 0 -5 9 -10 20 -10 13 0 18
-5 14 -15 -4 -8 -1 -15 5 -15 6 0 11 7 11 15 0 9 10 15 26 15 19 0 25 -4 21
-15 -4 -8 -2 -17 3 -20 6 -4 10 10 11 32 0 21 4 47 9 58 9 20 9 20 9 0 1 -14
8 -21 21 -21 11 0 20 4 20 8 0 4 -7 8 -15 8 -8 0 -15 8 -15 18 0 10 -7 19 -15
19 -8 0 -15 -9 -15 -19 0 -13 -7 -18 -26 -18 -14 0 -23 -4 -20 -8 2 -4 1 -14
-5 -22 -6 -11 -9 -8 -9 12 0 20 -4 26 -15 22 -9 -4 -15 0 -15 10 0 11 8 15 30
12 17 -2 30 1 30 5 0 5 -13 9 -30 9 -20 0 -30 5 -30 15 0 8 -7 15 -15 15 -11
0 -15 11 -15 39 l0 39 -45 -3 c-25 -2 -45 0 -45 5 0 6 14 10 30 10 17 0 30 5
30 10 0 6 -13 8 -31 5 -26 -5 -30 -3 -25 10 3 9 6 23 6 32 0 9 6 13 15 9 9 -3
15 0 15 9 0 9 -6 12 -15 9 -8 -4 -15 -1 -15 5 0 6 7 11 15 11 8 0 15 7 15 15
0 8 5 15 10 15 6 0 10 8 10 18 0 14 8 17 38 16 20 -1 45 -3 55 -3z m317 -1 c0
-5 -4 -10 -10 -10 -5 0 -10 5 -10 10 0 6 5 10 10 10 6 0 10 -4 10 -10z m-2170
-14 c0 -23 -29 -41 -48 -30 -27 17 -25 32 5 37 15 2 31 5 36 6 4 0 7 -5 7 -13z
m2114 -7 c20 3 36 0 36 -6 0 -5 -18 -8 -39 -8 -36 -1 -39 1 -29 18 7 14 12 16
18 7 4 -6 10 -11 14 -11z m89 -9 c7 0 7 -4 -2 -9 -16 -10 -41 -4 -41 11 0 6 7
7 16 4 9 -3 21 -6 27 -6z m-347 -7 c-11 -11 -46 -14 -46 -3 0 6 12 10 27 10
14 0 23 -3 19 -7z m198 -14 c-8 -14 -24 -10 -24 6 0 9 6 12 15 9 8 -4 12 -10
9 -15z m-4 -29 c0 -5 -6 -10 -14 -10 -8 0 -18 5 -21 10 -3 6 3 10 14 10 12 0
21 -4 21 -10z m120 -84 c0 -2 -7 -6 -15 -10 -8 -3 -15 -1 -15 4 0 6 7 10 15
10 8 0 15 -2 15 -4z m-2182 -35 c3 -8 -1 -12 -9 -9 -7 2 -15 10 -17 17 -3 8 1
12 9 9 7 -2 15 -10 17 -17z m1792 -12 c0 -5 -4 -9 -10 -9 -5 0 -10 7 -10 16 0
8 5 12 10 9 6 -3 10 -10 10 -16z m-1818 -4 c0 -5 -5 -11 -11 -13 -6 -2 -11 4
-11 13 0 9 5 15 11 13 6 -2 11 -8 11 -13z m-1020 -85 c5 0 6 -4 3 -10 -4 -6
-17 -4 -36 6 -17 8 -28 18 -25 21 3 3 -1 12 -9 20 -8 8 -15 19 -15 24 0 6 16
-6 37 -26 20 -19 40 -35 45 -35z m1228 61 c0 -6 -22 -21 -49 -34 l-49 -25 -10
23 c-10 23 -9 25 31 33 57 13 77 14 77 3z m1610 -1 c0 -5 -4 -10 -10 -10 -5 0
-10 5 -10 10 0 6 5 10 10 10 6 0 10 -4 10 -10z m-1792 -22 c-3 -7 -14 -14 -26
-16 -12 -2 -22 -8 -22 -13 0 -5 -4 -9 -10 -9 -22 0 -8 29 18 38 37 14 44 14
40 0z m1165 -6 c-3 -11 -32 -32 -71 -50 -111 -52 -122 -47 -27 12 50 30 93 55
97 55 3 1 4 -7 1 -17z m-1155 -75 c2 -33 7 -45 16 -41 20 8 27 -54 8 -73 -11
-11 -12 -17 -4 -22 13 -8 19 -132 7 -151 -12 -20 -36 18 -29 46 4 15 -1 29
-16 44 -15 15 -20 31 -19 58 2 21 -1 44 -5 50 -4 7 -2 19 4 27 7 8 11 15 9 16
-38 8 -37 11 -35 -102 2 -60 5 -112 9 -115 4 -4 13 -1 22 6 12 10 15 10 15 -4
0 -13 -57 -53 -65 -44 -4 5 -25 168 -25 200 0 16 5 27 12 26 8 -2 11 9 9 35
-2 28 1 37 13 37 9 0 16 5 16 12 0 17 32 49 44 45 6 -2 12 -24 14 -50z m1902
3 c0 -5 -5 -10 -11 -10 -5 0 -7 5 -4 10 3 6 8 10 11 10 2 0 4 -4 4 -10z
m-2937 -14 c15 -4 27 -13 27 -21 0 -19 -11 -19 -36 -1 -10 8 -29 12 -41 9 -13
-3 -23 -1 -23 4 0 16 12 24 29 19 9 -2 28 -7 44 -10z m1117 -41 c0 -25 -4 -45
-10 -45 -5 0 -10 20 -10 45 0 25 5 45 10 45 6 0 10 -20 10 -45z m-1060 21 c0
-3 -4 -8 -10 -11 -5 -3 -10 -1 -10 4 0 6 5 11 10 11 6 0 10 -2 10 -4z m38 -76
c11 -10 23 -16 28 -12 4 4 4 2 0 -5 -9 -17 -57 1 -87 33 l-23 24 31 -10 c17
-6 39 -20 51 -30z m2026 5 c25 -4 44 -11 41 -15 -3 -5 -20 -6 -39 -3 -43 7
-76 -11 -76 -42 0 -15 -10 -31 -27 -42 -34 -24 -83 -73 -83 -84 0 -5 18 -9 39
-9 22 0 42 -4 45 -9 3 -5 29 -14 57 -21 33 -8 47 -16 41 -22 -7 -7 -41 -3
-101 11 -88 21 -154 21 -166 0 -3 -4 22 -11 55 -15 33 -3 67 -12 76 -19 20
-14 10 -35 -17 -35 -29 0 -23 -29 11 -48 33 -19 37 -33 16 -51 -12 -10 -18 -7
-30 17 -14 26 -58 52 -89 52 -9 0 -5 -38 9 -89 6 -20 4 -23 -9 -18 -22 8 -47
-2 -47 -18 0 -8 9 -17 20 -20 11 -3 20 -12 20 -18 0 -8 4 -7 9 2 5 8 7 20 5
26 -5 13 53 42 63 32 11 -11 -71 -95 -87 -90 -8 3 -28 8 -45 10 l-30 4 33 -21
c36 -24 42 -50 13 -50 -32 0 -52 12 -62 36 -7 19 -16 24 -43 24 -38 0 -46 -12
-46 -65 0 -24 -6 -38 -19 -45 -36 -19 -36 -22 -4 170 16 95 55 192 88 220 9 8
28 37 42 64 14 28 36 64 50 80 17 20 21 32 13 41 -16 19 48 45 130 52 39 3 70
10 70 16 0 5 6 7 14 4 7 -3 34 -9 60 -12z m635 -50 c-1 -36 -5 -65 -10 -65 -5
0 -9 9 -9 20 0 15 -6 19 -22 17 -20 -2 -23 3 -26 41 -3 37 -1 42 17 42 12 0
21 -4 21 -10 0 -5 -6 -10 -12 -10 -7 0 -14 -11 -14 -25 -1 -14 2 -25 7 -25 5
0 10 10 10 23 l2 22 4 -22 c7 -36 23 -27 19 10 -4 30 0 47 10 47 2 0 4 -29 3
-65z m51 35 c0 -19 -6 -26 -20 -27 -16 -1 -20 4 -20 27 0 23 4 28 20 27 14 -1
20 -8 20 -27z m-1643 -46 c2 -5 -8 -22 -22 -38 -14 -16 -25 -33 -25 -38 0 -4
-4 -8 -10 -8 -18 0 -11 46 11 74 20 26 39 30 46 10z m-1087 -64 c6 0 10 -13
10 -30 0 -37 -6 -37 -47 -1 -34 30 -43 47 -19 38 10 -4 12 1 9 16 l-6 22 22
-22 c12 -13 26 -23 31 -23z m2650 19 c0 -6 -7 -8 -16 -5 -12 4 -14 1 -9 -14 4
-11 2 -20 -4 -20 -6 0 -11 11 -11 25 0 18 5 25 20 25 11 0 20 -5 20 -11z
m-2539 -19 c5 0 9 -7 9 -15 0 -18 -5 -18 -31 -5 -23 13 -26 35 -3 26 9 -3 20
-6 25 -6z m2549 -10 c0 -5 -4 -10 -10 -10 -5 0 -10 5 -10 10 0 6 5 10 10 10 6
0 10 -4 10 -10z m-25 -29 c3 -5 1 -12 -5 -16 -5 -3 -10 1 -10 9 0 18 6 21 15
7z m75 -2 c0 -5 -9 -9 -20 -9 -11 0 -20 4 -20 8 0 4 9 8 20 9 11 1 20 -2 20
-8z m290 1 c0 -5 -11 -10 -25 -10 -14 0 -25 5 -25 10 0 6 11 10 25 10 14 0 25
-4 25 -10z m-2830 -10 c0 -5 -4 -10 -10 -10 -5 0 -10 5 -10 10 0 6 5 10 10 10
6 0 10 -4 10 -10z m2559 -45 c-1 -23 -3 -25 -6 -7 -2 12 -9 22 -14 22 -6 0 -7
-9 -4 -20 4 -11 2 -20 -4 -20 -6 0 -11 9 -11 20 0 11 -4 20 -10 20 -5 0 -7
-16 -5 -35 3 -20 0 -35 -5 -35 -6 0 -9 3 -9 8 1 4 1 19 0 35 -1 24 -4 27 -26
21 -14 -3 -25 -2 -25 3 0 5 17 10 37 11 21 2 39 5 41 7 2 2 13 3 23 2 15 -1
19 -8 18 -32z m-1738 -33 c-6 -2 -11 -16 -11 -31 0 -23 -6 -30 -36 -39 -33
-10 -36 -9 -45 14 -10 29 4 64 26 64 7 0 20 6 27 13 24 24 43 25 46 3 2 -11
-1 -22 -7 -24z m-86 28 c-3 -5 -10 -10 -16 -10 -5 0 -9 5 -9 10 0 6 7 10 16
10 8 0 12 -4 9 -10z m1740 -10 c3 -5 -3 -10 -15 -10 -12 0 -18 5 -15 10 3 6
10 10 15 10 5 0 12 -4 15 -10z m245 0 c0 -5 -4 -10 -10 -10 -5 0 -10 5 -10 10
0 6 5 10 10 10 6 0 10 -4 10 -10z m60 0 c0 -5 -4 -10 -10 -10 -5 0 -10 5 -10
10 0 6 5 10 10 10 6 0 10 -4 10 -10z m25 1 c3 -5 1 -12 -5 -16 -5 -3 -10 1
-10 9 0 18 6 21 15 7z m-3010 -28 c32 -22 36 -28 22 -31 -30 -6 -61 7 -80 33
-17 24 -17 25 0 25 10 0 36 -12 58 -27z m2389 11 c3 -8 2 -12 -4 -9 -6 3 -10
10 -10 16 0 14 7 11 14 -7z m356 -14 c0 -5 -4 -10 -10 -10 -5 0 -10 5 -10 10
0 6 5 10 10 10 6 0 10 -4 10 -10z m30 0 c0 -5 -4 -10 -10 -10 -5 0 -10 5 -10
10 0 6 5 10 10 10 6 0 10 -4 10 -10z m120 0 c0 -5 -4 -10 -10 -10 -5 0 -10 5
-10 10 0 6 5 10 10 10 6 0 10 -4 10 -10z m55 -11 c-5 -14 -1 -19 14 -19 12 0
21 -4 21 -10 0 -5 -14 -7 -31 -5 -20 2 -29 0 -26 -8 3 -7 10 -11 16 -9 6 1 11
-2 11 -8 0 -5 -6 -10 -14 -10 -8 0 -13 -7 -12 -16 1 -13 -12 -16 -66 -18 -38
-1 -68 2 -68 6 0 9 9 10 73 8 36 -1 47 2 47 14 0 10 -6 13 -15 10 -10 -4 -15
0 -15 15 0 32 3 36 28 35 12 0 22 4 22 8 0 4 -7 8 -15 8 -8 0 -15 4 -15 9 0 5
11 9 25 9 20 0 24 -4 20 -19z m55 2 c0 -4 -9 -7 -20 -8 -11 -1 -20 4 -20 12 0
8 7 11 20 8 11 -3 20 -8 20 -12z m-2785 -25 c20 -19 19 -22 -7 -21 -28 0 -45
10 -58 35 -9 17 -7 18 20 10 17 -5 37 -15 45 -24z m699 -26 c12 -13 12 -17 0
-27 -10 -10 -16 -9 -28 9 -9 12 -16 34 -16 48 1 24 1 24 15 5 8 -11 21 -27 29
-35z m1796 19 c0 -5 -4 -9 -10 -9 -5 0 -10 7 -10 16 0 8 5 12 10 9 6 -3 10
-10 10 -16z m-2618 -10 c16 -12 27 -23 24 -26 -5 -5 -76 35 -76 43 0 10 24 2
52 -17z m2588 11 c0 -5 -7 -7 -15 -4 -8 4 -15 8 -15 10 0 2 7 4 15 4 8 0 15
-4 15 -10z m26 -60 c8 0 14 -3 14 -7 0 -5 -13 -8 -30 -8 -16 0 -30 3 -30 8 0
4 5 7 10 7 6 0 11 10 11 23 l2 22 4 -22 c2 -13 11 -23 19 -23z m34 20 c0 -14
6 -20 16 -18 10 2 19 -3 21 -10 8 -21 -40 -7 -48 14 -11 27 -10 34 1 34 6 0
10 -9 10 -20z m50 5 c0 -8 -2 -15 -4 -15 -2 0 -6 7 -10 15 -3 8 -1 15 4 15 6
0 10 -7 10 -15z m30 5 c0 -5 -4 -10 -10 -10 -5 0 -10 5 -10 10 0 6 5 10 10 10
6 0 10 -4 10 -10z m50 -5 c0 -8 -7 -11 -20 -8 -11 3 -20 8 -20 12 0 4 9 7 20
8 11 1 20 -4 20 -12z m130 -1 c0 -7 -8 -10 -20 -7 -11 3 -20 9 -20 14 0 4 9 7
20 6 11 -1 20 -7 20 -13z m-20 -34 c0 -13 -11 -13 -30 0 -12 8 -11 10 8 10 12
0 22 -4 22 -10z m-90 -31 c0 -6 -4 -7 -10 -4 -5 3 -10 11 -10 16 0 6 5 7 10 4
6 -3 10 -11 10 -16z m-210 7 c0 -3 -4 -8 -10 -11 -5 -3 -10 -1 -10 4 0 6 5 11
10 11 6 0 10 -2 10 -4z m25 -6 c3 -5 1 -10 -4 -10 -6 0 -11 5 -11 10 0 6 2 10
4 10 3 0 8 -4 11 -10z m50 0 c3 -5 1 -10 -4 -10 -6 0 -11 5 -11 10 0 6 2 10 4
10 3 0 8 -4 11 -10z m48 -11 c-4 -16 -2 -20 12 -17 10 2 19 -3 21 -10 1 -7 0
-8 -3 -2 -3 8 -9 7 -19 -1 -11 -9 -14 -8 -14 2 0 12 -2 12 -9 0 -5 -8 -7 -21
-4 -30 3 -12 0 -11 -11 3 -20 25 -20 36 -1 36 8 0 15 9 15 20 0 11 4 20 9 20
5 0 7 -9 4 -21z m57 9 c0 -11 -28 -10 -35 1 -3 6 4 9 15 8 11 -1 20 -5 20 -9z
m115 2 c4 -7 -5 -9 -24 -5 -24 4 -31 2 -31 -10 0 -11 6 -14 25 -9 19 5 25 2
25 -10 0 -11 -7 -15 -22 -12 -13 3 -26 5 -29 5 -4 1 -9 12 -11 26 -5 23 -2 25
28 25 18 0 36 -5 39 -10z m-318 -42 c-3 -8 -6 -5 -6 6 -1 11 2 17 5 13 3 -3 4
-12 1 -19z m243 8 c0 -9 -9 -12 -25 -8 -29 5 -26 17 4 19 12 1 21 -4 21 -11z
m-150 -6 c0 -5 -2 -10 -4 -10 -3 0 -8 5 -11 10 -3 6 -1 10 4 10 6 0 11 -4 11
-10z m130 -27 c0 -3 -7 -3 -15 1 -8 3 -15 0 -15 -6 0 -6 -3 -9 -6 -5 -11 10 6
26 21 20 8 -3 15 -7 15 -10z m-210 -3 c0 -5 -2 -10 -4 -10 -3 0 -8 5 -11 10
-3 6 -1 10 4 10 6 0 11 -4 11 -10z m90 0 c0 -5 -2 -10 -4 -10 -3 0 -8 5 -11
10 -3 6 -1 10 4 10 6 0 11 -4 11 -10z m60 0 c0 -5 -2 -10 -4 -10 -3 0 -8 5
-11 10 -3 6 -1 10 4 10 6 0 11 -4 11 -10z m90 0 c0 -5 -4 -10 -10 -10 -5 0
-10 5 -10 10 0 6 5 10 10 10 6 0 10 -4 10 -10z m36 -7 c-4 -9 -1 -20 6 -25 10
-7 9 -9 -2 -5 -18 4 -27 47 -10 47 7 0 9 -7 6 -17z m-26 -23 c0 -5 -4 -10 -10
-10 -5 0 -10 5 -10 10 0 6 5 10 10 10 6 0 10 -4 10 -10z m25 -30 c3 -5 1 -10
-4 -10 -6 0 -11 5 -11 10 0 6 2 10 4 10 3 0 8 -4 11 -10z m-1515 -75 c70 -15
110 -36 110 -57 0 -5 -12 0 -27 9 -15 10 -24 12 -20 6 11 -18 -7 -16 -78 6
-33 10 -86 22 -117 25 -32 4 -60 12 -63 17 -4 5 -17 9 -31 9 -13 0 -24 6 -24
13 0 12 15 12 88 1 48 -7 121 -20 162 -29z m1450 41 c0 -3 -4 -8 -10 -11 -5
-3 -10 -1 -10 4 0 6 5 11 10 11 6 0 10 -2 10 -4z m50 0 c0 -3 -4 -8 -10 -11
-5 -3 -10 -1 -10 4 0 6 5 11 10 11 6 0 10 -2 10 -4z m15 -47 c-7 -10 -35 -1
-35 11 0 5 9 6 20 3 11 -3 17 -9 15 -14z m-1925 -28 c16 -30 12 -43 -12 -39
-17 2 -24 11 -26 31 -4 32 21 38 38 8z m1865 1 c-11 -11 -45 -8 -45 3 0 8 10
10 25 7 14 -2 23 -7 20 -10z m-61 -43 c-4 -7 -83 -3 -91 5 -6 6 37 10 65 7 6
-1 12 8 13 21 1 22 1 22 8 -2 5 -14 7 -27 5 -31z m96 41 c0 -5 -4 -10 -10 -10
-5 0 -10 5 -10 10 0 6 5 10 10 10 6 0 10 -4 10 -10z m-65 -29 c3 -5 1 -12 -5
-16 -5 -3 -10 1 -10 9 0 18 6 21 15 7z m22 -13 c-3 -8 -6 -5 -6 6 -1 11 2 17
5 13 3 -3 4 -12 1 -19z m63 7 c0 -5 -11 -10 -25 -10 -14 0 -25 5 -25 11 0 7
11 11 25 10 14 0 25 -5 25 -11z m-1900 -30 c0 -8 -6 -15 -14 -15 -17 0 -28 14
-19 24 12 12 33 6 33 -9z m230 -4 c0 -12 -20 -25 -27 -18 -7 7 6 27 18 27 5 0
9 -4 9 -9z m1530 -1 c0 -5 -4 -10 -10 -10 -5 0 -10 5 -10 10 0 6 5 10 10 10 6
0 10 -4 10 -10z m29 3 c0 -5 -4 -17 -9 -28 -8 -18 -9 -17 -9 8 -1 15 4 27 9
27 6 0 10 -3 9 -7z m86 -40 c0 -24 -4 -43 -8 -43 -5 0 -5 4 -2 10 3 5 -3 15
-15 22 -11 7 -20 17 -20 22 0 4 7 3 15 -4 12 -10 15 -10 15 4 0 11 -9 16 -26
16 -18 0 -25 -4 -21 -14 3 -8 3 -17 -1 -21 -4 -4 -8 -11 -8 -16 -1 -5 -2 -13
-3 -19 0 -5 -5 -10 -11 -10 -5 0 -9 6 -7 13 1 6 -4 11 -10 10 -7 -2 -13 2 -13
7 0 6 8 10 18 8 13 -2 18 5 20 28 3 28 6 30 40 30 37 -1 37 -1 37 -43z m22 25
c-3 -8 -6 -5 -6 6 -1 11 2 17 5 13 3 -3 4 -12 1 -19z m-2 -28 c3 -5 1 -10 -4
-10 -6 0 -11 5 -11 10 0 6 2 10 4 10 3 0 8 -4 11 -10z m-145 -21 c0 -4 -13 -7
-30 -7 -16 1 -27 4 -25 8 6 10 55 9 55 -1z m100 -9 c0 -5 -7 -10 -15 -10 -8 0
-15 5 -15 10 0 6 7 10 15 10 8 0 15 -4 15 -10z m-1800 -18 c0 -14 -39 -46 -47
-39 -3 4 2 16 12 27 19 21 35 26 35 12z m1655 -2 c-3 -5 -10 -10 -16 -10 -5 0
-9 5 -9 10 0 6 7 10 16 10 8 0 12 -4 9 -10z m33 -8 c-10 -2 -18 -10 -18 -18 0
-8 -5 -14 -11 -14 -5 0 -7 -4 -4 -10 3 -5 1 -10 -4 -10 -6 0 -11 7 -11 15 0 9
-6 12 -15 9 -8 -4 -15 -1 -15 6 0 7 8 10 19 7 12 -3 27 3 37 14 9 10 22 15 28
11 7 -4 5 -8 -6 -10z m37 -21 c-5 -13 -4 -14 6 -3 20 19 31 14 19 -8 -13 -25
-40 -26 -41 -2 -1 16 -2 16 -6 0 -4 -15 -33 -27 -33 -14 0 16 14 36 26 36 8 0
14 5 14 11 0 5 5 7 11 4 6 -4 8 -14 4 -24z m90 19 c-3 -5 -11 -10 -16 -10 -6
0 -7 5 -4 10 3 6 11 10 16 10 6 0 7 -4 4 -10z m-24 -29 c7 11 9 11 9 -3 0 -11
-8 -18 -19 -18 -15 0 -18 5 -13 23 6 20 7 20 10 3 3 -15 6 -16 13 -5z m-585
-18 c-4 -9 -2 -19 3 -23 19 -11 -1 -49 -30 -59 -24 -8 -30 -7 -39 9 -5 10 -10
31 -10 46 0 21 4 25 20 21 13 -3 20 0 20 9 0 8 9 14 21 14 16 0 19 -4 15 -17z
m234 -46 c0 -34 -14 -51 -28 -34 -9 10 -9 20 0 39 14 30 28 27 28 -5z m-180
-37 c12 -23 12 -24 -3 -11 -10 7 -17 20 -17 29 0 18 3 16 20 -18z m-1240 0 c0
-5 -4 -10 -10 -10 -5 0 -10 5 -10 10 0 6 5 10 10 10 6 0 10 -4 10 -10z m1380
-70 c-11 -22 -27 -40 -35 -40 -22 0 -18 16 13 50 38 41 46 37 22 -10z m-2770
20 c3 0 -10 -7 -29 -15 -30 -13 -161 -22 -150 -10 17 16 141 34 179 25z m2700
-20 c12 -8 11 -10 -7 -10 -13 0 -23 5 -23 10 0 13 11 13 30 0z m-1096 -158 c8
-13 -126 -14 -144 -2 -11 7 7 10 62 10 42 0 79 -4 82 -8z m91 -2 c3 -5 2 -10
-4 -10 -5 0 -13 5 -16 10 -3 6 -2 10 4 10 5 0 13 -4 16 -10z m-1293 -77 c24
-29 78 -171 75 -195 -3 -16 -12 -24 -31 -26 -23 -3 -29 3 -50 50 -13 29 -26
61 -29 71 -4 9 -12 17 -18 17 -7 0 -10 -3 -6 -6 3 -4 -1 -20 -9 -36 -9 -17
-11 -27 -5 -24 6 4 11 2 11 -3 0 -6 3 -10 8 -10 21 4 32 -3 32 -20 0 -30 -25
-42 -76 -39 -68 4 -74 20 -39 107 43 107 60 131 93 131 16 0 36 -8 44 -17z
m618 -87 l0 -104 -31 -7 c-17 -4 -43 -2 -58 5 -70 29 -56 129 20 144 22 4 29
11 29 29 0 27 7 37 27 37 10 0 13 -24 13 -104z m230 69 c0 -23 5 -35 13 -34
53 7 92 -28 83 -74 -3 -17 -13 -39 -22 -48 -19 -21 -66 -33 -94 -24 -18 6 -20
15 -20 111 0 97 1 104 20 104 16 0 20 -7 20 -35z m866 23 c4 -6 0 -16 -9 -23
-22 -16 -21 -24 1 -41 16 -13 16 -15 0 -27 -11 -9 -18 -31 -20 -63 -3 -41 -6
-49 -23 -49 -17 0 -20 7 -22 45 -1 24 -7 54 -14 67 -10 18 -9 25 5 38 9 9 16
23 16 30 0 27 53 45 66 23z m59 -67 c4 -44 4 -85 0 -90 -3 -6 -1 -11 4 -11 6
0 11 -9 11 -20 0 -23 -29 -27 -48 -8 -13 13 -17 189 -5 201 21 22 31 2 38 -72z
m-415 49 c0 -13 -7 -20 -20 -20 -13 0 -20 7 -20 20 0 13 7 20 20 20 13 0 20
-7 20 -20z m-911 -83 c17 -50 31 -95 31 -100 0 -4 -9 -7 -20 -7 -13 0 -22 9
-26 25 -5 21 -12 25 -40 25 -28 0 -36 -5 -44 -25 -11 -28 -40 -34 -40 -8 0 10
12 55 28 100 25 76 29 83 54 83 24 0 29 -7 57 -93z m851 73 c0 -17 -7 -20 -40
-20 -33 0 -40 -3 -40 -19 0 -16 8 -20 37 -23 27 -2 39 -8 41 -20 3 -15 -4 -18
-37 -18 l-41 0 0 -40 c0 -33 -3 -40 -20 -40 -19 0 -20 7 -20 100 l0 100 60 0
c53 0 60 -2 60 -20z m-527 -52 c25 -29 22 -74 -8 -103 -56 -57 -137 -4 -120
77 13 55 90 71 128 26z m315 -12 c18 -36 8 -46 -45 -46 -39 0 -44 -2 -33 -15
7 -8 26 -15 42 -15 42 0 35 -34 -8 -38 -66 -7 -108 69 -69 125 28 40 91 34
113 -11z m515 16 c9 -8 17 -26 17 -39 0 -21 -4 -23 -46 -23 -56 0 -57 -23 -1
-28 41 -4 51 -26 17 -37 -25 -8 -76 2 -88 18 -20 26 -23 69 -7 94 28 42 69 48
108 15z m-243 -57 c0 -68 -2 -75 -20 -75 -18 0 -20 7 -20 75 0 68 2 75 20 75
18 0 20 -7 20 -75z m120 55 c0 -12 -8 -20 -22 -22 -20 -3 -23 -10 -26 -55 -3
-45 -6 -53 -23 -53 -17 0 -19 7 -19 74 l0 74 45 0 c37 0 45 -3 45 -18z m373
-22 c12 -36 16 -40 22 -23 19 55 26 65 45 65 11 0 20 -1 20 -3 0 -2 -17 -46
-38 -98 -31 -76 -43 -95 -61 -97 -20 -3 -21 -1 -11 18 14 27 10 58 -18 128
l-22 52 24 0 c20 0 27 -8 39 -42z m286 -220 c18 -21 20 -28 10 -28 -27 0 -51
24 -43 43 3 10 7 17 8 15 0 -2 12 -15 25 -30z m231 -24 c0 -2 -7 -4 -15 -4 -8
0 -15 4 -15 10 0 5 7 7 15 4 8 -4 15 -8 15 -10z"/>
<path d="M2258 2883 c6 -2 18 -2 25 0 6 3 1 5 -13 5 -14 0 -19 -2 -12 -5z"/>
<path d="M2705 2567 c-27 -17 -67 -50 -89 -72 -21 -22 -42 -41 -47 -41 -22 -3
-23 -5 -11 -13 10 -6 9 -15 -8 -44 -12 -20 -20 -42 -18 -49 3 -8 12 0 21 17
40 79 186 215 230 215 10 0 15 5 12 10 -11 18 -39 11 -90 -23z"/>
<path d="M2465 2576 c-50 -22 -108 -75 -142 -129 -18 -28 -31 -53 -28 -55 2
-2 29 23 60 56 31 33 75 72 99 86 76 45 84 74 11 42z"/>
<path d="M3510 2289 c0 -5 5 -7 10 -4 6 3 10 8 10 11 0 2 -4 4 -10 4 -5 0 -10
-5 -10 -11z"/>
<path d="M3379 2268 c0 -2 -3 -16 -5 -31 -4 -23 -1 -27 13 -25 14 2 17 -3 15
-19 -2 -13 2 -23 7 -23 6 0 11 14 11 30 0 23 -5 30 -19 30 -14 0 -18 5 -14 20
3 11 3 20 -1 20 -3 0 -6 -1 -7 -2z"/>
<path d="M3471 2254 c0 -11 3 -14 6 -6 3 7 2 16 -1 19 -3 4 -6 -2 -5 -13z"/>
<path d="M3430 2220 c0 -5 5 -10 10 -10 6 0 10 5 10 10 0 6 -4 10 -10 10 -5 0
-10 -4 -10 -10z"/>
<path d="M3460 2221 c0 -6 5 -13 10 -16 6 -3 10 1 10 9 0 9 -4 16 -10 16 -5 0
-10 -4 -10 -9z"/>
<path d="M3595 2200 c3 -5 8 -10 11 -10 2 0 4 5 4 10 0 6 -5 10 -11 10 -5 0
-7 -4 -4 -10z"/>
<path d="M3620 2200 c0 -5 5 -10 10 -10 6 0 10 5 10 10 0 6 -4 10 -10 10 -5 0
-10 -4 -10 -10z"/>
<path d="M3370 2191 c0 -6 5 -13 10 -16 6 -3 10 1 10 9 0 9 -4 16 -10 16 -5 0
-10 -4 -10 -9z"/>
<path d="M3431 2171 c1 -18 3 -21 6 -8 3 10 10 16 17 14 7 -3 18 -2 25 3 9 5
2 9 -18 12 -28 4 -31 2 -30 -21z"/>
<path d="M3523 2166 c4 -10 1 -13 -8 -10 -8 3 -20 2 -26 -2 -9 -5 -7 -10 7
-15 31 -12 41 -10 47 10 3 12 -1 22 -10 25 -10 4 -13 2 -10 -8z"/>
<path d="M3560 2171 c0 -5 -3 -16 -6 -25 -3 -9 -1 -16 5 -16 6 0 11 7 11 15 0
8 9 15 20 15 11 0 20 5 20 10 0 6 -11 10 -25 10 -14 0 -25 -4 -25 -9z"/>
<path d="M3400 2149 c0 -5 5 -7 10 -4 6 3 10 8 10 11 0 2 -4 4 -10 4 -5 0 -10
-5 -10 -11z"/>
<path d="M3455 2150 c3 -5 8 -10 11 -10 2 0 4 5 4 10 0 6 -5 10 -11 10 -5 0
-7 -4 -4 -10z"/>
<path d="M3585 2140 c-3 -5 -1 -10 4 -10 6 0 11 5 11 10 0 6 -2 10 -4 10 -3 0
-8 -4 -11 -10z"/>
<path d="M3273 2118 c-2 -5 2 -8 11 -8 8 0 21 -3 30 -6 10 -4 16 -1 16 9 0 15
-47 19 -57 5z"/>
<path d="M3525 2110 c3 -5 8 -10 11 -10 2 0 4 5 4 10 0 6 -5 10 -11 10 -5 0
-7 -4 -4 -10z"/>
<path d="M3550 2110 c0 -5 5 -10 11 -10 5 0 7 5 4 10 -3 6 -8 10 -11 10 -2 0
-4 -4 -4 -10z"/>
<path d="M3286 2092 c-12 -12 -5 -19 19 -19 14 0 25 3 25 7 0 10 -37 20 -44
12z"/>
<path d="M3550 2080 c0 -4 7 -7 15 -6 23 3 26 12 5 13 -11 1 -20 -2 -20 -7z"/>
<path d="M3260 2050 c0 -5 9 -10 20 -10 11 0 20 5 20 10 0 6 -9 10 -20 10 -11
0 -20 -4 -20 -10z"/>
<path d="M3310 2050 c0 -5 5 -10 10 -10 6 0 10 5 10 10 0 6 -4 10 -10 10 -5 0
-10 -4 -10 -10z"/>
<path d="M3495 2050 c-3 -5 -1 -10 4 -10 6 0 11 5 11 10 0 6 -2 10 -4 10 -3 0
-8 -4 -11 -10z"/>
<path d="M3370 2020 c0 -5 5 -10 10 -10 6 0 10 5 10 10 0 6 -4 10 -10 10 -5 0
-10 -4 -10 -10z"/>
<path d="M3430 2020 c0 -5 5 -10 10 -10 6 0 10 5 10 10 0 6 -4 10 -10 10 -5 0
-10 -4 -10 -10z"/>
<path d="M3371 1984 c0 -11 3 -14 6 -6 3 7 2 16 -1 19 -3 4 -6 -2 -5 -13z"/>
<path d="M3424 1982 c6 -10 42 -9 52 1 4 4 -7 7 -25 7 -18 0 -30 -4 -27 -8z"/>
<path d="M3490 1979 c0 -5 5 -7 10 -4 6 3 10 8 10 11 0 2 -4 4 -10 4 -5 0 -10
-5 -10 -11z"/>
<path d="M3540 1954 c0 -7 8 -15 18 -17 11 -3 7 -5 -10 -6 -42 -2 -41 -17 2
-18 31 -1 37 2 33 15 -5 12 -1 14 20 8 21 -5 27 -3 27 9 0 11 -7 14 -25 11
-14 -3 -25 -1 -25 3 0 3 -9 7 -20 7 -11 0 -20 -6 -20 -12z"/>
<path d="M3395 1950 c-3 -5 -1 -10 4 -10 6 0 11 5 11 10 0 6 -2 10 -4 10 -3 0
-8 -4 -11 -10z"/>
<path d="M3420 1950 c0 -5 5 -10 10 -10 6 0 10 5 10 10 0 6 -4 10 -10 10 -5 0
-10 -4 -10 -10z"/>
<path d="M3455 1950 c-3 -5 -1 -10 4 -10 6 0 11 5 11 10 0 6 -2 10 -4 10 -3 0
-8 -4 -11 -10z"/>
<path d="M3490 1950 c0 -5 9 -10 21 -10 11 0 17 5 14 10 -3 6 -13 10 -21 10
-8 0 -14 -4 -14 -10z"/>
<path d="M3433 1913 c9 -2 25 -2 35 0 9 3 1 5 -18 5 -19 0 -27 -2 -17 -5z"/>
<path d="M3482 1891 c-11 -7 -11 -9 2 -14 10 -4 16 -1 16 8 0 17 -1 17 -18 6z"/>
<path d="M3400 1880 c0 -5 5 -10 11 -10 5 0 7 5 4 10 -3 6 -8 10 -11 10 -2 0
-4 -4 -4 -10z"/>
<path d="M3446 1848 c3 -4 12 -8 20 -8 8 0 14 4 14 8 0 4 -9 8 -19 8 -11 0
-17 -4 -15 -8z"/>
<path d="M3490 1852 c0 -4 9 -8 20 -8 11 0 20 4 20 8 0 4 -9 8 -20 8 -11 0
-20 -4 -20 -8z"/>
<path d="M3540 1850 c0 -5 5 -10 10 -10 6 0 10 5 10 10 0 6 -4 10 -10 10 -5 0
-10 -4 -10 -10z"/>
<path d="M3372 1800 c0 -19 2 -27 5 -17 2 9 2 25 0 35 -3 9 -5 1 -5 -18z"/>
<path d="M3445 1820 c-3 -5 -1 -10 4 -10 6 0 11 5 11 10 0 6 -2 10 -4 10 -3 0
-8 -4 -11 -10z"/>
<path d="M3490 1814 c0 -8 5 -12 10 -9 6 3 10 10 10 16 0 5 -4 9 -10 9 -5 0
-10 -7 -10 -16z"/>
<path d="M3390 1779 c0 -5 5 -7 10 -4 6 3 10 8 10 11 0 2 -4 4 -10 4 -5 0 -10
-5 -10 -11z"/>
<path d="M3490 1780 c0 -5 5 -10 10 -10 6 0 10 5 10 10 0 6 -4 10 -10 10 -5 0
-10 -4 -10 -10z"/>
<path d="M3310 1950 c0 -5 5 -10 10 -10 6 0 10 5 10 10 0 6 -4 10 -10 10 -5 0
-10 -4 -10 -10z"/>
<path d="M3470 1650 c0 -5 5 -10 10 -10 6 0 10 5 10 10 0 6 -4 10 -10 10 -5 0
-10 -4 -10 -10z"/>
<path d="M1240 615 c-18 -21 -4 -65 20 -65 17 0 20 7 20 40 0 43 -17 53 -40
25z"/>
<path d="M1550 589 c0 -36 2 -40 23 -37 42 6 33 77 -10 78 -8 0 -13 -15 -13
-41z"/>
<path d="M1080 641 c0 -5 -3 -16 -6 -25 -4 -12 0 -16 16 -16 16 0 20 4 16 16
-3 9 -6 20 -6 25 0 5 -4 9 -10 9 -5 0 -10 -4 -10 -9z"/>
<path d="M1394 616 c-11 -28 0 -61 21 -61 16 0 20 7 20 35 0 25 -5 36 -18 38
-9 2 -20 -3 -23 -12z"/>
<path d="M1710 620 c0 -5 9 -10 20 -10 11 0 20 5 20 10 0 6 -9 10 -20 10 -11
0 -20 -4 -20 -10z"/>
<path d="M2235 620 c-4 -6 5 -10 20 -10 15 0 24 4 20 10 -3 6 -12 10 -20 10
-8 0 -17 -4 -20 -10z"/>
<path d="M1100 2875 c-7 -9 -8 -15 -2 -15 5 0 12 7 16 15 3 8 4 15 2 15 -2 0
-9 -7 -16 -15z"/>
<path d="M1034 2857 c-39 -23 -74 -55 -74 -68 0 -8 -9 -27 -20 -44 -25 -37
-25 -67 -2 -88 21 -19 52 -23 52 -6 0 5 18 40 40 76 28 47 40 78 40 105 0 41
-4 44 -36 25z"/>
<path d="M1160 2773 c0 -15 -2 -16 -10 -3 -8 11 -9 7 -4 -15 8 -37 22 -53 29
-34 10 30 9 62 -2 66 -8 3 -13 -3 -13 -14z"/>
<path d="M820 2594 c0 -29 65 -174 83 -186 7 -4 27 -8 45 -8 48 0 46 8 -37
126 -67 96 -91 114 -91 68z"/>
<path d="M537 2499 c-10 -15 -21 -43 -24 -63 -5 -35 -5 -36 26 -36 29 0 31 2
30 38 -1 20 -4 48 -8 62 l-7 25 -17 -26z"/>
<path d="M724 2450 c3 -14 6 -31 6 -37 0 -7 5 -13 10 -13 15 0 12 34 -6 56
-15 18 -15 18 -10 -6z"/>
<path d="M130 1090 c-8 -6 -27 -7 -41 -4 -18 3 -28 0 -32 -10 -4 -9 -18 -16
-32 -16 -14 0 -25 -4 -25 -10 0 -14 23 -13 83 4 29 8 75 18 102 22 43 6 46 8
25 15 -36 10 -63 10 -80 -1z"/>
</g>
</svg>
