<?xml version="1.0" standalone="no"?>
<!DOCTYPE svg PUBLIC "-//W3C//DTD SVG 20010904//EN"
 "http://www.w3.org/TR/2001/REC-SVG-20010904/DTD/svg10.dtd">
<svg version="1.0" xmlns="http://www.w3.org/2000/svg"
 width="1386.000000pt" height="1920.000000pt" viewBox="0 0 1386.000000 1920.000000"
 preserveAspectRatio="xMidYMid meet">

<g transform="translate(0.000000,1920.000000) scale(0.100000,-0.100000)"
fill="#000000" stroke="none">
<path d="M0 17698 l0 -1503 62 -45 c34 -24 66 -49 72 -55 6 -6 49 -40 96 -75
100 -77 99 -76 219 -176 51 -44 114 -96 140 -117 105 -86 129 -116 135 -165 3
-26 8 -1246 12 -2712 3 -1466 8 -2692 9 -2725 2 -33 5 -370 6 -750 1 -496 -1
-698 -10 -718 -14 -35 -14 -40 -1 -32 19 12 22 -25 5 -51 -9 -15 -13 -24 -8
-21 5 3 15 2 23 -3 11 -7 11 -11 1 -23 -10 -13 -9 -17 6 -26 11 -6 13 -11 5
-11 -7 0 -10 -4 -7 -10 3 -6 -4 -10 -17 -10 -22 -1 -22 -1 5 -18 15 -9 27 -24
26 -32 -3 -32 2 -40 24 -39 16 1 18 2 5 6 -19 5 -23 15 -10 27 4 4 7 13 7 19
1 7 7 11 15 9 11 -3 9 2 -4 17 -18 19 -15 41 5 41 6 0 8 -4 5 -9 -7 -10 19
-23 28 -14 3 3 -2 12 -10 20 -8 8 -12 19 -9 24 4 5 1 9 -5 9 -6 0 -9 4 -5 10
4 6 15 6 32 -1 27 -10 27 -10 8 10 -24 28 -8 27 22 -1 l23 -21 0 21 c0 11 -8
26 -17 31 -16 9 -15 10 5 11 13 0 21 4 17 9 -3 5 4 13 16 16 16 5 19 12 15 31
-4 14 -2 24 4 24 9 0 15 -29 11 -53 -1 -4 11 0 25 10 15 9 21 19 15 21 -9 3
-9 7 0 18 6 8 15 11 20 8 5 -3 6 2 3 10 -3 9 -11 16 -17 16 -6 0 -7 3 -4 7 4
3 17 -2 29 -13 21 -19 21 -19 16 4 -4 15 -2 22 8 22 8 0 14 -4 14 -10 0 -19
21 -10 32 15 6 13 15 22 20 19 4 -3 5 -10 2 -16 -4 -6 1 -17 10 -24 22 -15 17
-50 -7 -48 -9 1 -17 -4 -17 -12 0 -8 -6 -13 -13 -12 -6 2 -12 -7 -12 -19 0
-12 -4 -25 -8 -29 -4 -4 -7 0 -7 9 0 10 -4 17 -10 17 -5 0 -7 -6 -4 -14 3 -8
-3 -20 -13 -27 -11 -8 -22 -22 -26 -31 -7 -19 10 -79 26 -89 14 -10 4 -44 -13
-44 -8 0 -18 -4 -22 -10 -5 -7 -14 -6 -27 2 -19 12 -20 11 -11 -12 8 -20 6
-25 -7 -25 -9 0 -14 -3 -10 -6 9 -9 48 6 42 17 -4 5 1 9 9 9 18 0 22 -26 5
-32 -9 -3 -9 -14 1 -42 9 -28 9 -41 1 -49 -6 -6 -11 -8 -11 -3 0 4 -7 0 -16
-9 -15 -15 -18 -15 -36 2 -16 15 -21 15 -28 3 -6 -10 -3 -21 8 -35 9 -11 18
-22 19 -24 2 -3 10 4 18 15 14 18 14 16 9 -16 -4 -26 -3 -31 5 -20 8 11 11 12
11 2 0 -8 5 -10 12 -6 6 4 2 -9 -11 -30 -19 -30 -21 -39 -11 -52 11 -12 10
-17 -6 -29 -10 -8 -14 -15 -8 -15 5 0 19 7 30 15 23 17 34 19 34 4 0 -5 -4 -8
-9 -5 -10 7 -24 -22 -16 -34 3 -5 0 -12 -6 -16 -8 -4 -9 -3 -5 4 4 7 1 12 -9
12 -13 0 -15 -7 -9 -37 7 -35 6 -37 -9 -24 -15 12 -17 11 -17 -3 0 -9 8 -16
17 -16 13 0 14 -3 5 -12 -17 -17 -15 -28 4 -21 14 5 15 3 5 -15 -7 -12 -9 -22
-5 -22 3 0 1 -7 -6 -15 -10 -12 -9 -16 4 -21 26 -10 18 -27 -10 -21 -23 4 -25
2 -20 -18 4 -14 1 -25 -7 -28 -6 -3 3 -6 22 -6 21 -1 38 5 47 16 19 26 26 11
15 -33 -8 -34 -10 -36 -16 -17 -9 30 -24 21 -18 -11 3 -13 0 -27 -6 -30 -19
-12 -50 4 -53 27 -3 20 -4 19 -9 -5 -4 -15 -2 -25 2 -22 13 8 11 -10 -3 -26
-11 -12 -10 -12 5 0 16 12 20 12 28 -1 8 -12 10 -12 20 1 8 12 9 9 5 -12 -7
-31 12 -49 26 -24 12 21 42 22 34 0 -3 -8 -2 -12 3 -9 5 3 9 32 8 65 -1 65 5
79 28 60 18 -15 19 -7 3 20 -7 10 -8 23 -4 27 5 4 11 2 13 -5 3 -6 10 -9 15
-6 6 4 8 2 5 -3 -4 -6 2 -21 13 -33 22 -25 26 -20 9 12 -9 17 -8 19 8 16 10
-2 18 -12 18 -23 0 -12 9 -21 25 -25 l25 -6 -24 -13 c-16 -9 -20 -15 -12 -21
9 -5 7 -17 -9 -44 -11 -21 -18 -41 -15 -47 4 -5 1 -9 -4 -9 -6 0 -11 -6 -11
-14 0 -7 -11 -34 -25 -60 -19 -36 -21 -46 -10 -46 8 0 15 8 15 18 0 13 2 14 9
3 5 -7 14 -10 20 -7 6 4 11 3 11 -3 0 -15 -48 -49 -79 -56 -20 -4 -28 -12 -27
-26 0 -10 5 -19 10 -18 19 2 24 -25 8 -38 -15 -11 -15 -12 7 -13 19 0 22 -4
18 -21 -4 -16 -3 -18 9 -8 8 6 14 18 14 26 0 8 4 12 10 8 5 -3 3 7 -5 21 -18
36 -12 44 38 45 38 1 39 2 12 8 l-29 6 28 23 c16 12 37 22 48 22 11 0 16 5 13
10 -3 6 -1 10 4 10 6 0 11 -4 11 -9 0 -5 8 -7 19 -4 13 3 20 -2 25 -19 5 -19
8 -21 16 -8 8 11 9 8 5 -15 -3 -16 -2 -23 1 -15 4 8 17 28 30 43 13 15 32 48
43 72 11 26 27 45 35 45 19 0 21 16 4 23 -11 5 2 8 29 7 4 0 7 -15 6 -33 -2
-24 -1 -27 5 -13 6 14 11 16 16 7 5 -7 1 -20 -8 -30 -9 -10 -13 -21 -9 -24 3
-4 1 -7 -5 -7 -6 0 -9 -7 -6 -15 4 -8 -1 -17 -10 -21 -14 -5 -14 -8 0 -21 8
-9 13 -22 10 -30 -3 -8 -6 -19 -6 -24 0 -6 -4 -8 -9 -4 -6 3 -14 -3 -20 -12
-8 -14 -10 -15 -11 -3 0 11 -2 12 -8 2 -8 -12 -70 -23 -124 -22 -34 0 -80 -46
-72 -74 4 -12 2 -16 -5 -12 -7 5 -9 1 -5 -8 3 -9 10 -13 15 -10 14 8 10 -40
-4 -61 -10 -12 -16 -14 -21 -7 -4 7 -3 12 2 12 5 0 9 6 9 14 0 11 -4 12 -19 3
-10 -7 -18 -17 -18 -24 0 -7 -4 -13 -9 -13 -16 0 -20 -81 -5 -115 15 -37 19
-73 7 -61 -5 4 -13 24 -19 44 l-10 37 -13 -65 c-24 -120 -25 -130 -7 -130 9 0
17 -4 17 -10 3 -19 5 -25 23 -63 20 -41 10 -71 -14 -42 -27 32 -46 15 -42 -37
1 -10 -3 -18 -8 -18 -6 0 -9 -3 -9 -7 4 -25 -2 -53 -11 -48 -5 3 -10 2 -10 -4
0 -6 -12 -22 -27 -37 -16 -15 -22 -23 -16 -20 15 8 18 -10 4 -19 -6 -3 -6 -18
0 -38 11 -40 11 -50 0 -43 -5 3 -12 -11 -16 -32 -4 -20 -12 -43 -18 -51 -9
-11 -9 -13 0 -8 9 6 8 -5 -2 -40 -8 -26 -15 -52 -16 -58 0 -5 -5 1 -10 15 -8
24 -8 24 -6 -5 1 -17 -3 -37 -8 -45 -5 -8 -8 -43 -7 -77 2 -71 -10 -113 -32
-113 -21 0 -29 34 -22 99 l6 56 -33 -37 -33 -37 -2 665 c-2 600 -1 663 13 658
13 -5 15 -1 9 22 -6 26 -5 27 8 16 11 -9 18 -10 23 -2 9 15 -3 30 -20 24 -10
-4 -12 0 -8 16 3 12 12 24 19 27 17 6 18 29 2 39 -7 5 -9 2 -5 -8 3 -10 -4
-24 -18 -36 -29 -25 -43 -12 -15 13 11 10 20 24 20 31 0 16 -37 7 -44 -11 -3
-10 0 -12 11 -8 14 5 13 2 -3 -19 -10 -14 -21 -24 -23 -22 -2 2 -10 -1 -18 -7
-13 -12 -18 -80 -6 -93 4 -3 8 -14 9 -24 1 -9 4 -32 8 -49 4 -20 2 -33 -4 -33
-7 0 -10 -185 -9 -577 2 -607 4 -663 23 -664 6 0 28 -35 48 -77 34 -68 36 -78
23 -91 -13 -14 -15 -13 -15 2 0 15 -3 15 -20 5 -21 -14 -28 -48 -9 -48 8 0 7
-6 -2 -17 -10 -12 -11 -17 -2 -20 7 -2 9 -11 6 -20 -4 -10 -2 -14 4 -10 6 4
15 -17 23 -52 11 -54 11 -62 -6 -85 -11 -14 -22 -26 -25 -26 -8 0 -29 80 -29
110 0 34 -23 18 -38 -26 -16 -45 -11 -131 13 -214 31 -106 35 -131 29 -154 -4
-17 -11 -22 -24 -19 -11 3 -16 11 -13 19 3 9 -1 14 -12 14 -12 0 -16 -6 -12
-19 3 -13 -1 -21 -14 -24 -16 -4 -18 -14 -14 -90 3 -56 1 -88 -6 -93 -8 -4 -7
-9 2 -15 12 -8 11 -11 -1 -19 -13 -9 -13 -11 0 -21 13 -9 12 -10 -3 -5 -13 4
-20 0 -24 -12 -2 -10 -14 -22 -25 -27 -14 -7 -22 -20 -23 -38 0 -16 -6 -31
-13 -36 -6 -4 -13 -17 -15 -29 -2 -12 -6 -25 -10 -28 -11 -11 -8 -54 3 -54 6
0 10 -4 10 -10 0 -5 -9 -10 -19 -10 -20 0 -22 -14 -7 -38 5 -9 1 -15 -13 -19
-11 -3 -18 -9 -15 -14 3 -5 0 -9 -6 -9 -8 0 -9 -10 -5 -30 5 -25 4 -29 -9 -24
-9 3 -16 1 -16 -5 0 -6 7 -11 15 -11 8 0 15 -5 15 -11 0 -5 -4 -7 -10 -4 -6 4
-10 -5 -10 -21 0 -15 -3 -25 -6 -21 -6 6 -85 -78 -123 -131 -13 -18 -32 -66
-42 -105 -23 -90 -23 -95 -1 -66 18 21 62 37 62 21 0 -4 -15 -18 -33 -31 -17
-13 -45 -45 -61 -70 -25 -40 -30 -58 -34 -134 -4 -80 -7 -89 -27 -97 -63 -24
-38 -254 43 -397 21 -37 41 -75 44 -85 5 -12 25 -18 75 -23 101 -9 215 -33
264 -54 56 -25 212 -68 264 -74 47 -6 144 -26 310 -66 66 -16 120 -29 121 -28
0 1 -7 112 -17 247 -36 485 -60 778 -76 938 -18 182 -15 199 39 232 25 15 51
20 109 20 l76 0 1 43 c1 48 23 121 77 252 108 261 108 262 101 312 -13 100 26
-1 78 -197 33 -127 42 -265 23 -348 -12 -47 -13 -64 -4 -67 25 -7 1250 -16
1349 -9 l103 6 0 87 c-1 153 1 147 -49 160 -41 10 -49 8 -119 -24 -81 -37
-106 -42 -125 -23 -15 15 -16 48 -1 48 6 0 8 9 4 20 -4 13 -2 20 7 20 7 0 21
12 31 28 73 113 87 139 87 164 0 25 -2 27 -20 18 -10 -5 -39 -12 -62 -14 -41
-4 -44 -3 -43 20 1 13 11 35 23 49 12 13 24 36 28 50 3 14 10 25 15 25 5 0 9
6 9 14 0 47 -89 37 -142 -15 l-34 -35 -12 121 c-7 66 -12 143 -12 170 l1 50
17 -38 c9 -20 21 -37 27 -37 5 0 11 -15 12 -32 3 -38 22 -88 33 -88 10 0 17
52 20 149 1 47 -2 71 -9 67 -14 -9 -18 39 -8 104 8 49 6 85 -8 180 -6 37 -50
202 -80 300 -36 118 -41 157 -21 179 10 11 15 29 12 43 -9 50 35 69 75 32 18
-16 19 -16 19 4 0 12 9 31 19 41 11 11 27 31 36 44 16 25 15 26 -32 62 -56 43
-50 47 -120 -88 -25 -48 -49 -87 -54 -87 -5 0 -9 26 -9 57 0 31 -11 129 -24
217 -27 178 -39 317 -29 342 4 11 16 -13 34 -66 41 -120 140 -295 172 -305
114 -32 285 -92 293 -102 14 -17 25 -17 18 0 -5 15 74 93 83 83 4 -3 -1 -14
-10 -24 -22 -24 -21 -31 3 -25 11 3 20 9 20 14 0 5 53 62 119 128 106 107 124
130 166 216 50 103 88 253 102 405 7 70 7 72 14 35 11 -60 0 -305 -16 -335
-20 -39 -29 -176 -15 -250 12 -70 38 -159 51 -175 12 -17 31 -390 49 -1015 6
-190 15 -406 20 -480 6 -74 11 -151 13 -170 1 -24 -2 -34 -10 -33 -7 2 -13 -1
-13 -6 0 -12 -56 -29 -97 -29 -17 -1 -40 -5 -50 -9 -10 -5 -36 -11 -58 -12
-22 -1 -44 -7 -49 -12 -14 -13 -50 -11 -64 3 -7 7 -12 30 -12 53 0 29 -3 36
-10 25 -5 -8 -10 -81 -10 -161 l0 -147 223 -6 c122 -3 474 -10 782 -14 358 -6
569 -13 586 -20 14 -5 38 -25 53 -43 22 -26 26 -37 19 -58 -11 -37 -5 -239 11
-366 2 -16 7 -124 10 -240 4 -115 9 -239 12 -275 7 -90 21 -181 23 -147 1 32
-21 30 246 17 105 -5 462 -16 795 -25 609 -15 958 -28 1235 -45 146 -9 872
-39 876 -36 0 1 2 20 5 43 4 33 0 49 -16 71 -14 19 -21 42 -20 68 1 56 1 73
-6 127 -4 30 -2 53 5 60 8 8 -5 27 -44 68 -39 41 -55 65 -55 85 0 20 -18 46
-70 100 -38 39 -70 78 -70 85 0 8 11 1 23 -16 32 -43 124 -133 150 -146 80
-42 137 -89 107 -89 -15 0 -12 -47 3 -53 9 -4 9 -6 -1 -6 -7 -1 -10 -6 -7 -12
5 -7 13 -5 25 6 16 15 18 15 24 0 3 -9 4 -21 0 -26 -3 -5 0 -9 5 -9 6 0 11 14
11 30 0 31 0 31 29 15 40 -20 45 -30 51 -100 4 -44 9 -60 20 -60 26 -1 42 -16
37 -36 -3 -10 -1 -22 4 -25 5 -3 9 3 9 14 0 10 11 29 25 42 14 13 25 18 25 12
0 -7 5 -12 10 -12 6 0 10 7 10 15 0 15 9 19 45 16 46 -4 120 -46 109 -62 -2
-4 5 -5 16 -2 24 6 24 5 2 -45 -14 -30 -22 -38 -32 -32 -12 7 -12 10 3 16 9 3
14 10 11 16 -3 5 -19 -5 -35 -22 l-29 -30 -10 25 c-11 30 -20 33 -13 5 4 -14
0 -20 -11 -20 -9 0 -16 5 -16 11 0 5 -4 7 -10 4 -6 -3 -7 1 -4 9 8 21 -10 20
-30 0 -9 -8 -16 -12 -17 -7 0 4 -7 -5 -14 -22 -9 -19 -14 -24 -15 -12 0 9 -5
17 -10 17 -6 0 -10 -8 -8 -17 2 -12 -3 -18 -17 -18 -11 0 -24 -10 -31 -23 -11
-22 -11 -22 -46 16 -19 20 -33 44 -31 52 3 8 -7 2 -21 -13 -18 -20 -26 -23
-26 -13 0 21 -16 20 -24 0 -4 -9 -5 -18 -4 -19 2 0 22 -16 44 -33 23 -18 45
-32 50 -32 16 0 42 -33 37 -46 -3 -8 5 -24 18 -36 l24 -20 -23 6 c-15 5 -24 3
-28 -8 -4 -10 -15 -14 -34 -11 -21 2 -30 -2 -39 -21 -6 -13 -15 -24 -20 -24
-6 0 1 -16 14 -36 14 -20 25 -40 25 -43 0 -4 14 -15 30 -25 22 -12 55 -18 121
-20 65 -1 93 -6 99 -16 5 -8 7 -17 4 -21 -2 -4 11 -17 30 -28 34 -21 96 -36
191 -44 76 -7 248 -36 313 -52 95 -24 302 -45 444 -45 73 0 223 -7 333 -15
110 -8 264 -14 341 -13 136 3 141 4 132 22 -12 23 -28 76 -23 76 2 0 16 -11
30 -25 15 -13 48 -31 73 -39 47 -15 233 -33 285 -27 15 1 34 -4 42 -13 13 -13
18 -13 44 0 17 8 33 25 37 36 3 12 7 121 7 242 0 222 -18 417 -46 503 -12 38
-13 38 -70 41 -54 3 -57 4 -57 29 l0 26 79 -6 c73 -6 79 -5 74 12 -7 26 47 37
65 13 11 -15 9 -18 -15 -23 l-28 -6 31 -8 c29 -6 32 -11 42 -68 6 -34 17 -109
23 -167 6 -58 21 -170 35 -250 31 -185 31 -247 2 -305 -17 -33 -27 -43 -40
-39 -15 5 -18 -1 -18 -38 0 -24 -6 -54 -13 -67 -11 -23 -17 -25 -112 -27 -168
-4 -263 10 -336 47 -69 36 -114 40 -179 15 -19 -8 -64 -18 -100 -24 -159 -25
-367 -65 -505 -97 -137 -31 -145 -34 -87 -32 35 1 66 5 68 8 2 4 13 5 24 2 11
-3 26 -1 33 5 7 6 24 8 37 5 16 -4 21 -3 16 5 -10 16 7 15 23 0 10 -11 12 -10
9 1 -2 10 15 18 57 27 66 15 87 12 79 -9 -3 -10 4 -16 20 -19 14 -3 26 -1 26
4 0 10 50 0 64 -13 5 -5 3 -15 -5 -25 -13 -16 -11 -17 21 -10 87 17 110 18
110 7 0 -7 11 -9 27 -7 15 3 38 3 52 -1 23 -6 23 -7 5 -13 -10 -4 -38 -6 -61
-5 -24 2 -43 -1 -43 -6 0 -5 20 -9 45 -9 26 0 45 -5 45 -11 0 -7 -11 -8 -30
-4 -16 3 -37 2 -47 -4 -16 -9 -14 -11 12 -12 17 -1 38 -1 47 0 9 1 18 -6 21
-16 3 -12 5 -8 6 10 0 15 6 27 12 27 5 0 7 4 4 10 -3 5 3 10 14 10 12 0 21 6
21 14 0 20 79 40 112 27 14 -5 29 -7 32 -4 9 9 35 -30 28 -41 -3 -5 1 -7 9 -4
52 21 51 21 47 2 -2 -11 -13 -20 -26 -22 -37 -5 -25 -18 13 -14 26 3 35 9 35
23 0 10 7 19 15 19 8 0 15 -4 15 -10 0 -5 4 -10 10 -10 5 0 7 14 3 33 -5 26
-3 30 8 20 19 -18 29 -16 29 6 0 15 6 18 41 15 28 -3 50 2 68 15 20 14 42 17
96 16 39 -1 80 -7 90 -13 45 -24 61 -28 152 -36 40 -3 79 -9 88 -12 8 -3 15
-2 15 3 0 4 18 8 40 8 31 0 39 -3 35 -14 -4 -11 0 -10 14 3 19 17 59 15 71 -5
3 -4 23 -3 45 2 50 12 50 13 105 10 35 -1 42 -4 30 -12 -12 -9 -11 -9 5 -3 29
12 132 9 393 -11 34 -3 62 -1 62 3 0 15 104 1 117 -16 10 -12 15 -13 28 -2 12
10 19 10 37 -2 13 -9 40 -17 60 -20 32 -3 35 -2 25 11 -7 8 -7 13 -2 10 38
-19 67 -28 113 -36 43 -8 55 -7 59 4 8 20 29 16 50 -10 18 -22 48 -25 67 -6
16 15 36 10 37 -8 0 -11 7 -3 17 18 10 20 23 34 30 31 9 -3 10 -7 2 -17 -7 -8
-7 -15 -1 -19 5 -4 12 -2 16 4 3 5 15 10 26 10 10 0 19 5 19 11 0 6 9 8 22 4
17 -6 20 -4 14 11 -4 10 -1 21 6 26 20 12 34 10 20 -4 -15 -15 -16 -42 -2 -33
6 4 8 10 5 15 -3 5 10 9 30 8 19 -1 35 -5 35 -9 0 -5 7 -6 16 -2 12 5 13 7 2
14 -10 6 -10 11 0 21 9 9 12 9 12 0 0 -7 10 -12 23 -12 l22 0 -24 -19 -24 -18
27 -5 c18 -4 29 -1 33 8 2 7 18 12 34 12 l29 -1 -22 -19 -21 -18 24 -1 c13 -1
27 -1 32 0 12 2 8 -17 -5 -23 -7 -4 -2 -4 12 -1 14 2 33 5 43 5 10 0 15 5 12
10 -4 6 -14 9 -22 8 -9 -2 -18 3 -20 10 -6 16 46 5 65 -15 7 -7 18 -13 23 -13
20 0 183 -136 224 -188 25 -32 49 -61 53 -67 26 -32 22 -75 -6 -75 -13 0 -12
3 4 14 17 14 15 15 -26 12 -62 -5 -113 -25 -106 -43 8 -19 -29 -31 -86 -27
-35 2 -48 -1 -52 -13 -6 -14 -8 -14 -21 3 -13 17 -14 17 -15 2 0 -9 -3 -25 -6
-35 -5 -15 -4 -16 5 -3 10 13 12 13 21 0 5 -8 6 -18 2 -22 -4 -4 -64 -12 -132
-18 -69 -6 -126 -13 -129 -16 -2 -2 -10 1 -17 7 -9 7 -19 7 -32 0 -14 -8 -38
-5 -89 9 -78 21 -183 18 -183 -6 0 -7 -9 -18 -19 -24 -17 -9 -20 -6 -23 21 -3
31 -3 31 -25 13 -17 -15 -21 -26 -16 -48 l6 -29 76 6 c59 5 79 3 92 -9 11 -10
23 -12 39 -6 13 5 42 5 64 1 27 -5 43 -3 48 4 4 7 11 7 23 -3 12 -10 21 -10
38 -2 14 8 57 10 122 7 55 -3 127 -5 160 -5 44 -1 55 -3 40 -10 -11 -5 -31
-10 -45 -11 -14 -1 9 -6 50 -10 41 -4 93 -12 116 -17 23 -5 64 -6 93 -2 l52 7
-6 -34 c-3 -24 -1 -33 9 -33 9 0 12 8 8 25 -3 20 0 25 17 25 26 0 26 -10 3
-52 -10 -18 -17 -38 -15 -44 9 -28 -95 -140 -167 -180 -34 -19 -80 -51 -110
-77 -8 -8 -22 -17 -30 -20 -8 -4 -28 -16 -45 -27 -29 -18 -50 -29 -140 -71
-22 -10 -101 -39 -175 -64 -74 -26 -166 -57 -205 -70 -97 -33 -250 -73 -455
-119 -63 -14 -153 -35 -200 -46 -187 -44 -258 -59 -330 -69 -41 -6 -109 -17
-150 -25 -332 -61 -571 -96 -820 -121 -85 -9 -204 -23 -265 -31 -169 -24 -249
-33 -390 -44 -71 -5 -141 -12 -155 -15 -14 -3 -63 -7 -110 -10 -47 -3 -128
-10 -180 -15 -150 -16 -539 -48 -725 -60 -93 -5 -215 -14 -270 -20 -55 -5
-134 -12 -175 -14 -41 -2 -239 -14 -440 -25 -337 -19 -651 -32 -1165 -46 -110
-3 -267 -8 -350 -10 -213 -6 -1300 -6 -1501 0 -93 3 -333 10 -534 15 -201 6
-399 12 -440 15 -41 2 -127 7 -190 10 -129 6 -307 19 -545 41 -88 8 -248 21
-355 29 -107 7 -244 18 -305 24 -60 6 -150 13 -200 16 -182 11 -472 35 -545
45 -41 5 -151 17 -245 25 -93 9 -195 20 -225 26 -30 5 -100 14 -155 19 -91 10
-186 21 -305 35 -25 3 -103 12 -175 21 -71 8 -166 19 -210 24 -44 5 -168 21
-275 34 -107 14 -198 26 -202 26 -5 0 -8 -270 -8 -600 l0 -600 529 0 529 0 -5
23 c-3 12 -21 56 -40 97 l-34 74 31 41 c16 22 50 74 75 116 l46 77 152 5 c84
3 167 6 184 6 56 1 195 100 302 214 24 26 50 47 58 47 18 0 17 -44 -3 -143
-12 -59 -15 -111 -11 -191 5 -114 20 -169 82 -310 l25 -56 729 0 729 0 -10 42
c-13 60 -6 76 65 156 130 145 171 228 185 374 7 79 8 83 33 86 54 6 58 -10 69
-299 5 -145 10 -285 10 -311 l0 -48 98 0 97 0 -6 117 c-14 242 -19 488 -11
501 7 11 54 11 260 1 l250 -13 27 -80 c15 -45 41 -102 57 -128 29 -46 29 -49
19 -117 -6 -38 -11 -117 -11 -175 l0 -106 885 0 885 0 0 163 c0 202 10 399 21
412 5 7 144 11 381 13 205 1 384 4 398 7 14 2 129 7 255 10 127 3 248 8 270
11 22 2 46 0 54 -5 16 -10 34 -108 76 -401 14 -96 28 -183 31 -192 5 -17 85
-18 1352 -18 1330 0 1347 0 1380 20 18 11 42 20 55 20 12 0 67 6 122 15 55 8
161 19 235 25 74 5 150 12 168 14 37 6 37 7 17 -41 -8 -19 -15 -39 -15 -44 0
-5 599 -9 1390 -9 l1390 0 -2 5538 -3 5537 -80 0 c-44 0 -150 -2 -235 -4 -201
-5 -284 6 -390 51 -106 45 -194 75 -244 84 -45 8 -56 -3 -56 -58 0 -27 -8 -47
-29 -70 l-29 -33 -384 -6 c-210 -4 -693 -10 -1073 -14 -598 -6 -692 -10 -707
-23 -10 -8 -18 -21 -18 -28 0 -21 -80 -93 -117 -105 -42 -14 -95 -5 -117 20
-9 10 -23 40 -31 68 -12 40 -20 52 -40 55 -13 3 -224 2 -467 -1 -760 -10 -757
-10 -778 17 -10 12 -28 22 -39 22 -17 0 -21 -7 -23 -37 -2 -21 -3 -344 -3
-718 -1 -374 -2 -873 -3 -1110 -1 -236 0 -464 3 -505 8 -130 8 -316 1 -329 -6
-9 -13 -9 -29 2 -73 47 -250 78 -328 57 -73 -19 -92 -45 -174 -238 -10 -24
-24 -46 -32 -50 -14 -9 -35 -250 -32 -384 2 -102 -14 -117 -156 -138 -124 -18
-219 -42 -239 -59 -24 -22 -42 -58 -50 -106 -8 -44 -72 -209 -93 -240 -7 -11
-13 -31 -13 -45 0 -14 -9 -57 -20 -95 -11 -38 -20 -73 -20 -76 0 -21 87 -28
416 -33 409 -6 431 -3 418 49 -12 44 -8 134 7 151 11 13 9 14 -14 9 -24 -6
-29 -3 -41 27 -21 48 -56 244 -56 307 0 30 5 69 12 87 9 27 9 37 -5 58 -26 39
-24 199 3 249 11 20 20 52 20 71 0 44 22 66 66 66 40 0 76 -21 119 -69 16 -19
36 -40 43 -47 17 -18 15 -21 -13 -28 -14 -4 -50 -16 -80 -27 -46 -17 -55 -24
-55 -45 0 -14 7 -27 18 -31 9 -4 25 -17 34 -29 24 -29 47 -22 80 27 15 21 34
39 41 39 31 0 77 -84 77 -137 -1 -42 -32 -93 -76 -123 -47 -31 -50 -54 -9 -58
34 -4 55 -18 55 -37 0 -14 -40 -32 -85 -39 -16 -2 -32 -5 -34 -5 -7 -1 30 -34
61 -54 15 -9 36 -17 46 -17 29 0 54 -23 46 -43 -7 -18 -39 -23 -49 -7 -17 28
-89 -8 -142 -69 -28 -32 -28 -37 -3 -44 36 -9 53 -94 28 -140 -7 -12 -24 -34
-36 -49 l-24 -26 22 -7 c12 -4 96 -12 187 -19 141 -10 167 -14 179 -30 14 -19
13 -177 -2 -406 -4 -52 -8 -129 -9 -172 -2 -42 -6 -82 -10 -89 -5 -7 -4 -10 2
-6 7 5 12 -9 14 -37 2 -24 1 -42 -3 -40 -4 2 -9 0 -13 -5 -3 -6 -13 -7 -21 -4
-13 5 -13 8 -2 15 9 7 6 8 -12 4 -15 -3 -31 1 -41 10 -16 15 -17 14 -12 -5 4
-15 1 -21 -11 -21 -9 0 -16 -7 -16 -15 0 -9 6 -12 15 -9 8 4 15 2 15 -4 0 -5
-18 -12 -40 -16 -22 -3 -40 -10 -40 -15 0 -15 -84 -50 -92 -38 -9 15 -78 -20
-78 -41 -1 -10 -6 -5 -14 13 -14 32 -32 20 -21 -15 5 -15 2 -20 -14 -20 -11 0
-23 5 -26 10 -3 6 -12 10 -18 10 -7 0 -6 -4 3 -10 11 -7 11 -10 2 -10 -7 0
-10 -4 -7 -10 4 -6 -8 -11 -27 -12 -18 -1 -44 -2 -58 -3 -14 -1 -42 -5 -63 -9
-24 -6 -42 -4 -51 3 -11 9 -15 9 -18 -1 -4 -10 -10 -10 -30 -1 -18 8 -46 9
-94 3 -98 -13 -168 -12 -182 2 -10 10 -14 10 -20 1 -5 -8 -42 -15 -93 -19 -46
-3 -88 -9 -93 -14 -14 -14 8 -56 40 -76 22 -15 61 -19 223 -25 568 -22 970
-40 1046 -47 62 -6 264 4 503 26 89 8 84 11 97 -53 6 -35 -10 -81 -55 -151
-16 -26 -27 -50 -25 -54 3 -5 -2 -11 -11 -14 -8 -3 -13 -10 -10 -15 3 -5 -1
-14 -10 -21 -8 -7 -13 -19 -10 -27 4 -9 1 -11 -6 -7 -8 5 -9 2 -5 -10 4 -10 3
-15 -3 -11 -5 3 -21 -16 -36 -42 -15 -27 -55 -95 -89 -153 -34 -58 -97 -176
-140 -263 -49 -98 -88 -165 -103 -175 -43 -29 -101 -90 -94 -98 4 -4 0 -3 -8
1 -8 5 -95 7 -195 5 -188 -4 -260 -4 -310 -3 -16 0 -228 -2 -471 -6 -495 -7
-722 -1 -1129 29 -308 23 -482 46 -622 84 -105 28 -125 41 -112 73 7 18 3 23
-23 32 -17 6 -49 10 -72 10 -23 -1 -34 -3 -25 -6 18 -4 30 -35 20 -51 -6 -9
-40 -18 -114 -29 -41 -6 -43 -4 -173 140 -74 81 -262 159 -462 191 -45 7 -84
15 -86 17 -2 2 -2 52 1 112 l6 107 51 0 c28 0 112 -4 186 -10 212 -14 544 -23
586 -16 28 6 55 25 106 73 69 67 78 83 56 100 -8 6 -156 13 -358 18 -347 7
-375 8 -507 20 -93 8 -113 2 -113 -35 0 -16 -3 -31 -7 -33 -5 -3 -7 35 -5 84
3 79 5 88 20 81 26 -13 90 -14 113 -1 30 15 79 60 79 71 0 6 -47 8 -110 6 -68
-2 -110 1 -111 7 -1 6 -5 53 -9 105 -4 52 -15 117 -23 145 -10 35 -11 61 -5
89 12 52 -7 363 -28 463 -9 43 -34 129 -55 193 -22 63 -44 140 -48 170 -5 30
-13 66 -19 80 -24 59 -52 160 -62 225 -23 150 -58 225 -105 225 -13 0 -26 4
-29 9 -9 14 -115 39 -266 62 -79 12 -155 25 -167 30 -13 5 -62 13 -109 19 -48
6 -102 17 -120 25 -31 13 -33 17 -28 47 4 24 3 29 -5 18 -8 -12 -11 -11 -17 5
-4 11 -16 27 -25 36 -14 12 -16 18 -6 28 8 8 8 14 2 19 -12 9 -15 52 -3 52 5
0 1 12 -9 26 -9 15 -18 34 -19 43 -1 9 -4 23 -6 31 -3 8 -3 12 -1 8 8 -14 25
-8 20 7 -4 8 -2 17 3 20 5 3 11 -3 14 -13 6 -18 11 -20 56 -24 18 -2 24 -11
21 -31 -3 -16 27 -36 45 -31 13 3 27 -7 44 -30 18 -25 28 -31 38 -24 8 8 12 7
12 -3 0 -12 2 -12 9 0 5 8 7 20 4 28 -3 7 1 13 10 13 8 0 17 7 21 15 3 8 0 15
-7 15 -16 0 -47 36 -47 55 0 8 -5 15 -11 15 -8 0 -8 4 -1 13 8 10 6 16 -9 26
-20 12 -20 13 -2 26 17 14 17 14 -4 10 -25 -4 -51 19 -33 30 8 5 8 10 0 20 -9
10 -6 19 11 36 l22 22 -32 -5 c-21 -3 -31 0 -31 8 0 19 19 27 34 15 8 -7 20
-10 27 -9 8 2 13 -2 12 -8 -3 -14 34 -6 44 9 4 6 1 7 -7 2 -9 -5 -11 -4 -6 3
4 7 14 12 22 12 8 0 14 5 14 10 0 6 -6 10 -14 10 -8 0 -17 8 -20 17 -6 15 -8
15 -16 3 -8 -13 -10 -13 -10 1 0 8 6 21 13 28 10 10 9 11 -5 6 -10 -4 -18 -3
-18 3 0 5 7 13 16 16 14 5 14 9 3 22 -13 16 -6 25 26 37 6 3 6 8 2 13 -4 5
-11 3 -15 -3 -5 -8 -13 -7 -27 4 -18 14 -18 15 -2 9 26 -8 41 2 27 19 -14 17
-4 36 14 29 8 -3 16 -2 19 3 3 4 -10 9 -28 10 -29 3 -32 0 -27 -19 3 -14 1
-19 -6 -14 -18 11 -14 46 4 46 10 0 14 6 10 15 -3 8 -1 15 4 15 6 0 10 -4 10
-9 0 -8 37 -24 51 -22 4 0 5 -7 3 -17 -2 -9 0 -24 6 -32 8 -12 11 -13 19 -1 7
11 9 11 14 0 4 -10 6 -9 6 4 1 9 6 17 12 17 5 0 7 5 4 10 -4 6 1 22 10 36 20
32 14 54 -14 47 -15 -4 -21 -1 -21 11 0 10 5 14 10 11 16 -10 12 12 -5 29 -8
8 -15 19 -15 25 0 6 -6 11 -12 11 -7 0 -5 5 5 11 14 8 16 14 7 24 -7 8 -9 19
-5 25 3 5 2 10 -3 10 -6 0 -8 10 -4 22 4 17 2 20 -11 15 -13 -5 -17 -1 -17 14
0 13 4 18 13 13 6 -4 3 2 -7 14 -11 12 -14 22 -8 22 16 0 15 21 -2 56 -8 16
-16 36 -18 44 -3 15 -23 40 -32 40 -11 0 -59 51 -53 57 4 3 7 1 7 -5 0 -7 5
-12 11 -12 6 0 8 16 6 39 -3 33 -1 38 12 33 13 -5 14 -3 4 9 -7 8 -10 25 -6
37 4 18 8 20 20 11 8 -7 10 -15 5 -18 -6 -4 -6 -16 -1 -30 7 -18 15 -22 34
-19 17 4 25 1 25 -8 0 -8 8 -14 18 -14 28 0 52 -32 52 -69 0 -19 6 -34 15 -37
8 -4 15 -12 15 -19 0 -8 5 -17 12 -21 6 -4 9 -3 5 2 -3 5 1 20 9 34 13 24 18
17 15 -21 -1 -9 5 -19 14 -23 9 -3 13 -10 10 -16 -3 -5 -1 -10 5 -10 7 0 10 7
7 15 -4 8 -2 17 3 20 4 3 10 0 12 -7 2 -6 12 -9 21 -5 13 5 16 13 11 32 -4 18
-2 27 10 31 13 5 13 8 2 19 -7 8 -12 25 -11 38 2 15 -2 24 -12 24 -12 0 -14
-8 -9 -35 4 -26 2 -32 -6 -24 -6 6 -10 23 -10 39 0 15 -6 35 -13 43 -7 8 -16
29 -20 45 -12 45 -12 45 -15 48 -1 1 -3 14 -4 30 -3 30 10 37 17 10 3 -11 5
-8 6 9 1 21 -3 26 -15 21 -14 -5 -14 -3 -3 15 11 18 14 19 24 5 9 -13 14 -13
20 -3 5 8 2 16 -9 22 -9 5 -16 16 -16 23 0 15 -9 18 -40 16 -10 0 -11 1 -2 5
6 3 12 10 12 15 0 6 -6 7 -12 3 -8 -5 -7 0 2 11 13 16 15 16 18 2 2 -10 10
-17 18 -17 8 0 12 5 9 10 -3 6 -2 10 3 10 6 0 13 -7 16 -16 8 -22 8 -26 -4
-19 -5 3 -10 1 -10 -5 0 -7 6 -10 13 -7 7 3 21 -1 31 -9 11 -7 24 -11 29 -7 7
4 8 -1 4 -13 -7 -18 -7 -18 8 0 8 11 15 14 15 8 0 -7 7 -12 15 -12 8 0 15 -4
15 -10 0 -5 5 -10 11 -10 6 0 9 6 6 14 -8 20 4 28 20 15 8 -7 6 5 -7 32 -11
24 -20 52 -20 62 0 9 -4 17 -10 17 -5 0 -7 6 -4 13 2 7 -5 22 -16 32 -20 18
-20 20 -3 27 13 6 10 7 -10 4 -18 -2 -31 2 -34 10 -3 8 -9 11 -14 8 -5 -3 -9
-1 -9 5 0 5 -9 13 -20 16 -11 3 -20 13 -20 21 0 8 -7 14 -15 14 -12 0 -12 3 2
18 10 10 20 14 21 10 2 -4 14 -8 27 -8 17 0 24 7 28 28 6 31 -9 54 -32 50 -20
-4 -65 33 -51 42 7 4 5 12 -6 21 -12 9 -15 10 -10 2 4 -7 4 -18 1 -23 -9 -15
-37 9 -31 27 3 7 -1 13 -10 13 -8 0 -14 7 -12 16 2 9 -6 21 -17 28 -34 20 -54
49 -44 67 6 13 4 18 -11 22 -32 8 -25 44 10 52 17 4 27 11 24 17 -3 5 -14 8
-24 5 -20 -5 -65 47 -55 63 3 5 1 11 -5 15 -5 3 -10 24 -10 46 0 22 -4 38 -9
34 -5 -3 -13 0 -17 6 -4 8 -3 9 4 5 7 -4 12 -1 12 8 0 8 -4 18 -10 21 -6 4 -4
17 5 36 9 16 13 33 11 38 -3 5 3 16 14 26 14 13 17 22 9 31 -6 8 -7 14 0 18
13 8 3 37 -17 54 -9 7 -11 12 -4 12 6 0 9 6 6 14 -3 8 2 16 13 19 17 5 17 5 0
6 -14 1 -17 6 -12 22 6 18 5 20 -14 10 -18 -10 -21 -9 -21 7 0 10 -5 23 -12
30 -8 8 -8 15 -1 24 8 9 11 258 12 789 0 490 4 785 10 802 15 39 45 49 160 53
277 9 2034 4 2046 -6 10 -8 30 -7 73 5 49 12 105 14 313 10 140 -2 481 -4 759
-4 278 0 514 0 525 0 11 0 156 0 321 0 l302 0 20 -26 c25 -31 29 -31 53 -1 11
14 34 29 52 34 18 6 243 13 512 17 264 3 638 10 830 15 193 6 508 12 700 15
193 3 407 7 476 10 107 4 138 2 205 -16 43 -12 106 -23 139 -26 33 -2 111 -13
173 -25 l114 -22 16 21 c43 54 46 54 545 54 407 -1 466 -3 493 -17 28 -15 33
-15 65 0 28 13 76 16 259 18 l225 3 0 1904 0 1903 -150 -1 c-82 -1 -278 -6
-435 -11 -358 -12 -889 -28 -1170 -35 -118 -3 -375 -10 -570 -15 -195 -6 -454
-13 -575 -15 -121 -2 -303 -7 -405 -10 -102 -3 -349 -9 -550 -15 -201 -6 -430
-12 -510 -15 -80 -2 -275 -7 -435 -10 -159 -3 -381 -8 -491 -10 -214 -4 -266
-14 -278 -53 -4 -11 -15 -22 -26 -25 -18 -5 -19 -11 -14 -65 7 -60 7 -60 -26
-77 -26 -13 -40 -15 -71 -7 -22 6 -49 8 -60 5 -21 -6 -69 31 -69 53 0 7 21 15
53 19 58 8 110 35 133 70 19 29 10 50 -29 68 -27 13 -84 14 -387 6 -629 -14
-810 -13 -853 6 -37 15 -41 15 -75 -3 -33 -17 -70 -20 -322 -26 -378 -9 -534
-9 -597 2 -38 7 -60 5 -85 -5 -27 -12 -188 -15 -943 -20 -576 -3 -938 -1 -987
5 -104 13 -134 37 -262 207 -138 184 -179 237 -295 379 -53 66 -132 167 -176
225 -45 58 -134 170 -198 249 -121 148 -138 183 -101 213 18 15 461 30 716 24
135 -3 149 -2 173 16 40 33 77 38 284 44 108 3 304 10 436 15 380 15 870 33
995 35 63 2 189 7 280 13 91 6 305 12 475 13 326 3 355 7 355 48 0 39 -18 42
-225 31 -109 -6 -343 -13 -519 -15 -177 -3 -341 -10 -366 -15 -41 -8 -378 -20
-1040 -36 -140 -4 -258 -8 -261 -10 -4 -2 -108 -4 -231 -4 -156 -1 -233 3
-251 11 -24 11 -31 9 -65 -18 -21 -17 -54 -35 -73 -40 -19 -4 -195 -7 -391 -5
l-356 2 -29 28 c-42 41 -95 102 -222 260 -167 206 -168 207 -177 259 -4 27 -7
230 -5 453 3 362 1 407 -13 419 -18 15 -19 13 -35 -59 -13 -55 -13 -334 -1
-525 12 -193 5 -215 -60 -192 -27 10 -43 29 -184 219 -93 125 -108 155 -122
231 -7 42 -5 41 -37 26 -22 -10 -29 -7 -63 28 -22 21 -75 85 -118 143 -44 58
-103 134 -132 170 -69 84 -167 207 -224 280 -87 111 -165 206 -243 298 l-80
92 -543 0 -544 0 0 -1502z m10646 -2066 c14 -29 10 -48 -21 -86 -30 -37 -79
-40 -107 -7 -25 32 -23 67 7 97 34 34 103 31 121 -4z m-3009 -99 c-8 -57 8
-73 75 -73 31 0 67 5 80 10 23 10 254 30 274 23 5 -2 16 -20 23 -39 8 -22 23
-39 39 -46 18 -7 110 -11 262 -10 248 1 300 -5 325 -41 30 -43 14 -171 -28
-205 -8 -7 -48 -16 -89 -19 -57 -4 -89 -14 -143 -42 l-70 -35 -175 -7 c-96 -4
-265 -11 -376 -15 l-201 -7 -59 27 -59 28 -191 -7 -190 -7 -31 26 c-40 34
-111 66 -146 66 -50 0 -94 29 -117 74 -11 23 -20 52 -20 63 0 30 45 80 83 92
18 6 152 12 300 14 242 4 269 6 288 23 14 13 18 25 14 42 -8 32 12 90 33 95 9
3 36 5 60 6 l44 1 -5 -37z m-6723 -40 c28 -21 76 -60 106 -88 30 -28 85 -72
122 -98 37 -26 109 -82 160 -125 51 -43 145 -118 208 -166 262 -202 431 -351
453 -400 13 -27 16 -317 21 -2126 5 -1926 7 -2178 21 -2200 7 -11 -40 -40 -63
-40 -10 0 -24 -6 -30 -12 -10 -10 -14 -10 -21 0 -6 10 -10 10 -21 -2 -7 -9
-16 -14 -20 -11 -12 7 -43 -33 -35 -45 5 -9 1 -10 -14 -5 -15 4 -21 2 -21 -8
0 -9 -6 -18 -12 -21 -9 -4 -8 -5 2 -5 37 3 44 -1 32 -13 -7 -7 -12 -18 -12
-25 0 -8 7 -6 20 7 11 11 20 25 20 30 0 6 7 10 15 10 13 0 14 4 4 21 -6 13 -7
19 -1 15 6 -3 13 0 16 6 3 7 3 3 0 -10 -5 -19 -2 -23 18 -21 30 3 88 -11 88
-22 0 -4 -5 -11 -10 -14 -6 -3 -10 -2 -10 4 0 14 -33 6 -38 -9 -3 -9 1 -11 12
-7 10 4 15 3 11 -3 -3 -6 -16 -8 -28 -5 -18 5 -22 1 -23 -20 -1 -14 3 -25 10
-25 7 0 7 -3 1 -8 -6 -4 -16 -18 -22 -32 -8 -18 -12 -20 -12 -8 -1 15 -5 15
-36 -5 -19 -12 -32 -28 -30 -34 2 -7 -1 -13 -8 -13 -7 0 -21 -16 -31 -35 -11
-21 -27 -35 -38 -35 -10 0 -18 -6 -18 -14 0 -8 -15 -20 -34 -27 -19 -7 -34
-15 -34 -18 1 -3 -4 -18 -10 -33 -14 -33 -96 -60 -159 -51 -31 4 -43 2 -43 -7
0 -10 -3 -10 -15 0 -12 10 -15 10 -15 -4 0 -9 -5 -16 -11 -16 -5 0 -8 4 -5 9
3 4 -13 14 -36 20 -33 10 -42 10 -49 0 -4 -7 -5 -17 -3 -21 3 -4 -2 -8 -11 -8
-9 0 -37 -16 -63 -36 -42 -32 -47 -33 -53 -17 -9 21 -13 6 -18 -54 -1 -19 -6
-21 -42 -17 -37 3 -40 2 -34 -17 5 -13 3 -19 -3 -15 -5 3 -13 -1 -16 -10 -4
-11 -14 -14 -29 -10 -25 6 -41 -2 -45 -24 -1 -10 2 -9 13 4 8 11 15 14 15 8 0
-7 7 -12 15 -12 8 0 15 -2 15 -4 0 -2 3 -11 6 -20 3 -9 1 -16 -6 -16 -6 0 -8
4 -5 10 3 6 -1 7 -10 3 -13 -4 -14 -8 -4 -14 10 -6 7 -13 -12 -28 -13 -11 -29
-20 -35 -21 -16 0 -25 26 -17 46 4 12 2 15 -8 12 -8 -3 -14 -13 -14 -24 0 -10
-4 -24 -8 -31 -5 -7 0 -20 12 -32 16 -16 17 -21 5 -25 -8 -3 -14 -10 -14 -15
0 -7 9 -6 25 1 29 13 43 5 26 -16 -10 -12 -9 -14 8 -9 11 3 19 13 18 24 -1 10
-3 16 -6 14 -5 -6 -41 25 -41 34 0 4 9 7 21 8 14 1 19 -3 15 -13 -7 -18 15
-18 40 1 16 12 17 16 5 24 -16 11 -7 42 11 39 8 -2 13 6 12 19 -1 13 3 20 7
17 5 -3 9 -11 9 -19 0 -14 16 -15 38 -1 11 6 10 13 -3 32 -8 13 -14 24 -13 25
26 7 38 5 38 -7 0 -8 10 -14 25 -14 17 0 25 -6 25 -17 0 -9 3 -13 7 -9 5 4 10
39 13 77 4 55 2 69 -10 73 -8 2 -2 4 13 5 16 0 26 -3 23 -8 -3 -4 10 -1 29 7
19 9 35 20 35 25 0 5 7 3 16 -4 25 -21 46 -20 39 1 -8 24 21 34 47 15 19 -13
23 -12 35 3 13 16 13 16 11 -3 -1 -11 1 -26 5 -32 6 -9 3 -11 -8 -7 -8 4 -21
1 -29 -5 -7 -6 -21 -9 -30 -5 -10 4 -16 1 -16 -9 0 -11 -8 -15 -30 -12 -16 2
-30 -1 -30 -6 0 -6 -4 -8 -9 -5 -5 4 -12 0 -14 -6 -4 -10 -8 -10 -15 1 -7 9
-12 10 -16 2 -4 -6 -2 -11 3 -11 6 0 11 -5 11 -11 0 -6 -7 -8 -15 -5 -16 6
-19 1 -29 -44 -3 -14 -12 -34 -19 -45 -13 -16 -17 -17 -31 -6 -13 11 -16 11
-16 0 0 -11 -2 -11 -10 1 -6 9 -10 10 -10 3 0 -6 5 -15 10 -18 6 -4 8 -10 6
-14 -3 -4 -1 -13 4 -20 10 -17 33 -4 26 15 -5 12 -2 12 16 3 17 -9 23 -9 26 0
2 6 8 11 13 11 6 0 8 -4 5 -9 -4 -5 0 -12 6 -14 7 -3 4 -6 -7 -7 -29 -1 -55
-24 -55 -48 0 -11 -5 -24 -12 -28 -8 -5 -9 0 -6 14 8 31 -7 36 -20 7 -8 -17
-17 -22 -31 -18 -17 4 -22 -3 -36 -49 -19 -66 -46 -98 -83 -98 -21 0 -24 -2
-12 -10 12 -8 11 -10 -7 -10 -13 0 -23 -5 -23 -11 0 -6 7 -8 15 -5 11 4 15 0
13 -12 -2 -11 5 -18 20 -20 12 -2 28 -12 35 -23 6 -10 15 -19 20 -19 4 0 5 5
2 10 -3 6 -2 10 2 10 5 0 8 14 7 30 -2 32 2 35 25 21 7 -5 10 -15 7 -22 -4 -8
-1 -6 8 5 11 13 12 24 6 37 -9 17 1 33 22 34 17 0 19 15 2 16 -14 0 -12 3 8
11 31 11 37 28 11 28 -13 0 -14 3 -5 12 9 9 15 8 25 -7 10 -12 16 -14 21 -7 4
7 12 12 18 12 7 0 6 -5 -2 -15 -13 -15 -7 -45 9 -45 9 0 8 50 -2 67 -4 5 5 15
18 21 14 7 25 16 25 21 0 6 7 8 15 5 8 -4 15 -10 15 -16 0 -5 -5 -6 -10 -3 -5
3 -10 1 -10 -5 0 -6 -4 -9 -9 -6 -13 8 -20 -16 -11 -34 12 -23 -7 -60 -29 -60
-11 0 -23 -5 -27 -12 -4 -6 -3 -8 4 -4 6 3 13 2 16 -3 7 -11 -20 -35 -32 -27
-6 3 -9 -2 -8 -12 0 -10 -6 -16 -16 -16 -10 1 -18 -4 -18 -12 0 -8 -4 -14 -9
-14 -4 0 -12 -15 -18 -32 -7 -24 -14 -32 -28 -30 -16 3 -17 2 -2 -13 10 -9 13
-22 9 -33 -6 -15 -7 -14 -10 5 -3 21 -4 21 -21 5 -10 -9 -16 -23 -13 -29 5
-17 -15 -17 -22 0 -5 9 -7 9 -12 -1 -3 -7 -13 -19 -21 -28 -21 -21 -7 -31 15
-11 23 21 43 22 36 2 -4 -8 -10 -13 -14 -10 -4 3 -13 -2 -20 -10 -10 -12 -16
-13 -45 0 l-34 14 10 -25 c9 -26 37 -58 51 -60 4 -1 11 -2 14 -3 14 -3 -24
-27 -45 -28 -13 -1 -31 -9 -40 -18 -14 -13 -14 -15 3 -15 10 0 16 -6 14 -12
-6 -18 -49 -22 -60 -6 -7 9 -8 8 -4 -5 3 -10 6 -22 6 -27 0 -4 8 -6 19 -3 11
3 21 -2 24 -11 4 -10 1 -16 -9 -16 -9 0 -12 5 -8 11 4 8 0 9 -15 4 -13 -4 -21
-2 -21 5 0 7 -8 9 -20 5 -18 -6 -19 -4 -10 19 7 21 6 26 -5 26 -18 0 -17 -15
-16 204 1 133 4 182 13 188 10 6 10 8 0 8 -11 0 -12 10 -6 43 4 23 6 61 5 85
0 23 3 42 9 42 5 0 10 5 10 11 0 6 -7 9 -15 5 -10 -4 -14 1 -14 17 0 12 -3
706 -7 1542 -11 1907 -11 1846 0 2237 8 290 7 331 -7 366 -15 36 -16 141 -15
1004 0 622 4 967 11 976 17 22 58 13 111 -25z m9968 0 c8 -10 18 -26 21 -35 5
-13 11 -617 8 -766 -1 -21 -10 -42 -26 -57 -23 -24 -30 -25 -145 -25 -106 0
-122 2 -140 20 -11 11 -22 30 -25 42 -3 13 -2 192 2 399 9 435 5 419 97 420
28 0 69 4 91 8 67 14 101 12 117 -6z m-8333 -1251 c130 -97 256 -197 281 -221
27 -26 63 -49 91 -57 25 -8 76 -28 114 -45 113 -51 265 -85 372 -84 87 1 94 0
117 -24 26 -27 60 -171 70 -296 3 -33 8 -631 11 -1330 4 -698 8 -1318 11
-1377 4 -107 4 -108 -18 -105 -15 1 -22 -3 -20 -12 2 -8 -3 -11 -11 -8 -7 2
-21 -1 -31 -9 -11 -7 -22 -11 -27 -9 -4 3 -10 1 -14 -5 -3 -5 -11 -10 -17 -10
-7 0 -6 5 2 14 10 13 7 14 -17 10 -15 -3 -32 -10 -38 -15 -7 -7 -3 -8 10 -4
14 5 16 4 7 -3 -8 -5 -25 -8 -40 -6 -15 1 -31 -4 -39 -14 -7 -9 -13 -12 -13
-7 0 6 -5 3 -10 -5 -8 -12 -10 -12 -10 -1 0 11 -3 11 -15 1 -8 -7 -15 -19 -15
-26 0 -8 -4 -14 -10 -14 -5 0 -10 -7 -10 -15 0 -8 -8 -16 -17 -16 -10 -1 -25
-2 -33 -3 -20 -1 -39 16 -33 31 3 7 0 13 -6 13 -6 0 -11 5 -11 11 0 6 7 9 15
5 9 -3 15 0 15 8 0 23 -26 66 -35 58 -5 -4 -6 0 -2 10 5 13 -2 16 -44 16 -27
1 -49 -3 -49 -9 0 -5 -9 -9 -20 -9 -14 0 -20 -7 -20 -21 0 -15 -5 -19 -15 -15
-11 4 -15 -2 -15 -21 0 -25 -1 -26 -13 -8 -10 13 -16 15 -21 6 -4 -7 -16 -9
-27 -6 -11 4 -26 1 -34 -5 -8 -7 -15 -9 -15 -4 0 5 -7 0 -16 -11 -10 -13 -17
-16 -22 -9 -5 9 -10 8 -19 -1 -10 -11 -9 -15 7 -20 11 -3 25 -3 32 1 9 5 8 2
-1 -9 -8 -10 -12 -20 -9 -22 3 -3 10 6 18 19 7 13 21 27 31 29 22 6 23 3 9
-24 -8 -15 -7 -19 5 -19 8 0 15 -7 15 -15 0 -8 6 -15 13 -15 9 0 8 -3 -2 -9
-16 -10 -6 -31 15 -31 9 0 12 5 8 12 -4 7 -3 8 5 4 6 -4 9 -12 6 -17 -4 -5 -1
-9 4 -9 6 0 11 -5 11 -11 0 -5 -5 -7 -11 -4 -6 4 -9 1 -8 -6 4 -18 -29 -79
-42 -79 -6 0 -8 -4 -5 -9 3 -5 -1 -12 -10 -15 -8 -3 -12 -10 -9 -16 3 -5 2
-10 -4 -10 -5 0 -12 -14 -16 -30 -10 -47 -66 -69 -170 -68 -57 0 -93 -5 -115
-16 -30 -14 -32 -14 -26 2 4 10 -1 8 -12 -6 l-19 -24 -28 30 c-16 17 -33 28
-39 25 -5 -4 -7 0 -4 9 8 19 -30 17 -43 -3 -7 -12 -9 -12 -9 0 0 11 -4 9 -14
-4 -8 -11 -13 -22 -11 -26 2 -3 -2 -6 -10 -6 -8 0 -15 6 -15 14 0 7 -5 13 -11
13 -5 0 -7 -6 -4 -12 4 -7 0 -5 -8 5 -16 19 -37 23 -37 6 0 -6 -7 -8 -16 -5
-9 4 -22 2 -29 -4 -16 -13 -30 4 -19 21 4 8 0 8 -15 0 -17 -10 -21 -9 -21 4 0
8 -7 15 -15 15 -8 0 -15 7 -15 15 0 10 10 15 31 15 16 0 28 4 24 9 -3 6 -14 8
-25 6 -22 -4 -27 14 -8 33 9 9 9 12 0 12 -6 0 -9 7 -6 15 4 8 1 15 -5 15 -6 0
-12 -3 -12 -7 -1 -5 -3 -21 -5 -37 -2 -16 -6 -36 -9 -45 -5 -13 -7 -14 -15 -1
-6 8 -10 10 -10 5 0 -14 -38 -17 -45 -4 -4 5 -7 23 -7 39 -1 16 -4 27 -8 25
-5 -3 -11 3 -15 13 -7 17 -7 817 0 1132 2 96 7 726 10 1400 3 674 10 1285 15
1358 8 131 19 168 46 158 7 -2 20 4 29 14 23 25 53 29 95 13 19 -8 140 -93
269 -191z m3514 -559 c-7 -2 -19 -2 -25 0 -7 3 -2 5 12 5 14 0 19 -2 13 -5z
m-318 -93 c-3 -5 -13 -10 -21 -10 -8 0 -14 5 -14 10 0 6 9 10 21 10 11 0 17
-4 14 -10z m233 -14 c2 -9 -7 -25 -20 -36 l-23 -19 32 -13 c17 -6 34 -21 37
-31 4 -15 10 -18 29 -13 18 4 27 1 31 -11 6 -15 9 -15 16 -3 7 11 16 12 44 3
20 -6 36 -7 36 -2 0 4 6 6 14 3 8 -3 12 -14 9 -27 -4 -20 -3 -20 7 -4 9 14 15
16 26 6 18 -15 18 -29 -1 -29 -8 0 -15 -5 -15 -10 0 -6 12 -10 28 -11 15 0 60
-2 100 -5 l72 -6 0 39 c0 53 10 64 47 57 29 -6 31 -8 26 -41 -3 -18 -2 -33 3
-32 28 5 35 -1 23 -22 -11 -22 0 -38 28 -39 20 0 44 -31 38 -50 -8 -24 18 -45
34 -27 14 18 94 22 89 5 -3 -7 -15 -15 -29 -19 -19 -6 -15 -7 17 -8 23 -1 47
-7 53 -14 15 -19 2 -29 -16 -12 -17 17 -41 19 -63 5 -13 -8 -13 -10 2 -10 9 0
29 -12 43 -26 21 -21 29 -23 40 -14 8 7 26 10 40 8 14 -3 25 -1 25 4 0 5 5 6
10 3 6 -4 8 -15 5 -24 -7 -22 3 -51 18 -51 6 0 21 -10 34 -22 20 -19 33 -22
98 -20 62 2 75 0 75 -13 0 -11 11 -15 40 -15 25 0 40 -5 41 -12 0 -7 4 -4 8 7
8 19 8 19 20 -2 7 -14 17 -20 26 -17 11 5 15 -2 16 -27 2 -31 2 -31 6 -6 5 30
15 34 33 12 7 -8 28 -18 49 -21 20 -4 42 -16 50 -26 7 -11 19 -17 27 -14 21 8
43 -4 37 -20 -3 -8 1 -14 10 -14 9 0 22 -6 30 -14 8 -8 32 -16 53 -19 l39 -4
-42 -1 c-47 -2 -60 -22 -14 -22 50 0 94 -12 79 -21 -7 -5 34 -9 100 -9 68 0
112 4 112 10 0 6 5 10 11 10 5 0 7 -4 4 -10 -3 -5 3 -10 15 -10 12 0 19 4 16
9 -9 14 42 29 122 36 61 5 72 4 72 -9 0 -13 12 -16 58 -17 41 0 51 -3 37 -9
-17 -7 -16 -9 10 -10 17 -1 90 -1 163 0 89 1 132 -2 132 -9 0 -14 83 -14 97 0
15 15 36 -25 30 -57 -3 -18 0 -24 14 -24 11 0 19 5 19 11 0 7 18 9 53 6 123
-13 132 -15 132 -40 0 -7 12 -13 28 -15 15 -2 27 -9 27 -18 0 -8 9 -14 20 -14
13 0 20 -7 20 -20 0 -17 7 -20 48 -20 36 0 51 -5 62 -20 10 -13 21 -18 34 -14
14 5 18 3 13 -9 -4 -10 0 -17 11 -20 9 -2 -14 -7 -53 -11 -323 -33 -302 -32
-1080 -40 -640 -7 -1068 -17 -1305 -30 -398 -22 -2009 -27 -2120 -6 -36 6 -78
13 -95 14 -16 2 -49 11 -73 21 -33 13 -41 21 -36 34 7 17 13 64 17 151 2 31 6
60 9 65 13 23 17 64 8 70 -8 5 -7 12 1 22 14 17 20 53 8 53 -13 0 -8 79 6 90
8 7 11 29 8 65 -3 34 0 55 6 55 5 0 9 12 7 28 -4 33 6 65 19 60 6 -2 11 7 13
20 2 12 10 22 18 22 9 0 14 11 14 30 0 24 4 30 18 28 12 -2 18 5 20 25 3 26
15 32 50 28 10 -2 11 2 3 18 -16 29 -14 31 24 31 21 0 35 -5 35 -12 0 -7 5 -5
11 5 5 9 8 21 4 26 -3 5 -1 12 5 16 5 3 10 -3 10 -14 0 -12 7 -21 15 -21 18 0
19 12 3 28 -9 9 -5 12 17 14 17 0 38 1 48 0 9 -1 17 3 17 8 0 6 -4 10 -10 10
-22 0 -8 18 18 24 15 3 37 8 50 12 18 5 21 3 16 -10 -4 -12 0 -16 15 -16 12 0
21 6 21 13 0 7 10 18 22 26 22 14 22 13 5 -12 -14 -21 -14 -26 -2 -31 10 -3
12 0 8 11 -5 13 -1 15 21 11 23 -5 29 -1 41 26 7 17 14 24 14 16 1 -13 2 -13
11 0 6 10 10 11 10 3 0 -8 14 -13 38 -13 34 0 96 -29 65 -30 -18 0 -16 -20 2
-20 8 0 15 5 15 10 0 6 23 10 50 10 38 0 50 4 50 15 0 8 7 15 16 15 8 0 12 5
9 10 -3 6 -2 10 4 10 6 0 14 -12 17 -26 l7 -27 13 29 c10 23 13 25 14 9 1 -19
1 -19 14 -2 7 9 25 17 39 17 13 0 27 7 31 15 3 8 11 15 17 15 7 0 18 8 25 18
13 16 13 16 14 0 0 -22 9 -23 37 -3 26 18 123 10 123 -11 0 -8 11 -16 24 -20
14 -3 27 -12 30 -20 3 -8 15 -14 26 -14 11 0 20 -5 20 -11 0 -7 16 -9 48 -5
122 16 166 23 159 24 -4 1 3 13 17 27 17 17 36 25 61 25 23 0 41 7 52 20 20
23 36 21 41 -4z m29 2 c-3 -8 -6 -5 -6 6 -1 11 2 17 5 13 3 -3 4 -12 1 -19z
m340 -20 c-7 -5 -1 -8 16 -8 35 0 34 -7 -8 -54 -19 -22 -35 -34 -35 -28 0 7
-9 12 -20 12 -15 0 -20 7 -20 29 0 16 6 32 13 34 9 4 8 8 -3 16 -11 8 -4 10
27 8 24 -1 37 -5 30 -9z m-340 -30 c-3 -8 -6 -5 -6 6 -1 11 2 17 5 13 3 -3 4
-12 1 -19z m-994 -15 c-7 -2 -19 -2 -25 0 -7 3 -2 5 12 5 14 0 19 -2 13 -5z
m1304 -109 c-3 -3 -12 -4 -19 -1 -8 3 -5 6 6 6 11 1 17 -2 13 -5z m508 -194
c3 -5 -1 -10 -9 -10 -9 0 -16 5 -16 10 0 6 4 10 9 10 6 0 13 -4 16 -10z m4568
-227 c-7 -2 -19 -2 -25 0 -7 3 -2 5 12 5 14 0 19 -2 13 -5z m167 -33 c0 -5 9
-10 20 -10 13 0 20 -7 20 -20 0 -18 7 -20 59 -20 52 0 61 -3 66 -21 7 -21 11
-22 112 -16 91 5 103 4 93 -9 -7 -7 -9 -14 -4 -15 20 -2 91 -10 114 -12 15 -1
25 -8 25 -17 0 -11 -9 -14 -32 -12 -18 2 -33 -1 -33 -6 0 -13 79 -20 84 -7 2
5 5 2 5 -7 1 -14 10 -18 37 -18 21 0 33 -4 29 -10 -3 -6 -17 -7 -31 -4 -15 4
-24 2 -24 -6 0 -8 12 -11 38 -8 42 6 92 -8 92 -25 0 -9 3 -8 8 0 6 9 15 6 35
-13 15 -14 27 -29 27 -34 0 -5 9 -11 20 -15 15 -5 50 -54 50 -71 0 -12 -112
-32 -189 -33 -52 -1 -97 -4 -101 -6 -4 -2 -52 -7 -106 -10 -54 -4 -157 -10
-229 -15 -214 -14 -1006 0 -1110 20 l-40 7 32 13 c18 6 31 16 28 20 -3 4 12
11 32 15 l38 7 -25 13 c-27 14 -15 25 25 23 47 -3 75 3 75 15 0 14 61 37 100
37 23 0 106 53 128 83 7 9 21 17 30 17 9 0 26 7 36 15 11 8 22 11 25 6 10 -16
46 -17 43 -2 -2 8 4 29 14 46 14 26 21 30 48 27 17 -2 47 1 66 6 35 9 35 10
10 19 -17 7 -1 9 58 5 52 -3 82 -1 82 6 0 13 56 36 69 27 6 -3 11 1 11 9 0 9
9 16 20 16 11 0 20 -4 20 -10z m-120 -21 c0 -5 -28 -9 -62 -9 -52 1 -60 3 -47
13 18 14 109 10 109 -4z m-177 -6 c-13 -2 -33 -2 -45 0 -13 2 -3 4 22 4 25 0
35 -2 23 -4z m-2208 -373 c8 -13 -15 -13 -35 0 -12 8 -11 10 7 10 12 0 25 -4
28 -10z m-5475 -1886 c0 -2 -7 -4 -15 -4 -8 0 -15 4 -15 10 0 5 7 7 15 4 8 -4
15 -8 15 -10z m9244 -3 c23 -10 60 -24 84 -31 23 -7 48 -20 54 -27 14 -18 16
-104 4 -194 l-8 -66 176 -122 c233 -162 341 -260 360 -327 4 -13 -1 -31 -15
-49 -20 -25 -27 -27 -74 -23 -31 3 -64 13 -82 26 -16 11 -36 22 -44 24 -8 2
-20 11 -27 20 -7 9 -19 15 -27 12 -10 -4 -15 0 -15 11 0 11 -5 15 -16 11 -8
-3 -22 1 -31 10 -9 8 -22 13 -29 10 -8 -3 -14 -2 -14 3 0 4 -15 12 -32 17 -23
7 -33 16 -33 29 0 15 -7 20 -25 18 -14 -1 -19 1 -12 3 20 9 14 26 -7 19 -11
-3 -26 1 -35 10 -9 9 -16 14 -16 11 0 -3 -12 7 -27 21 -16 14 -27 29 -26 33 1
5 -4 14 -12 20 -11 9 -15 9 -15 1 0 -6 6 -11 13 -11 8 0 7 -4 -3 -10 -22 -14
-29 -12 -23 8 2 10 -3 25 -12 32 -14 12 -18 12 -27 -1 -8 -12 -9 -11 -5 2 6
20 -48 73 -65 63 -7 -5 -9 -2 -5 8 3 9 0 26 -7 40 -7 13 -11 29 -8 36 2 6 0
12 -5 12 -6 0 -10 6 -11 13 0 6 -3 28 -6 47 -3 21 -2 30 3 21 10 -16 24 1 16
21 -3 7 -38 29 -77 48 -165 80 -203 141 -118 185 74 38 219 47 284 16z m-9380
-124 c4 -19 3 -26 -4 -22 -9 5 -14 -7 -11 -27 0 -4 -6 -5 -14 -2 -8 4 -13 10
-10 14 3 5 0 12 -6 15 -7 5 -3 15 12 31 26 27 24 28 33 -9z m79 13 c6 -23 -8
-36 -20 -18 -13 21 -12 38 2 38 7 0 15 -9 18 -20z m-393 -5 c0 -20 -12 -25
-26 -10 -18 18 -18 21 6 21 11 0 20 -5 20 -11z m-956 -301 c3 -8 2 -12 -4 -9
-6 3 -10 10 -10 16 0 14 7 11 14 -7z m2340 -76 c-9 -14 -23 2 -17 18 4 12 8
13 14 3 4 -7 5 -17 3 -21z m-14 -39 c0 -6 -4 -7 -10 -4 -5 3 -10 11 -10 16 0
6 5 7 10 4 6 -3 10 -11 10 -16z m8360 7 c0 -3 -4 -8 -10 -11 -5 -3 -10 -1 -10
4 0 6 5 11 10 11 6 0 10 -2 10 -4z m-8353 -368 c-3 -8 -6 -5 -6 6 -1 11 2 17
5 13 3 -3 4 -12 1 -19z m4743 12 c0 -5 -5 -10 -11 -10 -5 0 -7 5 -4 10 3 6 8
10 11 10 2 0 4 -4 4 -10z m1334 -119 c32 1 62 -3 69 -10 6 -6 27 -11 47 -11
19 0 46 -7 58 -16 13 -9 37 -18 55 -21 50 -8 61 -22 34 -44 -12 -10 -16 -18
-9 -19 6 0 12 -7 12 -16 0 -8 -4 -13 -9 -9 -5 3 -13 -5 -17 -17 -3 -12 -17
-33 -30 -47 -31 -34 -40 -61 -23 -72 11 -7 9 -9 -6 -10 l-20 0 20 -9 c11 -5
17 -9 13 -9 -19 -2 -24 -4 -41 -12 -10 -6 -15 -14 -12 -19 3 -5 1 -11 -5 -15
-19 -12 -11 -26 9 -15 14 7 20 7 23 -1 3 -8 10 -6 21 5 9 10 17 13 17 7 0 -6
-9 -20 -20 -31 -24 -24 -25 -34 -5 -54 8 -8 15 -19 15 -25 0 -6 6 -11 13 -11
9 0 9 -2 -1 -9 -18 -11 -17 -20 5 -37 13 -10 14 -13 4 -14 -9 0 -7 -6 8 -19
l22 -19 -33 -11 c-18 -6 -49 -10 -68 -9 -71 2 -180 -5 -180 -13 0 -4 -9 -11
-21 -14 -12 -4 -18 -13 -15 -20 3 -8 0 -15 -5 -17 -6 -2 -11 -20 -12 -40 -1
-26 -5 -34 -15 -31 -11 5 -33 43 -36 64 -1 4 -14 20 -30 35 -16 16 -39 45 -52
66 -19 30 -22 42 -14 70 14 47 11 70 -4 29 -9 -27 -18 -35 -41 -37 -16 -2 -32
2 -36 8 -8 12 -77 12 -447 4 -236 -5 -297 -11 -309 -29 -14 -22 -14 -190 -1
-232 20 -62 37 -74 119 -78 40 -2 91 0 113 4 25 4 46 3 53 -3 7 -6 19 -8 28
-5 8 4 17 2 20 -3 3 -5 25 -7 50 -6 26 2 46 -1 48 -8 3 -7 9 -7 21 3 14 12 18
12 30 -5 12 -16 19 -17 54 -8 23 6 46 8 53 4 14 -9 21 -103 23 -297 0 -79 4
-143 7 -143 4 0 3 -17 0 -37 -4 -21 -6 -51 -6 -68 2 -32 -1 -32 87 -19 43 6
49 4 78 -24 16 -17 30 -39 30 -50 0 -11 7 -25 15 -32 10 -8 14 -23 11 -39 -3
-14 -8 -62 -11 -106 -3 -44 -12 -105 -20 -135 -14 -54 -21 -149 -31 -404 -5
-140 -5 -139 -71 -172 -18 -9 -33 -20 -33 -25 0 -5 -7 -9 -15 -9 -8 0 -15 -4
-15 -10 0 -5 -8 -7 -17 -4 -14 4 -15 3 -5 -4 11 -7 6 -21 -22 -65 -20 -31 -36
-58 -36 -61 0 -3 -15 -38 -34 -78 -19 -40 -46 -109 -60 -153 -28 -90 -37 -133
-45 -220 -2 -19 -3 -18 -11 3 -5 12 -16 22 -25 22 -8 0 -15 7 -15 15 0 8 -7
15 -15 15 -8 0 -16 8 -16 18 -1 16 -2 16 -6 0 -6 -22 -19 -23 -27 -3 -3 8 -12
15 -20 15 -10 0 -17 15 -21 48 -4 26 -11 62 -15 80 -5 19 -6 40 -3 48 3 8 -1
14 -9 14 -18 0 -70 81 -63 99 3 7 1 39 -4 70 -6 31 -13 97 -15 146 -3 50 -6
91 -6 92 0 1 -35 19 -77 40 -43 21 -79 41 -81 46 -2 4 -11 7 -19 7 -8 0 -36
11 -62 24 -25 14 -86 37 -136 52 -147 45 -181 70 -176 130 1 18 -3 35 -8 39
-6 3 -9 11 -5 16 3 5 0 24 -6 43 -6 18 -11 59 -11 90 -1 47 3 62 22 83 13 13
22 25 21 26 -2 1 -1 20 4 41 10 54 -25 231 -57 289 -9 17 -6 202 6 352 3 33 8
93 10 134 3 41 8 78 11 82 2 5 5 159 5 344 -1 337 3 377 36 398 7 4 13 15 13
24 0 12 3 13 14 4 8 -7 17 -8 20 -3 3 5 17 7 31 4 15 -2 37 1 51 8 20 11 28
11 48 0 14 -7 34 -10 46 -7 11 3 45 2 76 -2 32 -5 57 -4 61 2 3 5 24 7 46 4
31 -4 44 -2 54 11 7 9 13 13 12 7 -3 -25 3 -32 31 -31 16 1 30 4 30 8 0 4 25
4 55 1 37 -4 60 -2 70 7 13 11 14 10 9 -4 -7 -17 15 -23 32 -7 5 5 19 5 34 -1
33 -13 82 -17 220 -18 41 0 91 -2 110 -5 19 -4 48 -6 64 -5 15 0 35 -5 44 -12
13 -11 15 -10 9 5 -4 11 -1 17 9 17 9 0 12 -5 8 -11 -5 -9 3 -10 30 -5 33 6
36 5 37 -16 0 -18 3 -15 14 13 18 49 44 101 63 122 14 15 17 16 32 2 11 -10
35 -15 74 -14z m-1254 -11 c0 -5 -8 -10 -17 -10 -15 0 -16 2 -3 10 19 12 20
12 20 0z m130 -4 c0 -2 -7 -7 -16 -10 -8 -3 -12 -2 -9 4 6 10 25 14 25 6z
m-8286 -32 c5 -14 4 -15 -9 -4 -17 14 -19 20 -6 20 5 0 12 -7 15 -16z m8181
-4 c8 -13 -5 -13 -25 0 -13 8 -13 10 2 10 9 0 20 -4 23 -10z m70 0 c3 -6 -1
-7 -9 -4 -18 7 -21 14 -7 14 6 0 13 -4 16 -10z m-8338 -52 c-3 -8 -6 -5 -6 6
-1 11 2 17 5 13 3 -3 4 -12 1 -19z m103 -8 c0 -5 -5 -10 -11 -10 -5 0 -7 5 -4
10 3 6 8 10 11 10 2 0 4 -4 4 -10z m81 -6 c2 2 4 -7 4 -20 0 -13 -3 -24 -7
-24 -5 0 -8 9 -8 21 0 11 -4 17 -10 14 -5 -3 -10 1 -10 11 0 13 3 14 13 5 8
-6 16 -9 18 -7z m3478 -47 c-10 -9 -59 -17 -59 -9 0 4 14 9 32 10 18 2 30 1
27 -1z m-3539 -131 c0 -3 -4 -8 -10 -11 -5 -3 -10 -1 -10 4 0 6 5 11 10 11 6
0 10 -2 10 -4z m3600 -46 c0 -5 -2 -10 -4 -10 -3 0 -8 5 -11 10 -3 6 -1 10 4
10 6 0 11 -4 11 -10z m6005 -30 c3 -5 1 -10 -4 -10 -6 0 -11 5 -11 10 0 6 2
10 4 10 3 0 8 -4 11 -10z m-9732 -25 c-3 -9 -8 -14 -10 -11 -3 3 -2 9 2 15 9
16 15 13 8 -4z m3567 -24 c0 -6 -4 -13 -10 -16 -5 -3 -10 1 -10 9 0 9 5 16 10
16 6 0 10 -4 10 -9z m6125 -1 c3 -5 1 -10 -4 -10 -6 0 -11 5 -11 10 0 6 2 10
4 10 3 0 8 -4 11 -10z m-9705 -15 c0 -8 -4 -15 -10 -15 -5 0 -7 7 -4 15 4 8 8
15 10 15 2 0 4 -7 4 -15z m3789 -11 c17 -38 6 -41 -12 -5 -9 17 -12 31 -8 31
4 0 13 -12 20 -26z m-1488 -9 c5 4 7 0 4 -7 -7 -17 45 -21 64 -5 12 9 13 9 7
0 -5 -9 -1 -13 11 -14 10 -1 25 -2 33 -3 8 0 18 4 22 9 4 6 8 -1 8 -14 0 -13
-3 -21 -7 -18 -3 4 -31 -18 -62 -48 -31 -30 -78 -70 -106 -90 -27 -19 -45 -35
-40 -35 6 0 2 -7 -9 -15 -10 -8 -16 -20 -13 -28 3 -8 -3 -20 -13 -27 -14 -10
-17 -22 -13 -49 6 -47 23 -81 40 -81 7 0 13 -4 13 -9 0 -4 20 -14 45 -21 25
-7 45 -17 45 -21 0 -5 7 -9 15 -9 8 0 16 -4 16 -10 3 -19 5 -25 17 -47 10 -19
9 -23 -8 -28 -11 -3 -20 -13 -20 -21 0 -8 -9 -14 -21 -14 -13 0 -23 -8 -26
-20 -4 -15 -11 -19 -25 -14 -13 4 -18 2 -14 -4 3 -5 -4 -12 -17 -16 -12 -3
-23 -1 -25 4 -2 6 -12 6 -25 -1 -16 -9 -27 -8 -54 6 -18 10 -30 22 -27 27 3 5
-3 12 -15 15 -20 5 -25 14 -22 40 1 8 -5 10 -14 7 -11 -5 -14 -2 -9 10 3 9 1
16 -6 16 -6 0 -9 4 -5 9 3 5 0 15 -7 23 -17 17 -14 139 4 153 7 5 15 19 16 30
2 11 10 24 18 28 8 5 11 13 8 19 -4 6 0 14 7 19 8 5 10 9 4 9 -26 1 -35 16
-26 47 6 22 6 33 -2 36 -6 2 -3 11 9 23 11 11 26 18 32 16 16 -5 16 55 0 61
-10 4 -10 7 0 18 10 11 12 10 12 -4 0 -11 5 -14 16 -10 8 3 13 12 10 19 -4 10
2 12 23 8 23 -5 30 -2 36 15 3 12 10 19 14 17 4 -3 21 -2 37 3 16 4 31 4 32
-1 2 -4 8 -6 13 -3z m1249 5 c0 -5 -5 -10 -11 -10 -5 0 -7 5 -4 10 3 6 8 10
11 10 2 0 4 -4 4 -10z m-1200 -10 c0 -5 -5 -10 -11 -10 -5 0 -7 5 -4 10 3 6 8
10 11 10 2 0 4 -4 4 -10z m-2390 -10 c12 -8 11 -10 -7 -10 -13 0 -23 5 -23 10
0 13 11 13 30 0z m3662 -4 c5 3 4 -3 -4 -15 -16 -26 -38 -23 -49 6 -7 20 -6
21 17 12 14 -5 30 -6 36 -3z m153 -6 c3 -5 1 -10 -4 -10 -6 0 -11 5 -11 10 0
6 2 10 4 10 3 0 8 -4 11 -10z m-490 -59 c3 -5 1 -12 -5 -16 -5 -3 -10 1 -10 9
0 18 6 21 15 7z m301 -19 c-17 -16 -18 -16 -5 5 7 12 15 20 18 17 3 -2 -3 -12
-13 -22z m-256 -17 c7 -8 18 -15 25 -15 17 0 35 -24 27 -35 -4 -6 -15 -11 -24
-13 -13 -2 -18 4 -18 21 0 14 -8 31 -17 38 -16 13 -17 12 -5 -3 10 -12 11 -22
3 -35 -10 -17 -10 -17 -11 0 0 9 -4 17 -8 17 -4 0 -8 9 -8 20 0 24 18 26 36 5z
m5960 -5 c0 -5 0 -13 -1 -16 -1 -3 12 -19 27 -35 32 -34 27 -37 -18 -10 -17
11 -35 18 -40 15 -5 -3 -22 -2 -39 1 -44 10 -35 38 16 46 22 3 43 7 48 8 4 0
7 -3 7 -9z m70 -100 c0 -5 -2 -10 -4 -10 -3 0 -8 5 -11 10 -3 6 -1 10 4 10 6
0 11 -4 11 -10z m-6007 -43 c-2 -4 -11 -3 -19 4 -12 10 -12 14 -2 20 13 9 30
-10 21 -24z m7277 23 c-8 -5 -19 -10 -25 -10 -5 0 -3 5 5 10 8 5 20 10 25 10
6 0 3 -5 -5 -10z m-1259 -50 c22 0 39 -5 39 -11 0 -6 -7 -8 -16 -5 -12 5 -15
2 -10 -9 3 -9 -1 -18 -9 -21 -8 -4 -12 -11 -8 -18 3 -6 -3 -2 -15 8 -12 11
-22 26 -23 35 0 12 -3 11 -9 -4 -7 -18 -8 -18 -15 8 -4 15 -11 27 -15 27 -9 0
-8 -4 15 -103 21 -89 13 -98 -10 -12 -10 36 -22 68 -27 71 -4 3 -8 21 -8 41
l0 35 36 -21 c19 -12 52 -21 75 -21z m16 23 c2 -6 -7 -8 -23 -5 -19 3 -22 7
-12 13 15 10 30 7 35 -8z m-6547 -3 c0 -5 9 -10 20 -10 11 0 20 -4 20 -10 0
-5 6 -10 14 -10 8 0 18 -5 22 -12 4 -7 3 -8 -4 -4 -7 4 -12 3 -12 -2 0 -5 9
-12 20 -15 11 -3 20 -12 20 -21 0 -9 4 -16 9 -16 5 0 19 -21 31 -47 28 -59 55
-95 65 -85 5 4 5 1 1 -6 -4 -7 -2 -20 6 -29 11 -14 11 -16 -1 -9 -9 6 -12 5
-9 -5 3 -8 10 -13 16 -12 7 2 9 -4 5 -14 -4 -11 -8 -13 -11 -5 -3 9 -9 7 -20
-6 -16 -18 -47 -35 -67 -37 -24 -3 -63 -20 -95 -41 -39 -27 -72 -31 -89 -10
-6 7 -14 41 -18 76 -4 46 -12 69 -30 88 -18 20 -23 33 -18 52 3 14 7 33 9 43
1 10 15 32 31 50 23 27 30 45 34 100 1 11 51 8 51 -3z m-2830 -14 c0 -3 -4 -8
-10 -11 -5 -3 -10 -1 -10 4 0 6 5 11 10 11 6 0 10 -2 10 -4z m9637 -12 c13 -4
20 -10 17 -15 -3 -5 3 -9 13 -9 11 -1 5 -6 -15 -15 -30 -13 -34 -13 -52 5 -15
15 -34 20 -76 20 -34 0 -53 4 -49 10 7 11 126 14 162 4z m406 -11 c-7 -2 -19
-2 -25 0 -7 3 -2 5 12 5 14 0 19 -2 13 -5z m-50 -10 c-7 -2 -19 -2 -25 0 -7 3
-2 5 12 5 14 0 19 -2 13 -5z m-422 -24 c19 -16 20 -19 6 -15 -15 5 -17 2 -11
-16 6 -19 3 -18 -21 7 -15 17 -22 22 -15 12 7 -9 10 -20 8 -23 -3 -3 -16 9
-28 25 l-21 31 29 0 c16 0 40 -9 53 -21z m310 5 c-41 -7 -86 -17 -100 -22 -14
-5 -37 -6 -51 -2 -24 6 -9 10 140 33 67 11 76 3 11 -9z m-9789 -19 c3 3 4 -10
4 -29 -1 -19 -6 -39 -10 -43 -5 -4 -6 -2 -2 4 4 7 0 23 -8 35 -20 29 -22 55
-3 39 8 -6 16 -9 19 -6z m9418 -52 c14 -26 30 -51 35 -55 6 -5 5 -8 -2 -8 -7
0 -10 -7 -7 -15 4 -8 11 -12 17 -8 6 4 8 0 5 -9 -4 -8 -2 -21 3 -29 7 -11 9
-10 9 4 0 30 17 10 18 -22 0 -16 8 -41 17 -55 14 -21 21 -24 36 -16 10 6 21
23 25 38 3 15 10 36 15 47 7 15 8 11 4 -16 -2 -20 -7 -44 -11 -53 -5 -14 -3
-17 12 -14 12 2 21 16 27 41 8 34 12 37 41 35 17 -1 37 2 44 6 7 4 12 2 12 -6
0 -10 3 -9 10 2 7 12 12 12 29 -4 21 -19 21 -19 22 0 1 15 3 13 9 -6 4 -14 8
-19 9 -12 1 9 9 11 24 7 15 -4 18 -3 8 3 -10 7 -10 11 -1 17 18 11 24 -2 14
-27 -6 -13 -9 -33 -8 -45 1 -13 -4 -23 -12 -23 -7 0 -16 -5 -20 -12 -4 -7 -3
-8 4 -4 7 4 12 3 12 -2 0 -6 -11 -13 -25 -16 -14 -4 -25 -11 -25 -17 0 -6 -9
-24 -21 -40 -11 -16 -17 -29 -12 -29 4 0 0 -5 -10 -11 -11 -6 -17 -20 -16 -32
3 -26 -20 -67 -38 -67 -9 0 -8 -7 2 -27 12 -23 12 -28 -2 -38 -9 -7 -13 -17
-9 -23 3 -6 -1 -17 -9 -26 -8 -8 -14 -21 -13 -28 2 -7 -3 -12 -10 -10 -8 1
-11 -2 -8 -7 4 -5 -4 -20 -16 -33 -17 -17 -35 -25 -65 -26 -24 0 -43 3 -43 8
0 5 -7 7 -15 4 -8 -4 -15 -1 -15 5 0 6 -7 11 -15 11 -8 0 -14 3 -13 8 2 11
-14 46 -26 55 -7 5 -6 10 4 17 10 6 11 10 3 10 -7 0 -13 5 -13 11 0 6 12 10
28 9 46 -3 69 10 87 49 14 32 15 46 5 101 -9 49 -9 65 1 71 16 10 21 59 6 59
-21 0 -103 160 -150 293 -12 33 8 9 33 -40z m-161 9 c-5 -2 -8 -18 -8 -35 1
-18 3 -24 6 -14 5 18 23 24 23 7 0 -5 5 -10 11 -10 6 0 9 17 8 42 -3 34 0 42
16 44 16 2 20 -3 21 -26 1 -18 -4 -30 -12 -30 -16 0 -13 -46 6 -83 12 -24 11
-32 -4 -64 -12 -26 -14 -39 -6 -41 7 -3 4 -9 -7 -17 -10 -7 -15 -17 -10 -21 4
-4 13 -2 19 4 7 7 15 12 18 12 11 0 30 -48 21 -52 -4 -2 -11 -15 -15 -31 -5
-21 -2 -29 11 -34 27 -10 51 -44 45 -65 -6 -23 -56 -24 -99 -3 -26 13 -38 13
-76 3 -41 -11 -45 -14 -36 -32 7 -15 3 -13 -15 7 -32 35 -34 86 -6 159 34 88
63 227 57 274 l-4 43 22 -17 c13 -9 19 -18 14 -20z m331 28 c0 -5 -7 -7 -15
-4 -8 4 -15 8 -15 10 0 2 7 4 15 4 8 0 15 -4 15 -10z m-710 -20 c0 -5 -5 -10
-11 -10 -5 0 -7 5 -4 10 3 6 8 10 11 10 2 0 4 -4 4 -10z m496 -20 c9 0 12 -4
9 -10 -12 -19 -35 -10 -34 13 0 12 3 16 6 10 2 -7 11 -13 19 -13z m-9546 1 c0
-10 -26 -9 -36 2 -4 4 2 7 14 7 12 0 22 -4 22 -9z m-200 -21 c0 -5 -5 -10 -11
-10 -5 0 -7 5 -4 10 3 6 8 10 11 10 2 0 4 -4 4 -10z m9730 -32 c0 -9 4 -8 11
2 8 12 10 12 7 1 -2 -8 -14 -16 -26 -17 -15 -3 -20 0 -16 11 7 18 24 20 24 3z
m-9685 -18 c-3 -5 -10 -10 -16 -10 -5 0 -9 5 -9 10 0 6 7 10 16 10 8 0 12 -4
9 -10z m-35 -42 c0 -6 -6 -5 -15 2 -8 7 -15 14 -15 16 0 2 7 1 15 -2 8 -4 15
-11 15 -16z m10048 -13 c-3 -3 -9 2 -12 12 -6 14 -5 15 5 6 7 -7 10 -15 7 -18z
m-276 -33 c-4 -10 -1 -13 7 -8 8 5 14 1 18 -12 3 -11 10 -19 17 -16 17 6 50
-32 43 -49 -3 -8 0 -20 6 -26 8 -8 8 -11 0 -11 -6 0 -16 7 -23 15 -10 12 -10
15 0 15 8 0 10 3 6 8 -4 4 -12 7 -17 7 -10 0 -79 75 -79 86 0 3 6 6 14 6 8 0
12 -6 8 -15z m1411 -17 c-3 -9 -8 -14 -10 -11 -3 3 -2 9 2 15 9 16 15 13 8 -4z
m-11173 -44 c0 -6 -4 -13 -10 -16 -5 -3 -10 1 -10 9 0 9 5 16 10 16 6 0 10 -4
10 -9z m2460 -35 c0 -3 -4 -8 -10 -11 -5 -3 -10 -1 -10 4 0 6 5 11 10 11 6 0
10 -2 10 -4z m1300 -26 c0 -5 -5 -10 -11 -10 -5 0 -7 5 -4 10 3 6 8 10 11 10
2 0 4 -4 4 -10z m-219 -52 c11 -21 11 -22 -4 -9 -10 7 -17 17 -17 22 0 15 9
10 21 -13z m254 -8 c3 -5 -1 -10 -9 -10 -9 0 -16 5 -16 10 0 6 4 10 9 10 6 0
13 -4 16 -10z m-2795 -34 c0 -2 -7 -6 -15 -10 -8 -3 -15 -1 -15 4 0 6 7 10 15
10 8 0 15 -2 15 -4z m2538 -8 c-2 -7 2 -12 9 -11 7 2 10 -4 7 -12 -4 -8 -1
-15 6 -15 6 0 8 -4 5 -10 -3 -5 2 -10 12 -10 14 0 15 -2 4 -9 -17 -11 -43 -3
-35 10 3 5 0 9 -6 9 -6 0 -8 5 -5 11 4 5 -1 19 -11 30 -16 17 -16 19 -1 19 10
0 16 -6 15 -12z m7422 -29 c0 -23 -13 -25 -31 -3 -10 13 -10 17 1 24 18 11 30
3 30 -21z m-9986 -28 c-6 -6 -11 1 -18 29 l-7 25 15 -25 c8 -14 12 -27 10 -29z
m-29 -1 c-3 -5 -11 -10 -16 -10 -6 0 -7 5 -4 10 3 6 11 10 16 10 6 0 7 -4 4
-10z m10782 -30 c13 0 14 -2 2 -17 -10 -12 -10 -15 -1 -9 12 7 38 -12 57 -44
5 -10 25 -42 42 -71 18 -30 33 -66 33 -80 0 -80 -44 -210 -160 -469 -119 -267
-161 -377 -273 -710 -41 -124 -87 -281 -102 -350 -14 -69 -39 -179 -55 -245
-38 -160 -94 -449 -120 -615 -11 -74 -25 -160 -30 -190 -29 -168 -111 -914
-116 -1060 -6 -187 -9 -205 -27 -170 -7 13 -19 26 -27 28 -13 5 -13 3 -2 -11
9 -10 11 -27 7 -47 -6 -26 -4 -30 14 -30 17 0 20 -7 23 -52 2 -29 2 -104 0
-165 l-3 -113 -37 0 c-28 0 -33 3 -22 10 10 6 11 10 3 10 -7 0 -27 30 -45 68
-17 37 -36 70 -41 73 -5 4 -25 3 -44 -1 -30 -7 -41 -4 -77 21 -22 17 -50 46
-62 64 -20 33 -88 95 -105 95 -4 0 -11 9 -14 20 -5 16 -12 19 -27 14 -17 -5
-20 -3 -15 10 4 10 1 16 -9 16 -8 0 -20 12 -27 27 -6 15 -27 43 -44 63 -28 29
-33 43 -33 84 0 34 5 53 16 61 13 9 14 16 5 33 -6 12 -14 47 -17 78 -5 46 -3
58 12 69 10 7 23 11 30 8 6 -2 14 8 17 24 6 32 -11 56 -148 209 -109 121 -138
174 -171 301 -34 133 -32 193 16 568 23 176 45 358 50 405 16 149 68 347 104
399 14 20 26 48 26 62 0 13 12 47 27 74 37 69 37 130 1 174 -33 38 -36 82 -14
212 8 46 22 137 31 202 18 125 35 154 35 59 0 -32 7 -83 16 -113 9 -30 17 -60
18 -68 2 -9 35 -22 87 -36 125 -33 219 -85 219 -124 0 -8 12 3 26 24 14 22 49
58 77 80 108 84 549 515 717 700 171 189 221 310 159 389 -23 29 -40 81 -31
91 4 4 8 -3 10 -14 2 -12 10 -21 19 -21z m-11502 -1 c-10 -15 -25 -10 -19 6 4
8 10 12 15 9 5 -3 7 -10 4 -15z m734 -8 c-15 -5 -22 6 -14 19 6 9 10 9 16 -1
5 -8 4 -15 -2 -18z m1039 -7 c7 -14 8 -23 2 -19 -15 9 -32 45 -22 45 5 0 14
-12 20 -26z m7642 7 c0 -4 -6 -16 -14 -27 -14 -18 -15 -17 -14 13 1 22 5 30
14 26 8 -3 14 -8 14 -12z m-6037 -8 c-5 -12 -2 -15 10 -10 11 4 17 1 17 -7 0
-17 -50 -9 -50 8 0 6 -5 3 -11 -8 -9 -14 -13 -15 -19 -5 -10 15 16 38 42 39
12 0 15 -5 11 -17z m-3369 -19 c5 -14 4 -15 -9 -4 -17 14 -19 20 -6 20 5 0 12
-7 15 -16z m776 -34 c0 -12 -8 -12 -35 0 -18 8 -17 9 8 9 15 1 27 -3 27 -9z
m8591 -13 c-10 -9 -11 -8 -5 6 3 10 9 15 12 12 3 -3 0 -11 -7 -18z m-9484 -9
c-3 -8 -6 -5 -6 6 -1 11 2 17 5 13 3 -3 4 -12 1 -19z m3101 -18 c3 -9 -1 -11
-11 -7 -9 3 -19 2 -22 -3 -3 -5 -12 -7 -20 -3 -8 3 -15 0 -15 -6 0 -6 -6 -11
-13 -11 -7 0 -13 9 -13 21 0 17 5 20 28 15 15 -3 28 -2 28 3 0 14 33 6 38 -9z
m-108 0 c0 -13 -28 -25 -38 -16 -3 4 0 11 8 16 20 13 30 12 30 0z m520 -26 c0
-8 -10 -14 -25 -14 -38 0 -34 24 5 27 11 1 20 -4 20 -13z m6014 -29 c3 -8 1
-15 -4 -15 -6 0 -10 7 -10 15 0 8 2 15 4 15 2 0 6 -7 10 -15z m-64 -9 c0 -3
-4 -8 -10 -11 -5 -3 -10 -1 -10 4 0 6 5 11 10 11 6 0 10 -2 10 -4z m53 -85
c15 -6 27 -16 27 -22 0 -7 -3 -9 -7 -6 -3 4 -12 -1 -20 -11 -14 -16 -14 -16
-9 1 3 10 2 16 -3 13 -10 -6 -35 21 -45 48 -6 19 -6 19 11 4 10 -9 30 -21 46
-27z m-9163 19 c0 -5 -5 -10 -11 -10 -5 0 -7 5 -4 10 3 6 8 10 11 10 2 0 4 -4
4 -10z m-44 -62 c-8 14 -5 15 18 6 15 -6 15 -8 -1 -20 -17 -13 -17 -13 0 -14
10 0 15 -5 12 -10 -4 -6 -10 -8 -15 -5 -5 3 -11 -4 -15 -15 -6 -18 -8 -18 -21
-5 -11 10 -13 25 -9 46 6 26 9 28 23 17 12 -10 14 -10 8 0z m-217 -55 c0 -25
-1 -26 -9 -8 -12 27 -12 35 0 35 6 0 10 -12 9 -27z m3431 7 c0 -5 -4 -10 -10
-10 -5 0 -10 5 -10 10 0 6 5 10 10 10 6 0 10 -4 10 -10z m8465 -30 l30 -35
-32 29 c-18 17 -33 34 -33 40 0 5 1 7 3 5 1 -2 16 -20 32 -39z m-8585 10 c0
-5 -2 -10 -4 -10 -3 0 -8 5 -11 10 -3 6 -1 10 4 10 6 0 11 -4 11 -10z m6190
-11 c9 -17 14 -18 26 -8 13 10 17 10 24 -1 6 -10 12 -11 22 -2 9 7 25 8 43 4
19 -5 25 -11 17 -16 -16 -10 -15 -23 3 -23 8 0 12 4 10 8 -3 4 4 5 14 2 12 -3
17 -11 14 -19 -3 -7 -8 -12 -12 -11 -4 1 -29 -17 -55 -40 -27 -24 -55 -43 -65
-43 -9 0 -26 -3 -39 -6 -18 -5 -25 0 -37 30 -15 36 -21 127 -8 139 13 13 32 7
43 -14z m-6050 -28 c0 -5 -7 -11 -15 -15 -15 -5 -20 5 -8 17 9 10 23 9 23 -2z
m-3300 -36 c0 -8 -9 -19 -20 -25 -11 -6 -19 -14 -16 -18 2 -4 -2 -15 -9 -25
-11 -15 -14 -15 -25 -2 -7 8 -9 23 -6 32 6 15 8 15 17 3 8 -11 9 -9 4 9 -6 20
-4 23 9 18 10 -4 19 -1 22 8 8 19 24 19 24 0z m3330 5 c0 -5 -4 -10 -9 -10 -6
0 -13 5 -16 10 -3 6 1 10 9 10 9 0 16 -4 16 -10z m-3333 -46 c-3 -3 -12 -4
-19 -1 -8 3 -5 6 6 6 11 1 17 -2 13 -5z m11863 -9 c7 -9 8 -15 2 -15 -5 0 -12
7 -16 15 -3 8 -4 15 -2 15 2 0 9 -7 16 -15z m-11870 -15 c0 -5 -2 -10 -4 -10
-3 0 -8 5 -11 10 -3 6 -1 10 4 10 6 0 11 -4 11 -10z m-190 -26 c0 -8 -5 -12
-10 -9 -6 4 -8 11 -5 16 9 14 15 11 15 -7z m74 0 c3 -8 2 -12 -4 -9 -6 3 -10
10 -10 16 0 14 7 11 14 -7z m3025 -55 c1 -4 -13 -4 -30 0 -36 7 -40 24 -7 32
21 5 34 -7 37 -32z m-2889 27 c0 -3 -4 -8 -10 -11 -5 -3 -10 -1 -10 4 0 6 5
11 10 11 6 0 10 -2 10 -4z m3097 -53 c-2 -1 -14 1 -27 4 -22 6 -22 7 -4 13 15
6 40 -8 31 -17z m-3254 -28 c4 -8 2 -17 -3 -20 -6 -4 -10 3 -10 14 0 25 6 27
13 6z m3192 -5 c-3 -5 -11 -10 -16 -10 -6 0 -7 5 -4 10 3 6 11 10 16 10 6 0 7
-4 4 -10z m6397 -63 c5 -26 0 -47 -12 -47 -4 0 -7 16 -6 35 1 40 11 46 18 12z
m85 7 c-3 -3 -12 -4 -19 -1 -8 3 -5 6 6 6 11 1 17 -2 13 -5z m-9444 -79 c-3
-9 -8 -14 -10 -11 -3 3 -2 9 2 15 9 16 15 13 8 -4z m-127 -32 c-10 -10 -19 5
-10 18 6 11 8 11 12 0 2 -7 1 -15 -2 -18z m9528 -13 c-6 -5 -24 21 -24 34 0 6
6 1 14 -10 8 -10 12 -21 10 -24z m-9189 -40 c-3 -5 -12 -10 -18 -10 -7 0 -6 4
3 10 19 12 23 12 15 0z m-60 -130 c3 -5 1 -10 -4 -10 -6 0 -11 5 -11 10 0 6 2
10 4 10 3 0 8 -4 11 -10z m775 -44 c0 -3 -4 -8 -10 -11 -5 -3 -10 -1 -10 4 0
6 5 11 10 11 6 0 10 -2 10 -4z m-970 -186 c0 -5 -5 -10 -11 -10 -5 0 -7 5 -4
10 3 6 8 10 11 10 2 0 4 -4 4 -10z m784 -69 c3 -4 -3 -18 -13 -30 -12 -14 -22
-18 -26 -11 -3 6 -11 8 -16 5 -5 -4 -9 -2 -9 4 0 17 22 24 31 10 7 -11 10 -9
15 9 7 24 10 26 18 13z m-828 -50 c-4 -5 -1 -12 4 -14 6 -3 5 -4 -2 -3 -15 3
-23 26 -8 26 6 0 9 -4 6 -9z m8728 -488 c-2 -36 -4 -48 -18 -83 -4 -8 -4 11
-2 42 4 50 11 78 20 78 1 0 1 -17 0 -37z m-201 -314 c32 -17 56 -45 73 -84 26
-64 18 -86 -63 -172 -34 -35 -60 -30 -73 15 -20 63 -61 114 -117 142 -53 26
-66 40 -57 64 13 33 190 59 237 35z m-643 -109 c0 -5 -4 -10 -10 -10 -5 0 -10
5 -10 10 0 6 5 10 10 10 6 0 10 -4 10 -10z m70 -85 c0 -22 -11 -45 -22 -45 -6
0 -6 6 1 14 9 11 9 15 0 18 -7 2 -14 14 -16 26 -3 20 0 21 17 12 11 -6 20 -17
20 -25z m-1095 -1529 c50 -11 61 -11 63 1 4 15 38 18 47 3 3 -5 1 -10 -6 -10
-9 0 -10 -3 -3 -10 6 -6 51 -17 100 -24 103 -15 134 -28 134 -56 0 -12 7 -20
18 -21 16 -1 16 -2 0 -6 -10 -2 -18 -13 -18 -24 0 -12 5 -17 10 -14 6 4 17 2
24 -4 8 -7 18 -11 22 -10 29 5 48 -7 81 -51 21 -28 38 -55 38 -60 0 -4 3 -12
8 -16 4 -4 7 -14 7 -23 0 -8 10 -26 23 -40 13 -15 45 -64 72 -111 26 -47 51
-87 55 -90 3 -3 10 -13 13 -23 8 -20 28 -19 35 3 3 7 0 10 -6 7 -10 -7 -119
150 -110 158 4 4 59 -67 172 -222 41 -56 43 -73 4 -52 -12 7 -27 14 -33 15
-18 5 -59 14 -115 25 -72 15 -100 30 -187 100 -40 31 -80 60 -90 64 -10 3 -34
28 -54 54 -20 26 -77 84 -127 129 -98 88 -170 132 -182 112 -5 -8 -9 -7 -13 4
-5 12 -14 15 -32 10 -63 -16 -158 148 -112 195 13 14 56 11 162 -13z m887
-273 c2 -10 -3 -31 -11 -47 -8 -17 -17 -47 -21 -67 -6 -30 -4 -36 8 -32 11 5
12 2 4 -14 -16 -29 -42 -49 -42 -32 0 8 -6 5 -15 -7 -11 -14 -14 -15 -15 -4 0
10 -11 3 -31 -18 -31 -33 -32 -33 -49 -15 -30 31 -33 69 -7 90 13 10 42 43 65
73 39 49 85 90 104 90 3 0 8 -8 10 -17z m338 -53 c12 -8 11 -10 -7 -10 -13 0
-23 5 -23 10 0 13 11 13 30 0z m75 -239 c11 -5 32 -5 48 0 15 4 27 4 27 -1 0
-11 -86 -23 -110 -15 -11 4 -20 11 -20 16 0 11 27 11 55 0z m1374 -20 c12 -16
21 -34 21 -40 0 -12 -67 -15 -94 -5 -23 9 -20 40 6 58 32 22 44 20 67 -13z
m-1476 -141 c-6 -21 12 -29 19 -8 3 8 12 4 26 -10 l21 -21 -45 3 c-24 1 -44 0
-44 -4 0 -3 -11 -7 -24 -8 -31 -2 -29 32 2 36 11 2 26 10 32 18 17 19 19 18
13 -6z m-78 -370 c3 -5 2 -10 -4 -10 -5 0 -13 5 -16 10 -3 6 -2 10 4 10 5 0
13 -4 16 -10z m-388 -65 c0 -8 -4 -12 -8 -9 -4 2 -10 0 -14 -6 -4 -6 -11 -8
-16 -4 -6 4 -6 11 2 20 15 18 36 18 36 -1z m191 -65 c3 -17 0 -21 -12 -17 -8
3 -18 2 -21 -3 -12 -19 -35 -10 -41 16 -8 32 8 44 45 35 17 -5 27 -15 29 -31z
m3786 -484 c-10 -8 -21 -11 -24 -8 -3 4 -9 10 -14 15 -5 4 6 7 24 7 32 0 33
-1 14 -14z m-267 -38 c-3 -8 -6 -5 -6 6 -1 11 2 17 5 13 3 -3 4 -12 1 -19z
m113 -2 c0 -2 -7 -6 -15 -10 -8 -3 -15 -1 -15 4 0 6 7 10 15 10 8 0 15 -2 15
-4z m890 -381 c0 -8 -2 -15 -4 -15 -2 0 -6 7 -10 15 -3 8 -1 15 4 15 6 0 10
-7 10 -15z m-637 -141 c8 -8 -3 -34 -14 -34 -5 0 -9 9 -9 20 0 19 11 26 23 14z
m-156 -20 c-3 -3 -12 -4 -19 -1 -8 3 -5 6 6 6 11 1 17 -2 13 -5z m-11353
-1237 c12 -13 20 -30 18 -37 -3 -7 0 -10 6 -6 6 3 10 -4 9 -17 0 -12 3 -31 8
-42 6 -17 5 -17 -9 3 -11 14 -28 22 -47 22 -22 0 -29 5 -29 19 0 10 -3 33 -6
50 -5 25 -3 31 11 31 10 0 27 -11 39 -23z m6692 -329 c-3 -29 -10 -116 -15
-194 -8 -133 -22 -200 -35 -164 -9 25 -78 323 -83 357 -6 39 15 51 91 52 l49
1 -7 -52z m1355 -294 c6 -8 9 -18 5 -21 -4 -4 -11 -1 -16 7 -6 9 -10 10 -10 3
0 -15 55 -55 64 -46 3 3 6 15 6 26 0 25 9 17 15 -12 2 -11 0 -21 -4 -21 -9 0
-22 -50 -23 -87 0 -13 -4 -20 -9 -17 -5 3 -9 -5 -9 -18 -1 -22 -1 -22 -12 -4
-8 15 -8 21 0 24 7 2 11 18 11 35 -1 24 -3 26 -6 10 -2 -13 -7 -23 -11 -23 -8
0 -56 112 -66 152 -6 26 -5 27 23 17 17 -6 35 -17 42 -25z m109 -54 c0 -5 -4
-10 -10 -10 -5 0 -10 -7 -10 -15 0 -8 -4 -15 -10 -15 -13 0 -13 6 2 30 14 21
28 26 28 10z"/>
<path d="M1910 10259 c0 -5 5 -7 10 -4 6 3 10 8 10 11 0 2 -4 4 -10 4 -5 0
-10 -5 -10 -11z"/>
<path d="M1060 9450 c0 -5 7 -7 15 -4 8 4 15 8 15 10 0 2 -7 4 -15 4 -8 0 -15
-4 -15 -10z"/>
<path d="M1125 9420 c-3 -5 -1 -10 4 -10 6 0 11 5 11 10 0 6 -2 10 -4 10 -3 0
-8 -4 -11 -10z"/>
<path d="M1003 9123 c4 -3 1 -13 -6 -21 -10 -13 -9 -14 3 -10 19 6 26 38 9 38
-7 0 -9 -3 -6 -7z"/>
<path d="M980 9040 c-9 -6 -10 -10 -3 -10 6 0 15 5 18 10 8 12 4 12 -15 0z"/>
<path d="M978 8995 c-3 -14 -2 -25 2 -25 11 0 20 39 10 45 -4 3 -10 -6 -12
-20z"/>
<path d="M2901 10803 c-1 -12 -7 -24 -13 -26 -7 -3 -2 -6 12 -6 14 0 32 4 40
10 13 9 12 10 -3 5 -12 -4 -21 1 -27 17 l-9 22 0 -22z"/>
<path d="M2930 10745 c-10 -12 -10 -15 4 -15 9 0 16 7 16 15 0 8 -2 15 -4 15
-2 0 -9 -7 -16 -15z"/>
<path d="M2904 10709 c-29 -10 -37 -26 -18 -33 8 -3 13 -2 10 3 -3 4 8 7 24 5
16 -2 32 1 35 6 3 6 0 10 -9 10 -8 0 -16 4 -18 9 -1 5 -13 5 -24 0z"/>
<path d="M2764 10685 c3 -9 0 -15 -9 -15 -18 0 -38 -36 -29 -52 4 -7 12 -1 21
15 14 28 43 28 43 0 0 -21 34 -12 36 10 1 12 1 13 -3 2 -4 -15 -25 -22 -21 -7
3 12 -25 62 -35 62 -5 0 -7 -7 -3 -15z"/>
<path d="M2710 10664 c0 -8 5 -12 10 -9 6 4 8 11 5 16 -9 14 -15 11 -15 -7z"/>
<path d="M2852 10660 c0 -14 2 -19 5 -12 2 6 2 18 0 25 -3 6 -5 1 -5 -13z"/>
<path d="M2910 10661 c0 -5 7 -12 16 -15 14 -5 15 -4 4 9 -14 17 -20 19 -20 6z"/>
<path d="M2650 10651 c0 -12 14 -21 39 -26 14 -3 18 1 14 16 -5 19 -53 28 -53
10z"/>
<path d="M2602 10610 c-13 -21 -9 -40 8 -40 5 0 7 8 4 18 -5 14 -4 15 5 2 6
-8 11 -24 11 -34 0 -15 3 -17 11 -9 8 8 6 19 -5 41 -15 28 -15 31 2 35 14 4
14 5 -3 6 -11 0 -26 -8 -33 -19z"/>
<path d="M3250 10600 c6 -11 15 -20 20 -20 17 0 11 15 -11 28 -19 12 -19 11
-9 -8z"/>
<path d="M2565 10580 c3 -5 8 -10 11 -10 2 0 4 5 4 10 0 6 -5 10 -11 10 -5 0
-7 -4 -4 -10z"/>
<path d="M2744 10570 c-16 -6 -20 -15 -17 -34 7 -35 -23 -47 -43 -18 -11 16
-20 19 -37 13 -12 -5 -23 -13 -23 -20 -3 -24 -5 -26 -12 -13 -6 9 -16 6 -38
-14 -26 -24 -27 -26 -6 -21 24 6 28 -3 10 -21 -7 -7 -8 -12 -4 -12 5 0 1 -11
-8 -24 -10 -15 -12 -27 -6 -31 6 -3 10 0 10 7 0 9 3 9 10 -2 6 -9 10 -10 10
-3 0 8 9 9 31 3 24 -7 30 -6 26 4 -4 10 3 13 23 11 33 -3 67 17 105 63 15 17
35 32 44 32 24 0 58 -28 46 -37 -17 -13 -16 -40 0 -47 13 -4 15 -1 10 14 -5
15 -3 18 9 14 16 -6 40 28 28 42 -4 5 0 3 10 -4 9 -8 19 -9 22 -4 7 12 -18 35
-27 25 -4 -3 -7 -1 -7 5 0 5 6 13 13 15 7 4 8 6 1 6 -6 1 -17 -6 -24 -14 -7
-8 -18 -15 -24 -15 -6 0 -4 5 4 10 13 8 12 10 -2 10 -10 0 -18 8 -18 18 -1 15
-2 15 -13 2 -7 -8 -19 -16 -27 -18 -8 -2 -16 -7 -18 -12 -7 -18 -30 2 -25 21
4 13 0 19 -11 19 -19 0 -21 11 -4 28 14 14 11 14 -18 2z m-69 -69 c-3 -6 -11
-8 -17 -5 -6 4 -5 9 3 15 16 10 23 4 14 -10z m49 -29 c3 -5 -1 -9 -9 -9 -8 0
-15 4 -15 9 0 4 4 8 9 8 6 0 12 -4 15 -8z m-37 -36 c0 -8 -6 -12 -14 -9 -7 3
-13 9 -13 14 0 5 6 9 13 9 8 0 14 -6 14 -14z"/>
<path d="M2590 10529 c0 -5 5 -7 10 -4 6 3 10 8 10 11 0 2 -4 4 -10 4 -5 0
-10 -5 -10 -11z"/>
<path d="M2225 10310 c3 -5 8 -10 11 -10 2 0 4 5 4 10 0 6 -5 10 -11 10 -5 0
-7 -4 -4 -10z"/>
<path d="M2550 10200 c0 -5 5 -10 10 -10 6 0 10 5 10 10 0 6 -4 10 -10 10 -5
0 -10 -4 -10 -10z"/>
<path d="M5325 13530 c-3 -5 -1 -10 4 -10 6 0 11 5 11 10 0 6 -2 10 -4 10 -3
0 -8 -4 -11 -10z"/>
<path d="M6420 13424 c0 -8 5 -12 10 -9 6 3 10 10 10 16 0 5 -4 9 -10 9 -5 0
-10 -7 -10 -16z"/>
<path d="M6470 13314 c0 -10 11 -14 37 -14 42 0 41 3 -4 18 -27 9 -33 8 -33
-4z"/>
<path d="M6790 13091 c0 -5 5 -13 10 -16 6 -3 10 -2 10 4 0 5 -4 13 -10 16 -5
3 -10 2 -10 -4z"/>
<path d="M7210 12940 c0 -5 5 -10 10 -10 6 0 10 5 10 10 0 6 -4 10 -10 10 -5
0 -10 -4 -10 -10z"/>
<path d="M7340 12780 c0 -5 5 -10 10 -10 6 0 10 5 10 10 0 6 -4 10 -10 10 -5
0 -10 -4 -10 -10z"/>
<path d="M12295 12630 c3 -5 8 -10 11 -10 2 0 4 5 4 10 0 6 -5 10 -11 10 -5 0
-7 -4 -4 -10z"/>
<path d="M9535 9580 c3 -5 8 -10 11 -10 2 0 4 5 4 10 0 6 -5 10 -11 10 -5 0
-7 -4 -4 -10z"/>
<path d="M10391 9494 c0 -11 3 -14 6 -6 3 7 2 16 -1 19 -3 4 -6 -2 -5 -13z"/>
<path d="M10378 9430 c-3 -16 -1 -30 4 -30 4 0 8 14 8 30 0 17 -2 30 -4 30 -2
0 -6 -13 -8 -30z"/>
<path d="M10006 7023 c-6 -14 -5 -15 5 -6 7 7 10 15 7 18 -3 3 -9 -2 -12 -12z"/>
<path d="M9940 6903 c0 -4 5 -15 10 -23 8 -13 10 -13 10 2 0 9 -4 20 -10 23
-5 3 -10 3 -10 -2z"/>
<path d="M9935 6840 c3 -5 8 -10 11 -10 2 0 4 5 4 10 0 6 -5 10 -11 10 -5 0
-7 -4 -4 -10z"/>
<path d="M9918 6803 c7 -3 16 -2 19 1 4 3 -2 6 -13 5 -11 0 -14 -3 -6 -6z"/>
<path d="M3235 9150 c-3 -5 -1 -10 4 -10 6 0 11 5 11 10 0 6 -2 10 -4 10 -3 0
-8 -4 -11 -10z"/>
<path d="M10720 8560 c-9 -6 -10 -10 -3 -10 6 0 15 5 18 10 8 12 4 12 -15 0z"/>
<path d="M10850 8380 c0 -5 4 -10 9 -10 6 0 13 5 16 10 3 6 -1 10 -9 10 -9 0
-16 -4 -16 -10z"/>
<path d="M10398 8682 c-3 -9 -2 -26 2 -36 6 -18 7 -18 13 -2 10 25 9 56 -2 56
-5 0 -11 -8 -13 -18z"/>
<path d="M10491 8546 c-7 -8 -9 -21 -5 -27 5 -9 10 -5 16 11 10 28 5 36 -11
16z"/>
<path d="M11209 7203 c-13 -17 -13 -17 6 -3 11 8 22 16 24 17 2 2 0 3 -6 3 -6
0 -17 -8 -24 -17z"/>
<path d="M11272 7155 c-1 -20 -4 -40 -6 -44 -3 -4 0 -24 6 -44 11 -35 12 -36
30 -20 17 15 18 14 20 -23 1 -37 1 -37 5 -6 2 17 10 32 16 32 18 0 39 37 26
46 -6 3 -8 17 -5 30 5 19 1 26 -21 37 -62 32 -70 31 -71 -8z"/>
<path d="M12055 7149 c-15 -6 -11 -8 18 -8 20 -1 37 1 37 3 0 9 -37 12 -55 5z"/>
<path d="M11370 4380 c0 -5 6 -10 14 -10 8 0 16 -6 19 -14 4 -10 23 -14 65
-14 32 1 65 -2 71 -7 15 -9 25 0 16 14 -3 6 -17 11 -29 11 -13 0 -40 7 -59 15
-41 17 -97 20 -97 5z"/>
<path d="M11715 4320 c3 -5 12 -7 20 -3 21 7 19 13 -6 13 -11 0 -18 -4 -14
-10z"/>
<path d="M9370 230 c0 -5 5 -10 11 -10 5 0 7 5 4 10 -3 6 -8 10 -11 10 -2 0
-4 -4 -4 -10z"/>
<path d="M6908 19179 c-6 -46 -50 -56 -249 -63 -101 -3 -335 -13 -519 -21
-184 -9 -372 -14 -417 -10 -102 7 -133 1 -133 -30 0 -12 11 -34 25 -49 28 -30
31 -52 11 -81 -30 -45 -36 -154 -9 -185 12 -13 30 -20 54 -20 50 0 89 44 89
100 0 33 -7 44 -53 86 -29 27 -51 56 -49 64 4 22 103 49 198 55 101 7 433 23
594 30 481 21 843 35 1015 40 110 3 261 10 335 15 74 5 216 12 315 15 99 3
266 7 370 10 105 3 210 8 235 10 25 3 122 7 215 10 94 4 231 10 305 15 74 6
164 10 200 10 62 0 67 -2 83 -29 23 -38 21 -79 -5 -198 -20 -87 -23 -128 -24
-368 -2 -353 -14 -924 -20 -952 -9 -45 -41 -50 -339 -57 -153 -4 -282 -9 -285
-11 -3 -1 -108 -6 -235 -9 -126 -4 -338 -11 -470 -16 -132 -5 -465 -17 -740
-26 -275 -8 -520 -19 -544 -22 -63 -10 -69 -27 -38 -95 15 -34 32 -57 41 -57
9 0 16 -4 16 -10 0 -5 -9 -10 -19 -10 -40 0 -42 -68 -3 -111 l28 -31 289 11
c160 6 329 13 377 15 70 3 92 8 118 26 37 26 35 44 -6 48 -16 2 -60 15 -99 29
-67 26 -77 27 -225 23 -342 -10 -440 -2 -380 30 12 6 24 9 27 6 3 -2 15 -1 27
4 12 4 111 11 220 14 109 4 202 8 206 11 3 2 105 9 226 14 120 6 259 13 308
16 63 4 107 1 152 -11 50 -12 74 -13 116 -5 66 13 409 31 673 35 110 2 232 8
270 14 39 6 205 11 370 11 371 0 350 -1 410 10 57 11 240 26 270 23 11 -1 34
-9 50 -18 30 -16 32 -15 69 10 37 25 44 26 180 26 78 0 177 2 221 5 44 2 177
7 295 10 118 3 346 9 505 14 160 6 409 13 555 16 146 3 301 8 345 10 44 2 244
7 445 11 201 3 376 8 390 9 14 2 140 4 280 5 140 1 263 4 273 7 14 4 17 16 17
74 l0 69 -63 0 c-76 0 -586 -16 -942 -30 -143 -6 -327 -12 -410 -15 -82 -3
-177 -7 -210 -10 -33 -2 -145 -7 -250 -10 -780 -22 -1013 -30 -1378 -45 -195
-8 -223 -7 -254 8 -33 16 -36 16 -71 -4 -31 -18 -54 -22 -142 -22 -104 0 -164
13 -182 41 -4 7 -8 84 -8 172 0 140 -3 167 -22 215 -21 53 -21 67 -20 425 1
204 5 450 8 548 l7 177 -72 0 -71 0 0 -282 c1 -156 5 -303 11 -328 5 -25 12
-135 16 -245 l6 -201 -25 -29 c-21 -24 -34 -29 -86 -33 -152 -11 -160 1 -162
240 0 107 3 186 10 197 7 13 25 22 58 27 76 10 109 30 116 69 10 50 -32 352
-55 396 -12 24 -19 64 -21 113 l-3 76 -715 -3 c-542 -2 -768 -7 -935 -19 -121
-9 -292 -19 -380 -22 -88 -3 -236 -9 -328 -12 -143 -6 -174 -4 -211 10 -25 9
-46 23 -49 30 -3 8 -26 14 -60 15 -50 1 -56 -1 -59 -20z"/>
<path d="M10265 19088 c-11 -158 -7 -270 12 -353 8 -38 16 -71 18 -73 1 -1 28
11 61 28 34 17 80 31 109 33 l50 4 -2 67 c0 37 -7 80 -13 96 -10 25 -13 67
-19 273 l-1 37 -104 0 -103 0 -8 -112z"/>
<path d="M5442 19055 c-14 -7 -89 -15 -205 -19 -100 -4 -263 -11 -362 -16
-185 -10 -480 -23 -945 -40 -146 -6 -278 -12 -295 -14 -16 -3 -118 -7 -225
-11 -107 -3 -235 -8 -285 -10 -49 -2 -237 -10 -418 -16 -312 -11 -329 -11
-362 7 -34 18 -35 18 -78 -4 -52 -26 -113 -28 -183 -7 -64 19 -91 19 -102 -2
-15 -29 -21 -95 -13 -138 6 -33 8 -36 14 -19 15 44 43 57 138 64 58 4 110 2
143 -5 41 -10 56 -10 78 1 14 8 73 16 130 19 203 11 548 25 848 35 168 5 395
14 505 20 110 6 412 19 670 30 259 10 542 22 630 26 286 14 299 11 300 -73 1
-38 5 -48 23 -54 19 -7 24 -4 32 16 12 31 7 91 -11 128 -10 22 -10 33 -1 48
13 21 16 50 5 48 -5 -1 -18 -7 -31 -14z"/>
<path d="M12798 19002 c-15 -31 -31 -75 -34 -97 -4 -22 -18 -57 -31 -77 -13
-21 -20 -38 -17 -38 4 0 2 -6 -3 -12 -5 -7 -10 -37 -12 -66 -4 -64 16 -92 64
-92 35 0 74 35 94 85 13 34 14 153 2 333 -2 43 -34 25 -63 -36z"/>
<path d="M5491 18284 c0 -11 3 -14 6 -6 3 7 2 16 -1 19 -3 4 -6 -2 -5 -13z"/>
<path d="M5467 18253 c-4 -3 -2 -12 4 -20 9 -9 8 -13 0 -13 -6 0 -11 -5 -11
-11 0 -5 -9 -31 -21 -56 -21 -47 -24 -58 -34 -147 -3 -27 -9 -54 -12 -59 -3
-6 -9 -79 -13 -164 -4 -94 -12 -159 -19 -166 -37 -37 21 -129 118 -187 l71
-42 257 11 c142 6 306 11 364 11 58 0 120 5 138 11 36 13 42 44 10 54 -12 4
-161 1 -333 -5 -343 -14 -416 -9 -492 35 -62 36 -69 62 -55 203 22 232 31 302
42 344 6 24 13 80 16 126 3 65 1 82 -10 82 -7 0 -17 -3 -20 -7z"/>
<path d="M10278 17292 c-10 -16 -38 -48 -63 -71 -44 -41 -49 -43 -98 -38 -29
2 -89 15 -134 30 -64 20 -89 24 -115 17 -31 -9 -373 -24 -463 -21 -43 1 -181
26 -230 42 -17 5 -39 20 -49 34 -35 47 -82 27 -81 -35 0 -20 5 -25 31 -26 18
-1 45 -9 60 -18 16 -9 76 -31 134 -49 90 -29 107 -37 119 -62 11 -22 11 -35 3
-58 -6 -17 -9 -33 -7 -37 2 -4 31 -17 64 -29 32 -12 63 -27 69 -34 11 -14 11
-67 0 -67 -5 0 -8 -4 -8 -10 0 -5 3 -9 8 -8 4 0 14 -1 22 -4 62 -24 238 -30
920 -32 217 -1 311 -4 326 -13 16 -9 34 -9 80 1 46 10 376 12 1526 12 l1468
-1 0 95 0 95 -1002 -1 c-552 -1 -1095 -5 -1208 -8 -113 -4 -353 -9 -533 -12
-290 -5 -331 -4 -353 11 -28 18 -31 47 -8 66 25 20 417 32 1789 54 198 3 383
8 410 10 28 3 239 7 470 11 230 3 423 8 427 10 4 3 8 34 8 70 0 60 -1 64 -22
64 -13 0 -117 -4 -233 -10 -253 -12 -644 -25 -1289 -45 -264 -8 -557 -17 -651
-20 -686 -22 -804 -26 -838 -30 -20 -2 -59 3 -85 10 -26 8 -67 15 -92 15 -25
0 -63 5 -85 10 -25 6 -56 5 -83 -1 -61 -13 -91 -3 -108 38 -16 38 -48 73 -67
73 -7 0 -20 -13 -29 -28z m165 -310 l21 -22 -24 -25 -24 -25 -265 0 c-354 1
-460 19 -371 64 22 10 84 16 233 21 111 4 204 9 207 12 3 3 49 3 103 1 83 -4
102 -8 120 -26z"/>
<path d="M3485 17256 c-4 -19 -2 -43 4 -55 10 -18 18 -20 54 -15 54 8 74 30
50 56 -9 10 -22 18 -28 18 -7 0 -18 7 -25 15 -22 27 -49 18 -55 -19z"/>
<path d="M8950 17020 c-30 -11 -62 -20 -71 -20 -9 0 -19 -9 -22 -20 -5 -18 0
-20 61 -21 37 -1 98 -3 136 -5 38 -1 96 3 130 10 50 10 61 16 61 31 0 15 -8
21 -35 23 -19 2 -39 7 -45 12 -21 16 -159 10 -215 -10z"/>
<path d="M8360 17000 c-91 -4 -217 -10 -280 -13 -63 -4 -239 -9 -390 -12 -151
-3 -373 -10 -493 -16 -191 -9 -224 -8 -273 6 -51 15 -85 15 -432 0 -406 -18
-816 -24 -871 -13 -18 4 -43 3 -55 -1 -33 -13 -356 -21 -1086 -27 -667 -5
-675 -5 -692 -26 -24 -27 -23 -80 1 -102 17 -16 34 -17 133 -12 62 3 217 8
343 11 332 7 601 15 750 21 169 8 570 16 965 19 173 2 392 8 485 14 94 6 216
11 273 11 93 0 108 -3 148 -26 39 -23 48 -25 76 -15 23 8 279 11 889 11 695 0
858 2 867 13 11 13 14 85 5 119 -6 25 -76 48 -141 46 -31 0 -131 -4 -222 -8z"/>
<path d="M9123 16853 c9 -2 25 -2 35 0 9 3 1 5 -18 5 -19 0 -27 -2 -17 -5z"/>
<path d="M5556 16531 c-9 -15 9 -49 81 -155 55 -81 74 -101 101 -108 39 -10
72 4 72 31 0 11 -28 48 -62 83 -35 35 -75 85 -90 111 -24 42 -31 47 -62 47
-19 0 -37 -4 -40 -9z"/>
<path d="M12235 11970 c-3 -5 1 -10 10 -10 9 0 13 5 10 10 -3 6 -8 10 -10 10
-2 0 -7 -4 -10 -10z"/>
<path d="M12211 11923 c-24 -8 -51 -21 -58 -29 -8 -8 -24 -14 -36 -15 -76 -1
-111 -7 -115 -17 -2 -7 -7 -10 -11 -8 -4 3 -54 -13 -111 -35 -57 -22 -115 -39
-129 -38 -14 1 -45 1 -68 1 -39 -2 -43 -4 -43 -27 0 -14 3 -25 8 -25 4 -1 40
-5 80 -9 102 -12 115 -26 110 -115 -3 -65 -1 -71 21 -82 31 -16 65 -3 118 45
35 32 51 39 101 45 32 4 81 2 108 -4 105 -22 140 16 110 117 -9 32 -21 91 -26
131 -4 41 -10 75 -12 77 -2 2 -23 -4 -47 -12z"/>
<path d="M13031 11774 c-12 -28 -7 -44 14 -44 20 0 28 17 21 46 -8 31 -20 31
-35 -2z"/>
<path d="M12491 11719 c-27 -44 -37 -118 -18 -136 10 -10 23 -13 38 -8 29 10
129 103 129 121 0 30 -39 54 -85 54 -40 0 -48 -4 -64 -31z"/>
<path d="M9016 11248 c-3 -13 -7 -60 -10 -105 -4 -62 -2 -83 7 -83 9 0 12 30
14 105 1 103 -2 127 -11 83z"/>
<path d="M6676 11222 c-8 -24 22 -104 37 -99 19 6 27 59 14 86 -15 32 -43 39
-51 13z"/>
<path d="M7455 10650 c-3 -5 1 -10 9 -10 9 0 16 5 16 10 0 6 -4 10 -9 10 -6 0
-13 -4 -16 -10z"/>
<path d="M4621 9804 c0 -11 3 -14 6 -6 3 7 2 16 -1 19 -3 4 -6 -2 -5 -13z"/>
<path d="M4796 9483 c-6 -14 -5 -15 5 -6 7 7 10 15 7 18 -3 3 -9 -2 -12 -12z"/>
<path d="M927 8590 c-3 -11 -1 -23 4 -26 5 -3 9 -1 9 5 0 5 3 16 6 25 3 9 2
16 -4 16 -5 0 -12 -9 -15 -20z"/>
<path d="M950 8521 c0 -6 4 -13 10 -16 6 -3 7 1 4 9 -7 18 -14 21 -14 7z"/>
<path d="M845 8510 c3 -5 8 -10 11 -10 2 0 4 5 4 10 0 6 -5 10 -11 10 -5 0 -7
-4 -4 -10z"/>
<path d="M980 8501 c0 -5 5 -13 10 -16 6 -3 10 -2 10 4 0 5 -4 13 -10 16 -5 3
-10 2 -10 -4z"/>
<path d="M740 8489 c0 -5 5 -7 10 -4 6 3 10 8 10 11 0 2 -4 4 -10 4 -5 0 -10
-5 -10 -11z"/>
<path d="M947 8470 c-3 -11 -2 -20 3 -20 12 0 21 28 11 35 -5 2 -11 -4 -14
-15z"/>
<path d="M1007 8473 c-4 -3 -7 -11 -7 -17 0 -6 5 -5 12 2 6 6 9 14 7 17 -3 3
-9 2 -12 -2z"/>
<path d="M972 8440 c0 -14 2 -19 5 -12 2 6 2 18 0 25 -3 6 -5 1 -5 -13z"/>
<path d="M783 8349 c-1 -10 2 -19 8 -19 11 0 12 27 1 34 -4 2 -9 -4 -9 -15z"/>
<path d="M926 8294 c-5 -14 -4 -15 9 -4 17 14 19 20 6 20 -5 0 -12 -7 -15 -16z"/>
<path d="M950 8269 c0 -5 5 -7 10 -4 6 3 10 8 10 11 0 2 -4 4 -10 4 -5 0 -10
-5 -10 -11z"/>
<path d="M816 8214 c-4 -10 -1 -14 6 -12 15 5 23 28 10 28 -5 0 -13 -7 -16
-16z"/>
<path d="M850 8221 c0 -5 5 -13 10 -16 6 -3 10 -2 10 4 0 5 -4 13 -10 16 -5 3
-10 2 -10 -4z"/>
<path d="M895 8210 c3 -5 8 -10 11 -10 2 0 4 5 4 10 0 6 -5 10 -11 10 -5 0 -7
-4 -4 -10z"/>
<path d="M785 8180 c-3 -5 -1 -10 4 -10 6 0 11 5 11 10 0 6 -2 10 -4 10 -3 0
-8 -4 -11 -10z"/>
<path d="M880 8179 c0 -5 5 -7 10 -4 6 3 10 8 10 11 0 2 -4 4 -10 4 -5 0 -10
-5 -10 -11z"/>
<path d="M797 8135 c2 -8 -6 -10 -25 -7 -19 2 -31 -1 -35 -10 -4 -11 3 -13 27
-11 24 2 27 1 11 -5 -19 -9 -19 -9 2 -16 13 -4 27 -5 32 -2 5 4 12 0 15 -6 2
-7 4 -4 3 7 -2 11 -6 26 -11 34 -5 8 -3 16 5 22 10 6 8 8 -8 7 -11 -1 -19 -7
-16 -13z"/>
<path d="M910 8120 c-12 -8 -10 -10 8 -10 13 0 20 4 17 10 -7 12 -6 12 -25 0z"/>
<path d="M793 8055 c4 -11 8 -33 11 -49 3 -16 10 -34 17 -40 8 -8 10 -5 4 12
-3 12 -8 33 -9 47 -2 14 -9 31 -16 38 -10 10 -11 8 -7 -8z"/>
<path d="M830 8046 c0 -9 5 -16 10 -16 6 0 10 4 10 9 0 6 -4 13 -10 16 -5 3
-10 -1 -10 -9z"/>
<path d="M785 7880 c4 -6 11 -8 16 -5 14 9 11 15 -7 15 -8 0 -12 -5 -9 -10z"/>
<path d="M4355 7860 c3 -5 8 -10 11 -10 2 0 4 5 4 10 0 6 -5 10 -11 10 -5 0
-7 -4 -4 -10z"/>
<path d="M782 7805 c6 -14 15 -25 19 -25 5 0 3 11 -3 25 -6 14 -15 25 -19 25
-5 0 -3 -11 3 -25z"/>
<path d="M820 7799 c0 -5 5 -7 10 -4 6 3 10 8 10 11 0 2 -4 4 -10 4 -5 0 -10
-5 -10 -11z"/>
<path d="M780 7755 c0 -8 2 -15 4 -15 2 0 6 7 10 15 3 8 1 15 -4 15 -6 0 -10
-7 -10 -15z"/>
<path d="M6235 7741 c-35 -5 -40 -9 -43 -36 -2 -16 -9 -34 -15 -38 -9 -6 -9
-10 1 -14 17 -7 15 -23 -3 -23 -8 0 -15 -4 -15 -10 0 -5 9 -10 20 -10 13 0 20
-6 19 -17 0 -11 -3 -13 -6 -5 -9 22 -23 13 -14 -10 5 -13 13 -23 19 -23 10 0
41 -27 98 -84 19 -19 21 -26 12 -33 -9 -5 -7 -8 8 -8 11 0 38 -18 58 -41 33
-35 37 -44 32 -75 -7 -32 -6 -34 22 -34 31 0 42 -14 42 -56 0 -13 5 -23 11
-22 14 4 31 -50 23 -75 -3 -11 6 -28 27 -49 18 -19 27 -34 20 -36 -9 -3 -9 -7
-1 -17 9 -10 6 -16 -10 -25 -16 -9 -20 -19 -18 -51 1 -24 7 -39 15 -39 7 0 13
5 13 10 0 6 -4 10 -10 10 -5 0 -10 5 -10 10 0 6 9 10 19 10 14 0 18 -5 14 -18
-4 -17 5 -19 109 -25 62 -4 136 -7 164 -7 50 0 51 0 46 30 -2 17 -9 30 -16 30
-6 0 -4 5 4 10 13 8 12 10 -2 10 -22 0 -23 9 -2 39 11 16 15 35 11 62 -3 21
-2 39 3 39 4 0 10 27 13 61 4 33 13 67 21 75 13 12 13 18 1 40 -14 28 -10 89
7 111 12 15 0 113 -13 113 -5 0 -9 13 -9 28 0 15 -6 34 -12 40 -10 10 -10 15
1 22 24 14 21 51 -6 63 -12 5 -23 14 -23 19 0 11 -47 30 -87 35 -23 2 -33 -1
-33 -10 0 -8 -15 -13 -43 -15 -23 -1 -62 -8 -86 -17 -24 -8 -46 -13 -49 -10
-3 3 0 5 6 5 7 0 12 5 12 10 0 16 -30 12 -37 -5 -9 -24 -127 -18 -150 7 -16
18 -99 60 -112 57 -3 -1 -24 -5 -46 -8z"/>
<path d="M777 7713 c-11 -10 -8 -53 3 -53 6 0 10 14 10 30 0 31 -2 35 -13 23z"/>
<path d="M6450 7694 c0 -8 5 -12 10 -9 6 4 8 11 5 16 -9 14 -15 11 -15 -7z"/>
<path d="M782 7653 c-26 -5 -20 -23 9 -23 10 0 19 7 19 15 0 8 -1 14 -2 14 -2
-1 -13 -4 -26 -6z"/>
<path d="M875 7620 c3 -5 8 -10 11 -10 2 0 4 5 4 10 0 6 -5 10 -11 10 -5 0 -7
-4 -4 -10z"/>
<path d="M1010 7578 c0 -5 5 -8 11 -8 5 0 7 -6 3 -12 -4 -7 2 -4 14 6 12 11
22 20 22 20 0 1 -11 1 -25 1 -14 0 -25 -3 -25 -7z"/>
<path d="M1085 7440 c3 -5 8 -10 11 -10 2 0 4 5 4 10 0 6 -5 10 -11 10 -5 0
-7 -4 -4 -10z"/>
<path d="M1267 7413 c-11 -10 -8 -20 8 -27 10 -4 15 1 15 14 0 20 -11 26 -23
13z"/>
<path d="M1425 7410 c3 -5 8 -10 11 -10 2 0 4 5 4 10 0 6 -5 10 -11 10 -5 0
-7 -4 -4 -10z"/>
<path d="M1228 7393 c7 -3 16 -2 19 1 4 3 -2 6 -13 5 -11 0 -14 -3 -6 -6z"/>
<path d="M6382 7320 c0 -14 2 -19 5 -12 2 6 2 18 0 25 -3 6 -5 1 -5 -13z"/>
<path d="M3430 6771 c-17 -27 -42 -57 -56 -66 -31 -20 -19 -44 13 -27 10 6 48
20 83 32 36 12 68 27 71 32 16 25 30 -34 23 -94 -6 -56 -5 -61 10 -55 10 4 19
7 21 7 1 0 15 16 30 35 l27 36 -29 22 c-15 12 -49 41 -74 64 -25 24 -49 43
-52 43 -3 0 -7 -10 -9 -22 -2 -13 -7 -21 -12 -20 -5 2 -12 -2 -17 -9 -4 -8
-11 -11 -14 -7 -3 3 6 19 20 36 29 35 31 42 10 42 -8 0 -29 -22 -45 -49z"/>
<path d="M1043 6732 c1 -14 5 -18 11 -12 7 7 6 14 -1 21 -9 9 -12 7 -10 -9z"/>
<path d="M6379 6646 c-2 -2 -69 -7 -149 -10 -152 -6 -323 -32 -400 -60 -47
-17 -90 -56 -90 -82 0 -8 -6 -14 -13 -14 -13 0 -47 -90 -47 -126 0 -38 43 -46
310 -55 282 -10 528 -8 549 5 23 15 -4 266 -34 318 -7 11 -28 18 -66 22 -31 3
-58 4 -60 2z"/>
<path d="M8418 6488 c-21 -21 -19 -101 3 -122 8 -8 37 -17 66 -20 44 -6 53 -4
62 12 12 23 5 120 -10 138 -16 19 -99 14 -121 -8z"/>
<path d="M3294 6426 c34 -96 63 -283 81 -516 3 -41 11 -115 18 -165 l12 -90 6
50 c4 28 11 78 16 113 5 34 7 65 4 67 -7 7 -11 43 -11 86 0 19 -6 52 -15 72
-8 20 -12 37 -9 37 4 0 2 6 -4 13 -6 7 -15 40 -21 72 -23 133 -55 254 -72 269
-9 8 -10 6 -5 -8z m113 -568 c-3 -8 -6 -5 -6 6 -1 11 2 17 5 13 3 -3 4 -12 1
-19z"/>
<path d="M9021 6304 c0 -11 3 -14 6 -6 3 7 2 16 -1 19 -3 4 -6 -2 -5 -13z"/>
<path d="M6980 6281 c0 -5 9 -7 20 -4 11 3 20 7 20 9 0 2 -9 4 -20 4 -11 0
-20 -4 -20 -9z"/>
<path d="M7660 6278 c0 -4 14 -8 30 -8 17 0 30 4 30 9 0 5 -13 9 -30 9 -16 -1
-30 -5 -30 -10z"/>
<path d="M9020 6211 c0 -6 4 -11 9 -11 5 0 12 -10 14 -22 4 -16 5 -14 4 6 -2
27 -27 52 -27 27z"/>
<path d="M8975 6200 c-3 -5 1 -10 9 -10 9 0 16 5 16 10 0 6 -4 10 -9 10 -6 0
-13 -4 -16 -10z"/>
<path d="M6680 6117 c0 -19 22 -27 72 -27 32 0 39 3 36 18 -4 23 -108 32 -108
9z"/>
<path d="M8835 6121 c-3 -5 -1 -12 5 -16 5 -3 10 1 10 9 0 18 -6 21 -15 7z"/>
<path d="M8800 6069 c0 -5 5 -7 10 -4 6 3 10 8 10 11 0 2 -4 4 -10 4 -5 0 -10
-5 -10 -11z"/>
<path d="M60 6059 c0 -5 7 -9 16 -9 9 0 12 -5 7 -12 -11 -20 -13 -68 -1 -68 6
0 7 -7 4 -16 -3 -8 1 -25 9 -38 8 -12 12 -25 9 -29 -4 -4 1 -18 10 -31 20 -32
20 -46 0 -46 -9 0 -18 9 -21 20 -3 11 -16 23 -29 26 -13 3 -28 12 -35 20 -6 8
-15 11 -20 8 -18 -11 4 -91 51 -189 32 -66 56 -134 70 -200 11 -55 28 -127 36
-160 17 -66 38 -173 59 -311 19 -121 50 -233 87 -319 17 -38 37 -88 43 -110
12 -38 12 -39 24 -16 7 13 17 52 22 87 5 34 22 92 38 128 17 35 37 90 47 122
9 31 43 123 76 203 33 80 64 160 68 176 5 17 26 87 45 158 l36 127 -20 80
c-26 98 -81 215 -131 279 -43 54 -110 91 -166 91 -20 0 -82 6 -138 14 -148 21
-196 25 -196 15z"/>
<path d="M8568 5993 c7 -3 16 -2 19 1 4 3 -2 6 -13 5 -11 0 -14 -3 -6 -6z"/>
<path d="M2903 5770 c0 -25 2 -35 4 -22 2 12 2 32 0 45 -2 12 -4 2 -4 -23z"/>
<path d="M5855 5781 c-3 -5 -1 -12 4 -15 12 -8 41 3 41 15 0 12 -37 12 -45 0z"/>
<path d="M3030 5468 c-37 -25 -50 -48 -27 -48 14 0 42 22 66 53 19 24 0 21
-39 -5z"/>
<path d="M3415 5440 c3 -25 5 -73 6 -107 1 -35 5 -63 9 -63 9 0 1 133 -11 180
-8 32 -8 32 -4 -10z"/>
<path d="M3420 5221 c0 -12 5 -21 10 -21 6 0 10 6 10 14 0 8 -4 18 -10 21 -5
3 -10 -3 -10 -14z"/>
<path d="M3360 4790 c6 -11 15 -18 21 -14 6 4 6 11 -2 20 -17 21 -31 17 -19
-6z"/>
<path d="M8340 3801 c0 -5 5 -13 10 -16 6 -3 10 -2 10 4 0 5 -4 13 -10 16 -5
3 -10 2 -10 -4z"/>
<path d="M18 3783 c-15 -4 -18 -16 -18 -73 l0 -68 63 14 c86 19 127 42 127 70
0 12 6 25 13 27 10 4 10 6 0 6 -7 1 -22 -8 -33 -19 -18 -18 -20 -18 -20 -3 0
13 -3 14 -12 5 -16 -16 -28 -15 -28 2 0 8 -11 14 -25 14 -14 0 -31 6 -38 14
-7 8 -20 13 -29 11z"/>
<path d="M8558 3688 c5 -21 4 -22 -11 -9 -24 19 -22 -4 3 -31 16 -17 20 -19
25 -6 3 8 1 27 -4 41 -13 33 -21 36 -13 5z"/>
<path d="M5505 3540 l-30 -6 32 -8 c18 -4 42 -5 53 -1 11 4 20 2 20 -4 0 -12
62 -13 100 -2 20 6 13 9 -35 15 -33 4 -71 8 -85 10 -14 1 -38 0 -55 -4z"/>
<path d="M5160 3530 c8 -5 40 -9 70 -9 46 1 50 3 25 9 -46 12 -113 12 -95 0z"/>
<path d="M5128 3498 c-3 -16 -1 -28 5 -28 6 0 7 -3 3 -7 -12 -13 77 -33 147
-33 37 0 67 2 67 5 0 3 -8 14 -17 24 -14 14 -40 21 -105 26 -69 6 -88 11 -90
24 -3 10 -6 5 -10 -11z"/>
<path d="M6038 3439 c-26 -10 -59 -21 -73 -23 -13 -3 -30 -8 -37 -13 -19 -11
-80 -14 -73 -2 4 5 13 9 22 9 9 0 14 2 11 5 -10 10 -59 -7 -55 -19 2 -6 -26
-24 -62 -39 -36 -16 -70 -32 -75 -38 -13 -12 58 -11 189 1 195 19 219 27 149
50 l-36 12 53 22 c30 12 54 28 54 35 0 21 -15 21 -67 0z"/>
<path d="M5138 3433 c7 -3 16 -2 19 1 4 3 -2 6 -13 5 -11 0 -14 -3 -6 -6z"/>
<path d="M5148 3413 c-2 -5 -1 -30 3 -58 l6 -50 1 58 c2 52 -2 69 -10 50z"/>
<path d="M5210 3384 c-6 -14 -10 -30 -10 -36 0 -5 -12 -24 -26 -41 -15 -17
-23 -38 -21 -49 3 -10 1 -16 -4 -12 -5 3 -9 0 -9 -5 0 -6 4 -11 10 -11 5 0 7
-6 4 -13 -8 -22 -11 -210 -4 -243 4 -17 3 -40 -3 -50 -7 -11 -7 -19 0 -21 5
-2 8 -25 6 -51 -3 -26 -5 -69 -6 -97 -1 -36 -6 -50 -17 -51 -8 0 -24 -5 -35
-10 -24 -11 -139 -10 -365 0 -91 5 -226 9 -300 11 -549 8 -928 17 -947 20 -11
3 -124 7 -250 10 -125 2 -347 7 -493 10 -146 3 -490 8 -765 10 -428 3 -496 1
-470 -10 17 -8 39 -14 51 -15 28 0 36 -10 22 -27 -9 -11 -9 -16 0 -22 19 -11
325 -40 427 -40 50 0 176 -3 280 -6 105 -3 316 -7 470 -10 154 -2 341 -7 415
-10 74 -3 232 -7 350 -10 208 -4 402 -12 505 -20 141 -11 973 -31 1155 -27
114 2 120 1 120 -9 0 -5 11 -7 24 -3 13 3 27 1 31 -5 3 -6 17 -9 31 -6 13 3
35 7 49 10 20 4 25 1 25 -15 0 -17 3 -19 19 -10 30 15 69 12 80 -7 9 -16 10
-16 11 3 0 16 7 21 29 22 17 0 32 -5 35 -14 3 -9 11 -12 16 -9 19 12 80 16 80
5 0 -5 -7 -10 -15 -10 -8 0 -15 -4 -15 -10 0 -11 22 -13 127 -12 40 1 75 -3
78 -8 3 -6 18 -10 33 -10 21 0 24 2 12 10 -10 7 1 8 35 4 28 -4 58 -13 67 -21
9 -8 22 -12 27 -8 6 3 14 0 17 -8 4 -12 23 -15 77 -14 40 0 78 5 85 10 10 8
15 5 19 -11 3 -13 13 -22 24 -22 11 0 19 -6 19 -12 1 -8 7 -5 15 6 9 12 20 16
32 11 10 -4 41 -9 70 -10 38 -2 53 1 57 12 4 9 13 12 25 8 11 -3 22 -1 26 5 4
6 20 8 42 4 22 -4 34 -3 30 3 -14 23 28 38 100 35 46 -1 74 2 79 9 5 8 -3 10
-27 6 -23 -4 -41 -1 -53 8 -11 8 -34 16 -50 16 -28 2 -27 3 9 9 l40 7 -36 2
c-32 1 -49 14 -49 36 0 2 21 3 47 2 36 -2 48 2 49 13 0 8 -1 10 -3 3 -5 -16
-20 -17 -29 -2 -4 7 1 16 10 21 20 11 21 28 1 28 -8 0 -15 4 -15 9 0 5 -12 12
-27 16 -16 4 -22 10 -15 12 20 7 14 25 -7 18 -10 -3 -24 1 -31 10 -7 8 -25 15
-41 15 -21 0 -27 4 -23 15 4 8 -1 17 -10 21 -9 3 -16 12 -16 19 0 15 -28 29
-52 26 -12 -1 -16 3 -12 12 3 9 -3 16 -15 20 -12 3 -21 1 -21 -4 0 -5 -5 -9
-11 -9 -5 0 -8 3 -6 8 3 4 -13 8 -34 9 -21 2 -39 -2 -39 -8 0 -6 -7 -6 -20 1
-11 6 -20 8 -20 4 0 -3 -29 10 -64 29 -35 20 -67 33 -71 29 -3 -3 -10 0 -14 7
-5 8 -23 14 -40 15 -17 0 -31 2 -31 3 0 1 8 9 17 19 17 17 16 17 -9 11 -15 -4
-30 -3 -33 3 -8 13 -46 33 -44 23 4 -21 -2 -25 -13 -10 -8 10 -33 19 -58 22
-25 3 -65 10 -90 16 -25 5 -67 11 -93 12 l-48 2 24 20 c13 11 33 25 43 32 17
10 17 13 4 23 -19 15 4 11 170 -23 233 -48 502 -98 512 -95 9 3 -230 57 -327
73 -34 6 -37 9 -20 16 15 7 11 8 -14 4 -48 -7 -226 23 -292 49 -65 26 -83 21
-119 -31 -14 -20 -50 -52 -80 -71 -30 -19 -94 -75 -141 -123 -47 -49 -92 -89
-100 -89 -10 1 -8 5 5 15 30 22 7 17 -44 -10 -36 -19 -40 -24 -22 -25 15 0 21
-4 16 -12 -5 -8 -2 -9 11 -4 18 6 18 6 -1 -15 -21 -23 -74 -54 -74 -42 0 4 -5
2 -12 -5 -15 -15 -32 -16 -23 -2 3 6 -1 10 -10 10 -12 0 -15 6 -9 23 4 12 11
25 17 29 7 4 7 11 -1 21 -7 8 -15 51 -19 96 l-6 81 36 0 c20 0 39 5 42 10 3 6
-1 10 -9 10 -9 0 -16 7 -16 15 0 10 10 15 30 15 17 0 30 5 30 11 0 5 4 7 10 4
10 -6 75 23 68 30 -2 3 -48 8 -101 13 -54 5 -99 11 -101 13 -2 2 -6 36 -8 74
l-3 70 90 -2 c91 -2 289 -28 308 -40 6 -4 -5 -12 -24 -18 -31 -11 -27 -12 56
-13 50 -1 104 2 120 7 28 9 27 9 -20 12 -31 1 -40 4 -22 6 31 5 38 38 10 47
-31 9 -186 34 -249 41 -87 9 -93 16 -61 59 15 19 37 38 49 42 12 3 28 12 35
19 10 11 -4 14 -75 19 -48 4 -104 9 -125 11 -33 5 -38 2 -47 -21z m20 -392 c0
-4 -4 -13 -9 -21 -11 -17 -43 -7 -36 12 6 13 45 21 45 9z m532 -494 c-7 -7
-12 -8 -12 -2 0 14 12 26 19 19 2 -3 -1 -11 -7 -17z m951 -15 c-7 -2 -19 -2
-25 0 -7 3 -2 5 12 5 14 0 19 -2 13 -5z"/>
<path d="M7696 3383 c-10 -10 -554 -86 -739 -103 -100 -10 -111 -9 -157 11
-53 23 -77 19 -44 -6 49 -39 67 -43 149 -33 254 28 914 124 924 133 4 5 -128
2 -133 -2z"/>
<path d="M5458 3143 c7 -3 16 -2 19 1 4 3 -2 6 -13 5 -11 0 -14 -3 -6 -6z"/>
<path d="M1190 2961 c-74 -16 -226 -45 -337 -66 -112 -21 -201 -41 -199 -43 3
-2 46 4 98 13 216 38 274 46 298 40 17 -4 21 -3 11 4 -9 6 3 11 40 16 62 7
269 55 269 61 0 8 -48 1 -180 -25z"/>
<path d="M6478 2953 c7 -3 16 -2 19 1 4 3 -2 6 -13 5 -11 0 -14 -3 -6 -6z"/>
<path d="M9723 2943 c9 -2 25 -2 35 0 9 3 1 5 -18 5 -19 0 -27 -2 -17 -5z"/>
<path d="M9628 2933 c6 -2 18 -2 25 0 6 3 1 5 -13 5 -14 0 -19 -2 -12 -5z"/>
<path d="M603 2843 c9 -2 23 -2 30 0 6 3 -1 5 -18 5 -16 0 -22 -2 -12 -5z"/>
<path d="M9550 2770 c0 -5 6 -10 14 -10 8 0 18 5 21 10 3 6 -3 10 -14 10 -12
0 -21 -4 -21 -10z"/>
<path d="M9475 2760 c-14 -7 -8 -8 20 -3 22 3 42 7 44 9 9 8 -45 2 -64 -6z"/>
<path d="M10515 2730 c-3 -5 -1 -10 4 -10 6 0 11 5 11 10 0 6 -2 10 -4 10 -3
0 -8 -4 -11 -10z"/>
<path d="M12126 2733 c-9 -9 -7 -33 3 -33 12 0 22 28 12 34 -5 3 -11 3 -15 -1z"/>
<path d="M12237 2689 c7 -7 15 -10 18 -7 3 3 -2 9 -12 12 -14 6 -15 5 -6 -5z"/>
<path d="M6680 2683 c1 -24 20 -35 46 -29 l29 8 -34 14 c-39 16 -41 17 -41 7z"/>
<path d="M12500 2675 c0 -8 5 -15 10 -15 6 0 10 7 10 15 0 8 -4 15 -10 15 -5
0 -10 -7 -10 -15z"/>
<path d="M12765 2680 c3 -5 8 -10 11 -10 2 0 4 5 4 10 0 6 -5 10 -11 10 -5 0
-7 -4 -4 -10z"/>
<path d="M7040 2660 c0 -5 5 -10 11 -10 5 0 7 5 4 10 -3 6 -8 10 -11 10 -2 0
-4 -4 -4 -10z"/>
<path d="M13090 2645 c0 -8 5 -15 10 -15 6 0 10 7 10 15 0 8 -4 15 -10 15 -5
0 -10 -7 -10 -15z"/>
<path d="M13120 2639 c0 -19 1 -19 16 -5 17 18 28 21 19 7 -7 -12 12 -24 26
-16 13 9 -19 34 -43 35 -12 0 -18 -8 -18 -21z"/>
<path d="M6740 2629 c0 -5 5 -7 10 -4 6 3 10 8 10 11 0 2 -4 4 -10 4 -5 0 -10
-5 -10 -11z"/>
<path d="M6918 2633 c7 -3 16 -2 19 1 4 3 -2 6 -13 5 -11 0 -14 -3 -6 -6z"/>
<path d="M6954 2608 c-3 -5 -3 -9 0 -9 3 -1 11 -3 16 -4 6 -1 17 -3 26 -4 35
-3 -1 -21 -41 -21 -43 0 -44 -1 -35 -25 6 -16 6 -34 0 -51 -12 -31 -13 -94 -2
-94 5 0 13 12 19 28 l11 27 2 -30 c1 -16 4 -24 7 -17 6 14 83 17 83 2 0 -5 11
-10 25 -10 23 0 25 4 25 40 0 23 -5 40 -11 40 -8 0 -8 5 1 15 7 8 19 15 26 15
17 0 18 17 2 23 -9 3 -8 9 4 18 26 21 13 58 -21 59 -14 0 -50 2 -79 3 -30 1
-56 -1 -58 -5z m36 -52 c0 -2 -7 -6 -15 -10 -8 -3 -15 -1 -15 4 0 6 7 10 15
10 8 0 15 -2 15 -4z m5 -46 c8 -13 -5 -13 -25 0 -13 8 -13 10 2 10 9 0 20 -4
23 -10z"/>
<path d="M13200 2610 c0 -5 5 -10 11 -10 5 0 7 5 4 10 -3 6 -8 10 -11 10 -2 0
-4 -4 -4 -10z"/>
<path d="M7228 2573 c7 -3 16 -2 19 1 4 3 -2 6 -13 5 -11 0 -14 -3 -6 -6z"/>
<path d="M6800 2554 c0 -8 5 -12 10 -9 6 3 10 10 10 16 0 5 -4 9 -10 9 -5 0
-10 -7 -10 -16z"/>
<path d="M6784 2455 c-17 -13 -17 -14 -2 -15 9 0 20 5 23 11 11 17 0 20 -21 4z"/>
<path d="M7143 2437 c-13 -5 -23 -18 -23 -29 0 -12 7 -18 23 -17 12 0 16 3 10
6 -7 2 -13 9 -13 15 0 6 7 8 15 5 17 -7 31 11 19 23 -5 4 -19 3 -31 -3z"/>
<path d="M7665 2330 l-30 -8 37 -1 c20 0 40 4 43 9 7 11 -6 11 -50 0z"/>
<path d="M13081 2274 c0 -11 3 -14 6 -6 3 7 2 16 -1 19 -3 4 -6 -2 -5 -13z"/>
<path d="M12538 2243 c7 -3 16 -2 19 1 4 3 -2 6 -13 5 -11 0 -14 -3 -6 -6z"/>
<path d="M12148 2212 c-21 -2 -38 -7 -38 -13 0 -5 5 -9 10 -9 6 0 10 -7 10
-15 0 -10 10 -15 33 -14 28 1 29 2 8 8 -19 5 -21 8 -10 17 8 6 21 13 29 16 23
7 -2 14 -42 10z"/>
<path d="M12618 2123 c7 -3 16 -2 19 1 4 3 -2 6 -13 5 -11 0 -14 -3 -6 -6z"/>
<path d="M13440 1999 c0 -5 5 -7 10 -4 6 3 10 8 10 11 0 2 -4 4 -10 4 -5 0
-10 -5 -10 -11z"/>
<path d="M13268 1993 c6 -2 18 -2 25 0 6 3 1 5 -13 5 -14 0 -19 -2 -12 -5z"/>
</g>
</svg>
